<svg width="512" height="512" viewBox="0 0 512 512" fill="none" xmlns="http://www.w3.org/2000/svg">
<rect width="512" height="512" rx="32" fill="url(#paint0_radial_256_2)"/>
<path d="M211.548 74.7688C213.583 75.6353 215.242 76.8981 216.995 78.2351C217.614 78.6956 218.233 79.1561 218.852 79.6166C220.208 80.6218 221.56 81.6419 222.907 82.662C225.041 84.2812 227.205 85.8609 229.414 87.3811C230.746 88.2972 231.939 89.2132 233.093 90.3522C235.158 92.2883 236.802 93.2044 239.644 93.1648C242.105 93.0063 244.542 92.6795 246.983 92.3329C250.112 91.907 253.252 91.6099 256.391 91.298C257 91.2286 257.604 91.1643 258.228 91.0949C269.524 89.9015 269.524 89.9015 272.485 91.3574C275.327 93.7739 276.808 97.1906 278.268 100.563C278.432 100.934 278.6 101.306 278.769 101.692C279.289 102.865 279.804 104.044 280.319 105.222C280.655 105.995 280.997 106.772 281.339 107.545C281.507 107.926 281.675 108.307 281.849 108.699C282.185 109.466 282.527 110.234 282.874 110.996C283.696 112.838 284.448 114.656 285.062 116.577C286.226 120.028 287.31 122.366 290.613 124.148C292.48 125.025 294.387 125.758 296.318 126.486C297.125 126.812 297.932 127.139 298.734 127.471C300.314 128.12 301.894 128.754 303.478 129.377C306.207 130.447 308.876 131.621 311.545 132.829C311.926 132.992 312.307 133.161 312.703 133.329C316.006 134.79 318.027 136.216 319.497 139.638C320.438 146.422 318.789 153.914 318.042 160.663C317.863 162.282 317.69 163.907 317.517 165.531C317.457 166.026 317.403 166.521 317.343 167.031C317.294 167.497 317.244 167.957 317.195 168.437C317.125 169.042 317.125 169.042 317.056 169.661C316.992 171.864 317.437 173.434 318.745 175.187C319.131 175.712 319.131 175.712 319.522 176.247C319.799 176.613 320.077 176.984 320.364 177.366C320.953 178.163 321.542 178.96 322.127 179.757C322.582 180.371 322.582 180.371 323.043 180.995C324.479 182.931 325.885 184.882 327.296 186.834C327.564 187.205 327.826 187.571 328.104 187.948C336.101 199.035 336.101 199.035 335.343 204.507C334.477 206.542 333.214 208.201 331.877 209.954C331.426 210.558 330.981 211.157 330.535 211.761C329.535 213.098 328.529 214.43 327.519 215.762C325.643 218.248 323.85 220.798 322.062 223.353C321.835 223.68 321.607 224.007 321.374 224.344C321.166 224.651 320.953 224.953 320.74 225.27C319.993 226.295 319.993 226.295 319.205 227.181C317.68 228.939 316.813 230.207 316.858 232.583C316.937 233.43 317.036 234.282 317.145 235.129C317.195 235.584 317.239 236.035 317.289 236.505C317.442 237.951 317.621 239.397 317.794 240.843C317.903 241.809 318.007 242.774 318.111 243.74C318.304 245.527 318.502 247.31 318.715 249.093C320.28 262.314 320.28 262.314 318.814 265.414C315.085 269.678 308.866 271.609 303.775 273.832C302.998 274.174 302.22 274.515 301.443 274.862C301.062 275.03 300.68 275.199 300.289 275.367C299.527 275.704 298.764 276.046 298.001 276.387C296.278 277.16 294.585 277.868 292.772 278.403C289.534 279.467 287.652 280.517 286.058 283.523C285.181 285.4 284.433 287.311 283.691 289.242C283.359 290.054 283.022 290.861 282.685 291.669C282.032 293.253 281.383 294.838 280.749 296.432C279.665 299.151 278.486 301.83 277.283 304.504C277.12 304.885 276.951 305.266 276.783 305.662C275.317 308.965 273.901 310.986 270.474 312.456C264.136 313.338 257.159 311.872 250.855 311.189C248.617 310.946 246.384 310.708 244.15 310.476C243.64 310.416 243.13 310.362 242.605 310.302C242.13 310.253 241.66 310.203 241.169 310.154C240.55 310.084 240.55 310.084 239.917 310.015C237.832 309.951 236.554 310.54 234.9 311.758C234.544 312.021 234.182 312.283 233.811 312.555C233.43 312.838 233.048 313.125 232.652 313.417C231.845 314.006 231.038 314.6 230.231 315.19C229.632 315.63 229.632 315.63 229.023 316.081C227.488 317.205 225.943 318.314 224.393 319.419C224.12 319.612 223.853 319.805 223.576 320.003C222.704 320.622 221.828 321.246 220.956 321.865C220.595 322.122 220.228 322.38 219.857 322.647C218.698 323.469 217.534 324.291 216.376 325.113C216.009 325.376 215.643 325.633 215.266 325.901C214.925 326.143 214.583 326.386 214.231 326.633C213.776 326.955 213.776 326.955 213.315 327.282C210.963 328.872 208.339 328.679 205.605 328.302C203.57 327.436 201.911 326.173 200.158 324.836C199.554 324.385 198.955 323.94 198.351 323.494C197.014 322.494 195.682 321.488 194.35 320.478C191.864 318.602 189.314 316.809 186.759 315.021C186.432 314.794 186.105 314.566 185.768 314.333C185.461 314.125 185.159 313.912 184.842 313.699C183.817 312.952 183.817 312.952 182.926 312.164C181.183 310.659 179.925 309.768 177.578 309.817C176.746 309.896 175.919 309.995 175.092 310.104C174.652 310.154 174.206 310.198 173.745 310.248C172.334 310.401 170.928 310.58 169.516 310.753C168.576 310.862 167.635 310.966 166.694 311.07C164.951 311.263 163.208 311.461 161.465 311.674C147.867 313.318 147.867 313.318 144.639 311.714C141.831 309.272 140.345 305.87 138.885 302.508C138.637 301.949 138.637 301.949 138.384 301.379C137.864 300.206 137.349 299.027 136.834 297.848C136.498 297.076 136.156 296.299 135.814 295.526C135.646 295.145 135.478 294.763 135.304 294.372C134.968 293.605 134.626 292.837 134.279 292.075C133.457 290.233 132.705 288.415 132.091 286.494C130.927 283.043 129.842 280.705 126.54 278.923C124.673 278.046 122.766 277.313 120.835 276.585C120.028 276.259 119.221 275.932 118.419 275.6C116.839 274.951 115.259 274.317 113.675 273.693C110.946 272.624 108.277 271.45 105.608 270.242C105.227 270.079 104.846 269.91 104.45 269.742C101.147 268.281 99.1263 266.855 97.6556 263.433C96.7148 256.649 98.3637 249.157 99.1114 242.408C99.2897 240.789 99.463 239.164 99.6363 237.54C99.6958 237.045 99.7502 236.55 99.8097 236.04C99.8839 235.347 99.8839 235.347 99.9582 234.633C100.008 234.232 100.052 233.826 100.097 233.41C100.161 231.207 99.7156 229.637 98.4083 227.884C98.1508 227.533 97.8933 227.186 97.6309 226.824C97.3535 226.458 97.0762 226.087 96.789 225.705C96.1998 224.908 95.6105 224.111 95.0262 223.314C94.7241 222.903 94.4221 222.497 94.1101 222.076C92.6741 220.139 91.2678 218.188 89.8565 216.237C89.4554 215.683 89.4554 215.683 89.0493 215.123C81.0521 204.036 81.0521 204.036 81.8098 198.564C82.6763 196.529 83.9391 194.87 85.276 193.117C85.7366 192.498 86.1971 191.879 86.6576 191.26C87.6628 189.904 88.6829 188.552 89.703 187.205C91.3222 185.071 92.9019 182.907 94.4221 180.698C95.3382 179.366 96.2542 178.173 97.3932 177.019C99.3293 174.954 100.245 173.31 100.206 170.468C100.047 168.007 99.7205 165.57 99.3739 163.129C98.948 160 98.6509 156.86 98.339 153.721C98.2696 153.112 98.2053 152.507 98.1359 151.884C96.9425 140.588 96.9425 140.588 98.3984 137.627C100.815 134.785 104.232 133.304 107.604 131.844C107.975 131.68 108.347 131.512 108.733 131.343C109.906 130.823 111.085 130.308 112.263 129.793C113.036 129.457 113.813 129.115 114.586 128.773C115.155 128.521 115.155 128.521 115.74 128.263C116.507 127.927 117.275 127.585 118.037 127.238C119.879 126.416 121.697 125.664 123.618 125.05C127.069 123.886 129.407 122.801 131.189 119.499C132.066 117.632 132.799 115.725 133.527 113.794C133.853 112.987 134.18 112.18 134.512 111.378C135.161 109.798 135.795 108.218 136.418 106.634C137.488 103.905 138.662 101.236 139.87 98.5672C140.033 98.186 140.202 97.8047 140.37 97.4085C141.831 94.1056 143.257 92.0853 146.679 90.6146C153.463 89.6738 160.955 91.3227 167.704 92.0704C169.323 92.2487 170.948 92.422 172.572 92.5953C173.315 92.6845 173.315 92.6845 174.072 92.7687C174.765 92.8429 174.765 92.8429 175.478 92.9172C175.88 92.9667 176.286 93.0113 176.702 93.0559C179.514 93.14 181.228 92.1348 183.416 90.4908C184.03 90.0402 184.649 89.5846 185.268 89.134C185.595 88.8914 185.922 88.6487 186.259 88.4011C188.046 87.084 189.849 85.7866 191.646 84.4843C192.201 84.0832 192.201 84.0832 192.77 83.6771C195.469 81.7261 198.183 79.7899 200.901 77.8637C201.441 77.4824 201.441 77.4824 201.986 77.0912C205.303 74.7539 207.467 74.2043 211.548 74.7688Z" fill="#5392F9"/>
<path d="M246.983 92.3329C244.542 92.6795 242.105 93.0063 239.644 93.1648L248.783 126.258L276.225 142.851L280.692 171.569L299.2 199.011L288.989 222.624L289.627 248.79L267.928 259.639L256.441 279.423L237.295 285.167L233.811 312.555C234.182 312.283 234.544 312.021 234.9 311.758C236.554 310.54 237.832 309.951 239.917 310.015C240.55 310.084 240.55 310.084 241.169 310.154L241.169 310.154C241.563 310.194 241.944 310.233 242.326 310.273L242.605 310.302C243.13 310.362 243.64 310.416 244.15 310.476C246.384 310.708 248.617 310.946 250.855 311.189C257.159 311.872 264.136 313.338 270.474 312.456C273.901 310.986 275.317 308.965 276.783 305.662C276.951 305.266 277.12 304.885 277.283 304.504C278.486 301.83 279.665 299.151 280.749 296.432C281.383 294.838 282.032 293.253 282.686 291.669L282.688 291.663C283.024 290.858 283.36 290.053 283.691 289.242C284.434 287.311 285.181 285.4 286.058 283.523C287.652 280.517 289.534 279.467 292.772 278.403C294.585 277.868 296.278 277.16 298.002 276.387C298.764 276.046 299.527 275.704 300.289 275.367C300.68 275.199 301.062 275.03 301.443 274.862C302.22 274.516 302.997 274.174 303.774 273.833L303.775 273.832C308.866 271.609 315.085 269.678 318.814 265.414C320.28 262.314 320.28 262.314 318.715 249.093L318.715 249.093C318.502 247.31 318.304 245.528 318.111 243.74L318.109 243.726C318.006 242.765 317.902 241.804 317.794 240.843C317.621 239.397 317.442 237.951 317.289 236.505C317.239 236.035 317.195 235.584 317.145 235.129C317.036 234.282 316.937 233.43 316.858 232.583C316.814 230.207 317.68 228.939 319.205 227.181C319.992 226.295 319.993 226.295 320.74 225.27L320.74 225.27C320.953 224.953 321.166 224.651 321.374 224.344C321.605 224.009 321.832 223.684 322.058 223.359L322.062 223.353C323.85 220.798 325.643 218.248 327.519 215.762C328.53 214.43 329.535 213.098 330.535 211.761C330.981 211.157 331.426 210.558 331.877 209.954C333.214 208.201 334.477 206.542 335.343 204.507C336.101 199.035 336.101 199.035 328.104 187.948C327.826 187.571 327.564 187.205 327.297 186.834C325.885 184.882 324.479 182.931 323.043 180.995C322.584 180.373 322.582 180.371 322.131 179.763L322.127 179.757C321.543 178.96 320.953 178.163 320.364 177.366C320.077 176.984 319.799 176.613 319.522 176.247L319.514 176.236C319.131 175.712 319.128 175.708 318.745 175.187C317.437 173.434 316.992 171.864 317.056 169.661C317.125 169.042 317.125 169.042 317.195 168.438L317.195 168.438C317.244 167.957 317.294 167.497 317.343 167.031C317.403 166.521 317.457 166.026 317.517 165.531L317.519 165.511C317.691 163.894 317.864 162.276 318.042 160.663C318.789 153.914 320.438 146.422 319.497 139.638C318.027 136.216 316.006 134.79 312.704 133.329C312.307 133.161 311.926 132.992 311.545 132.829C308.876 131.621 306.207 130.447 303.478 129.377C301.894 128.754 300.314 128.12 298.734 127.471C297.933 127.139 297.126 126.813 296.319 126.486L296.318 126.486C294.387 125.758 292.48 125.025 290.613 124.148C287.311 122.366 286.226 120.028 285.062 116.577C284.448 114.656 283.696 112.838 282.874 110.996C282.527 110.234 282.185 109.466 281.849 108.699C281.675 108.307 281.507 107.926 281.339 107.545C280.997 106.772 280.655 105.995 280.319 105.222C279.804 104.044 279.289 102.865 278.769 101.692C278.6 101.306 278.432 100.934 278.269 100.563C276.808 97.1906 275.327 93.7739 272.485 91.3574C269.524 89.9016 269.524 89.9016 258.228 91.0949C257.605 91.1643 257 91.2286 256.391 91.298C253.252 91.6099 250.112 91.907 246.983 92.3329Z" fill="#4071F7"/>
<path d="M135.86 216.165V189.747L139.43 193.191H130.4V186.765H144.176V216.165H135.86ZM168.337 216.753C165.789 216.753 163.563 216.375 161.659 215.619C159.755 214.863 158.257 213.799 157.165 212.427C156.101 211.027 155.569 209.389 155.569 207.513C155.569 205.665 156.101 204.097 157.165 202.809C158.257 201.493 159.755 200.499 161.659 199.827C163.591 199.127 165.817 198.777 168.337 198.777C170.857 198.777 173.069 199.127 174.973 199.827C176.905 200.499 178.403 201.493 179.467 202.809C180.559 204.097 181.105 205.665 181.105 207.513C181.105 209.389 180.573 211.027 179.509 212.427C178.445 213.799 176.947 214.863 175.015 215.619C173.111 216.375 170.885 216.753 168.337 216.753ZM168.337 210.915C169.681 210.915 170.745 210.593 171.529 209.949C172.341 209.305 172.747 208.409 172.747 207.261C172.747 206.141 172.341 205.259 171.529 204.615C170.745 203.943 169.681 203.607 168.337 203.607C166.993 203.607 165.915 203.943 165.103 204.615C164.319 205.259 163.927 206.141 163.927 207.261C163.927 208.409 164.319 209.305 165.103 209.949C165.915 210.593 166.993 210.915 168.337 210.915ZM168.337 202.893C166.041 202.893 164.011 202.571 162.247 201.927C160.511 201.283 159.139 200.359 158.131 199.155C157.123 197.923 156.619 196.453 156.619 194.745C156.619 192.981 157.109 191.469 158.089 190.209C159.097 188.949 160.483 187.969 162.247 187.269C164.011 186.541 166.041 186.177 168.337 186.177C170.661 186.177 172.691 186.541 174.427 187.269C176.191 187.969 177.563 188.949 178.543 190.209C179.551 191.469 180.055 192.981 180.055 194.745C180.055 196.453 179.551 197.923 178.543 199.155C177.563 200.359 176.191 201.283 174.427 201.927C172.663 202.571 170.633 202.893 168.337 202.893ZM168.337 198.189C169.401 198.189 170.255 197.923 170.899 197.391C171.543 196.831 171.865 196.075 171.865 195.123C171.865 194.115 171.529 193.345 170.857 192.813C170.213 192.281 169.373 192.015 168.337 192.015C167.301 192.015 166.461 192.281 165.817 192.813C165.173 193.345 164.851 194.115 164.851 195.123C164.851 196.075 165.173 196.831 165.817 197.391C166.461 197.923 167.301 198.189 168.337 198.189ZM203.951 216.753C201.431 216.753 199.191 216.151 197.231 214.947C195.299 213.743 193.773 212.007 192.653 209.739C191.533 207.471 190.973 204.713 190.973 201.465C190.973 198.217 191.533 195.459 192.653 193.191C193.773 190.923 195.299 189.187 197.231 187.983C199.191 186.779 201.431 186.177 203.951 186.177C206.443 186.177 208.655 186.779 210.587 187.983C212.547 189.187 214.087 190.923 215.207 193.191C216.327 195.459 216.887 198.217 216.887 201.465C216.887 204.713 216.327 207.471 215.207 209.739C214.087 212.007 212.547 213.743 210.587 214.947C208.655 216.151 206.443 216.753 203.951 216.753ZM203.951 209.949C204.847 209.949 205.631 209.669 206.303 209.109C207.003 208.549 207.549 207.653 207.941 206.421C208.333 205.161 208.529 203.509 208.529 201.465C208.529 199.393 208.333 197.741 207.941 196.509C207.549 195.277 207.003 194.381 206.303 193.821C205.631 193.261 204.847 192.981 203.951 192.981C203.055 192.981 202.257 193.261 201.557 193.821C200.885 194.381 200.339 195.277 199.919 196.509C199.527 197.741 199.331 199.393 199.331 201.465C199.331 203.509 199.527 205.161 199.919 206.421C200.339 207.653 200.885 208.549 201.557 209.109C202.257 209.669 203.055 209.949 203.951 209.949ZM239.843 216.753C237.323 216.753 235.083 216.151 233.123 214.947C231.191 213.743 229.665 212.007 228.545 209.739C227.425 207.471 226.865 204.713 226.865 201.465C226.865 198.217 227.425 195.459 228.545 193.191C229.665 190.923 231.191 189.187 233.123 187.983C235.083 186.779 237.323 186.177 239.843 186.177C242.335 186.177 244.547 186.779 246.479 187.983C248.439 189.187 249.979 190.923 251.099 193.191C252.219 195.459 252.779 198.217 252.779 201.465C252.779 204.713 252.219 207.471 251.099 209.739C249.979 212.007 248.439 213.743 246.479 214.947C244.547 216.151 242.335 216.753 239.843 216.753ZM239.843 209.949C240.739 209.949 241.523 209.669 242.195 209.109C242.895 208.549 243.441 207.653 243.833 206.421C244.225 205.161 244.421 203.509 244.421 201.465C244.421 199.393 244.225 197.741 243.833 196.509C243.441 195.277 242.895 194.381 242.195 193.821C241.523 193.261 240.739 192.981 239.843 192.981C238.947 192.981 238.149 193.261 237.449 193.821C236.777 194.381 236.231 195.277 235.811 196.509C235.419 197.741 235.223 199.393 235.223 201.465C235.223 203.509 235.419 205.161 235.811 206.421C236.231 207.653 236.777 208.549 237.449 209.109C238.149 209.669 238.947 209.949 239.843 209.949ZM270.987 211.461V191.469H277.455V211.461H270.987ZM263.847 204.531V198.399H284.553V204.531H263.847Z" fill="white"/>
<path fill-rule="evenodd" clip-rule="evenodd" d="M415.838 383.62C413.388 388.145 411.997 393.327 411.997 398.834C411.997 409.366 417.085 418.71 424.937 424.541V430.484L261.873 429.347L261.261 383.62H415.838Z" fill="#62719B"/>
<path d="M273.124 229.692C260.762 229.692 250.741 239.714 250.741 252.075V415.052C250.741 427.414 260.762 437.435 273.124 437.435H412.318C419.653 437.435 428.648 437.61 428.604 432.801C428.298 429.959 426.159 429.408 424.934 428.752L281.692 428.342C271.745 428.342 263.681 419.579 263.681 409.631C263.681 399.684 271.745 390.221 281.692 390.221H413.892C426.658 390.221 430.505 386.024 430.505 373.783V252.075C430.505 239.714 420.483 229.692 408.122 229.692H273.124Z" fill="#5392F9"/>
<path d="M281.568 377.652C261.611 377.652 250.741 392.888 250.741 415.052C250.741 428.211 260.762 437.435 273.124 437.435H412.318C419.653 437.435 428.648 437.61 428.604 432.801C428.298 429.959 426.159 429.408 424.934 428.752L281.692 428.342C271.745 428.342 263.681 419.579 263.681 409.631C263.681 399.684 271.745 390.221 281.692 390.221H413.892C426.658 390.221 430.505 385.631 430.505 377.324L281.568 377.652Z" fill="#6C96CD"/>
<path d="M280.118 229.692C259.25 229.824 250.741 231.222 250.741 249.278V415.052C250.741 390.789 263.709 377.63 281.692 377.63L280.118 229.692Z" fill="#4071F7"/>
<path d="M351.521 361.268L361.505 338.868H366.625L376.641 361.268H371.201L363.009 341.492H365.057L356.833 361.268H351.521ZM356.513 356.468L357.889 352.532H369.409L370.817 356.468H356.513ZM377.223 354.26V350.26H386.279V354.26H377.223ZM389.119 361.268V357.908L402.975 341.204L403.615 343.092H389.375V338.868H408.223V342.228L394.399 358.932L393.759 357.044H408.703V361.268H389.119Z" fill="#DCEAFC"/>
<defs>
<radialGradient id="paint0_radial_256_2" cx="0" cy="0" r="1" gradientUnits="userSpaceOnUse" gradientTransform="translate(256 256) rotate(90) scale(256)">
<stop stop-color="#DCEAFC"/>
<stop offset="1" stop-color="white"/>
</radialGradient>
</defs>
</svg>
