<svg width="800" height="451" viewBox="0 0 800 451" fill="none" xmlns="http://www.w3.org/2000/svg">
<rect width="800" height="450" transform="translate(0 0.5)" fill="#DCEAFC"/>
<path d="M491.063 69.0976C491.987 69.0976 492.905 69.0911 493.829 69.0846C496.347 69.0781 498.859 69.0781 501.377 69.0781C504.098 69.0846 506.818 69.0716 509.538 69.0651C514.861 69.0521 520.184 69.0456 525.508 69.0521C529.842 69.0521 534.169 69.0456 538.503 69.0456C539.753 69.0391 541.002 69.0391 542.252 69.0391C542.87 69.0391 543.495 69.0391 544.132 69.0391C555.885 69.0261 567.638 69.0261 579.391 69.0261C590.128 69.0326 600.866 69.0196 611.603 69C622.64 68.974 633.684 68.9675 644.721 68.9675C650.909 68.9675 657.105 68.9675 663.293 68.948C668.565 68.935 673.836 68.935 679.113 68.948C681.794 68.9545 684.482 68.9545 687.17 68.9415C703.367 68.8634 715.803 69.8525 728.226 81.4686C736.927 90.5467 739.777 101.017 739.732 113.271C739.732 114.28 739.738 115.289 739.745 116.297C739.751 119.05 739.751 121.803 739.751 124.556C739.745 127.536 739.758 130.51 739.764 133.49C739.777 139.315 739.784 145.139 739.777 150.963C739.777 155.701 739.784 160.438 739.784 165.176C739.79 166.543 739.79 167.909 739.79 169.276C739.79 170.291 739.79 170.291 739.79 171.332C739.803 184.191 739.803 197.044 739.803 209.903C739.797 221.649 739.81 233.389 739.829 245.135C739.855 257.213 739.862 269.285 739.862 281.363C739.862 288.137 739.862 294.912 739.881 301.686C739.894 307.452 739.894 313.218 739.881 318.983C739.875 321.925 739.875 324.866 739.888 327.801C739.901 330.502 739.901 333.196 739.881 335.897C739.881 336.866 739.881 337.829 739.894 338.799C739.999 351.339 735.951 361.283 727.361 370.472C718.556 378.912 708.287 382.029 696.332 381.971C695.408 381.977 694.484 381.977 693.56 381.984C691.042 381.99 688.523 381.99 686.005 381.984C683.278 381.984 680.552 381.99 677.831 381.997C672.495 382.01 667.165 382.01 661.836 382.003C657.502 382.003 653.168 382.003 648.833 382.003C648.215 382.01 647.597 382.01 646.959 382.01C645.703 382.01 644.447 382.01 643.191 382.01C631.432 382.023 619.666 382.016 607.907 382.01C597.157 382.003 586.406 382.01 575.655 382.029C564.605 382.042 553.555 382.049 542.506 382.042C536.304 382.042 530.109 382.042 523.907 382.055C518.629 382.062 513.351 382.062 508.074 382.055C505.386 382.049 502.698 382.049 500.004 382.055C497.538 382.068 495.072 382.062 492.605 382.049C491.304 382.049 489.996 382.055 488.694 382.062C477.013 381.971 467.128 377.389 458.87 369.248C450.364 360.092 447.416 349.68 447.52 337.406C447.514 336.398 447.514 335.389 447.507 334.374C447.494 331.628 447.501 328.882 447.507 326.135C447.514 323.161 447.507 320.187 447.494 317.213C447.481 311.402 447.481 305.591 447.494 299.773C447.501 295.048 447.501 290.317 447.501 285.593C447.501 284.916 447.494 284.246 447.494 283.549C447.494 282.176 447.494 280.803 447.494 279.437C447.481 266.604 447.494 253.771 447.514 240.931C447.527 229.94 447.527 218.942 447.507 207.951C447.494 195.157 447.488 182.369 447.494 169.582C447.494 168.215 447.494 166.848 447.501 165.482C447.501 164.812 447.501 164.141 447.501 163.445C447.501 158.727 447.501 154.009 447.488 149.291C447.481 143.538 447.481 137.779 447.501 132.026C447.507 129.091 447.514 126.163 447.501 123.228C447.494 120.534 447.501 117.846 447.514 115.152C447.52 114.189 447.514 113.219 447.507 112.256C447.416 99.729 451.464 89.7788 460.048 80.6031C468.846 72.1627 479.115 69.0456 491.063 69.0976Z" fill="#DCEAFC"/>
<path d="M565.609 194.728C569.305 196.485 571.908 198.834 574.759 201.736C575.481 202.465 575.481 202.465 576.223 203.201C577.804 204.788 579.379 206.383 580.954 207.977C582.054 209.084 583.153 210.19 584.26 211.29C587.149 214.192 590.032 217.101 592.908 220.01C595.856 222.977 598.804 225.945 601.759 228.906C607.538 234.717 613.316 240.535 619.082 246.359C621.639 245.175 623.384 243.522 625.336 241.53C625.694 241.166 626.052 240.808 626.416 240.437C627.191 239.656 627.965 238.875 628.733 238.094C629.95 236.851 631.173 235.615 632.403 234.385C635.885 230.878 639.36 227.357 642.828 223.843C644.956 221.689 647.084 219.541 649.219 217.394C650.032 216.574 650.839 215.754 651.646 214.934C652.778 213.782 653.911 212.643 655.05 211.498C655.544 210.99 655.544 210.99 656.052 210.47C659.13 207.392 661.505 206.546 665.833 206.428C670.121 207.151 672.919 210.066 675.906 212.969C676.831 213.854 677.755 214.739 678.685 215.624C679.154 216.079 679.629 216.535 680.117 217.003C682.427 219.209 684.757 221.396 687.087 223.582C688.017 224.461 688.948 225.333 689.872 226.205C692.52 228.697 695.176 231.183 697.824 233.669C701.878 237.463 705.92 241.27 709.961 245.071C713.071 247.999 716.182 250.927 719.299 253.843C721.037 255.47 722.774 257.097 724.505 258.724C724.993 259.179 725.475 259.635 725.976 260.103C727.466 261.502 728.957 262.901 730.447 264.301C730.902 264.724 731.358 265.153 731.826 265.589C732.471 266.201 732.471 266.201 733.134 266.819C733.512 267.177 733.889 267.528 734.28 267.893C734.703 268.303 735.132 268.713 735.568 269.136C736.232 269.663 736.889 270.183 737.573 270.724C739.85 273.021 739.948 275.019 740 278.162C739.987 278.832 739.98 279.502 739.967 280.192C739.98 281.259 739.98 281.259 739.987 282.353C740 284.715 739.987 287.071 739.967 289.426C739.974 291.073 739.974 292.726 739.98 294.372C739.98 297.828 739.967 301.283 739.948 304.739C739.922 308.709 739.922 312.678 739.941 316.648C739.954 320.487 739.948 324.327 739.935 328.173C739.935 329.793 739.935 331.414 739.941 333.041C739.974 348.008 737.931 359.162 727.362 370.472C718.557 378.913 708.288 382.03 696.334 381.971C695.41 381.978 694.486 381.978 693.562 381.984C691.043 381.991 688.525 381.991 686 381.984C683.28 381.984 680.553 381.991 677.826 381.997C672.496 382.01 667.167 382.01 661.837 382.004C657.503 382.004 653.169 382.004 648.835 382.004C648.217 382.004 647.598 382.01 646.961 382.01C645.705 382.01 644.449 382.01 643.193 382.01C631.433 382.017 619.668 382.017 607.908 382.01C597.158 382.004 586.407 382.01 575.657 382.023C564.607 382.043 553.557 382.049 542.507 382.043C536.305 382.043 530.103 382.043 523.908 382.056C518.631 382.062 513.353 382.062 508.075 382.056C505.388 382.049 502.7 382.049 500.006 382.056C497.539 382.062 495.073 382.062 492.607 382.049C491.299 382.043 489.997 382.056 488.689 382.062C477.014 381.971 467.129 377.39 458.871 369.249C452.962 362.891 450.17 356.149 447.932 347.878C447.75 347.24 447.567 346.602 447.379 345.945C443.617 332.292 441.639 315.509 448.869 302.611C460.674 283.98 478.771 268.921 494.852 254.038C499.791 249.47 504.672 244.843 509.513 240.157C509.832 239.851 510.151 239.539 510.483 239.22C511.771 237.971 513.06 236.721 514.349 235.478C524.162 225.958 534.028 216.496 544.023 207.17C545.064 206.201 546.099 205.231 547.134 204.255C548.553 202.934 549.971 201.613 551.39 200.298C551.8 199.908 552.21 199.524 552.626 199.127C556.362 195.691 560.325 192.827 565.609 194.728Z" fill="#5392F9"/>
<path d="M669.061 207.382C671.696 208.944 673.713 210.844 675.907 212.972C676.831 213.85 677.755 214.735 678.685 215.62C679.154 216.076 679.629 216.531 680.117 217C682.427 219.213 684.757 221.399 687.087 223.586C688.017 224.458 688.948 225.336 689.872 226.208C692.52 228.701 695.176 231.187 697.824 233.672C701.878 237.466 705.92 241.267 709.961 245.074C713.072 248.002 716.182 250.924 719.299 253.846C721.037 255.473 722.774 257.1 724.505 258.727C725.234 259.404 725.234 259.404 725.976 260.1C727.466 261.499 728.957 262.898 730.447 264.297C730.902 264.727 731.358 265.15 731.826 265.592C732.471 266.198 732.471 266.198 733.134 266.822C733.512 267.174 733.889 267.532 734.28 267.896C734.703 268.306 735.132 268.716 735.568 269.139C736.232 269.66 736.889 270.18 737.573 270.72C739.85 273.018 739.948 275.015 740 278.165C739.987 278.829 739.98 279.499 739.967 280.189C739.98 281.263 739.98 281.263 739.987 282.356C740 284.712 739.987 287.067 739.967 289.43C739.974 291.076 739.974 292.723 739.98 294.369C739.98 297.825 739.967 301.28 739.948 304.742C739.922 308.712 739.922 312.675 739.941 316.645C739.954 320.491 739.948 324.33 739.935 328.17C739.935 329.796 739.935 331.417 739.941 333.037C739.987 354.102 739.987 354.102 734.807 359.862C734.416 360.2 734.026 360.545 733.616 360.896C730.382 358.183 727.343 355.358 724.362 352.371C723.913 351.922 723.464 351.473 723.002 351.005C721.499 349.508 720.009 348.011 718.512 346.514C717.432 345.434 716.351 344.354 715.278 343.28C712.356 340.358 709.44 337.436 706.525 334.521C703.785 331.775 701.039 329.029 698.299 326.289C692.865 320.855 687.438 315.421 682.011 309.987C676.74 304.71 671.468 299.432 666.197 294.161C665.872 293.835 665.546 293.51 665.208 293.172C663.575 291.538 661.941 289.905 660.314 288.271C646.785 274.736 633.256 261.2 619.733 247.664C620.351 246.942 620.963 246.219 621.574 245.503C621.919 245.1 622.258 244.703 622.609 244.286C624.093 242.588 625.668 240.981 627.256 239.386C627.594 239.041 627.932 238.703 628.284 238.351C629.384 237.239 630.49 236.132 631.596 235.02C631.974 234.642 632.351 234.258 632.748 233.861C634.752 231.85 636.757 229.833 638.768 227.822C640.844 225.746 642.906 223.664 644.969 221.581C646.564 219.974 648.165 218.373 649.759 216.772C650.527 216.011 651.288 215.243 652.05 214.475C653.11 213.401 654.178 212.334 655.245 211.267C655.85 210.662 656.455 210.05 657.08 209.425C660.627 206.38 664.713 205.67 669.061 207.382Z" fill="#4071F7"/>
<path d="M645.547 149.5C651.768 155.291 655.725 162.391 656.317 170.884C656.61 180.443 653.909 188.682 647.395 195.762C640.451 202.341 631.946 205.049 622.516 204.873C613.646 204.196 606.924 199.953 600.865 193.647C594.937 186.521 593.141 177.99 593.707 168.918C595.048 160.439 599.427 153.463 606.071 148.094C618.527 139.933 633.703 139.914 645.547 149.5Z" fill="#5392F9"/>
<rect x="58.484" y="74.5" width="312" height="32" rx="8" fill="#4071F7"/>
<rect x="58.484" y="119.5" width="249.516" height="32" rx="8" fill="#4071F7"/>
<rect x="58.484" y="164.5" width="312" height="32" rx="8" fill="#4071F7"/>
<rect x="58.484" y="209.5" width="249.516" height="32" rx="8" fill="#4071F7"/>
<rect x="58.484" y="254.5" width="312" height="32" rx="8" fill="#4071F7"/>
<rect x="58.484" y="299.5" width="249.516" height="32" rx="8" fill="#4071F7"/>
<rect x="58.484" y="344.5" width="312" height="32" rx="8" fill="#4071F7"/>
</svg>
