<svg width="800" height="450" viewBox="0 0 800 450" fill="none" xmlns="http://www.w3.org/2000/svg">
<rect width="800" height="450" fill="#DCEAFC"/>
<path d="M90.5823 53.3479L93.7023 45.8839H96.3183L94.3983 53.3479H90.5823ZM84.6543 53.3479L87.7743 45.8839H90.3903L88.4703 53.3479H84.6543ZM103.485 64.5079V49.7719H98.9009V46.9879H111.093V49.7719H106.509V64.5079H103.485ZM114.036 64.5079V46.9879H117.036V51.3079L116.964 53.8279H117.78L116.964 54.5239C116.964 53.4359 117.276 52.5879 117.9 51.9799C118.54 51.3719 119.412 51.0679 120.516 51.0679C121.812 51.0679 122.844 51.4999 123.612 52.3639C124.396 53.2279 124.788 54.3879 124.788 55.8439V64.5079H121.788V56.1559C121.788 55.3559 121.58 54.7399 121.164 54.3079C120.748 53.8759 120.164 53.6599 119.412 53.6599C118.676 53.6599 118.092 53.8839 117.66 54.3319C117.244 54.7799 117.036 55.4199 117.036 56.2519V64.5079H114.036ZM133.802 64.7479C132.682 64.7479 131.706 64.5319 130.874 64.0999C130.042 63.6679 129.394 63.0679 128.93 62.2999C128.482 61.5159 128.258 60.6039 128.258 59.5639V56.2519C128.258 55.2119 128.482 54.3079 128.93 53.5399C129.394 52.7559 130.042 52.1479 130.874 51.7159C131.706 51.2839 132.682 51.0679 133.802 51.0679C134.906 51.0679 135.866 51.2839 136.682 51.7159C137.514 52.1479 138.154 52.7559 138.602 53.5399C139.066 54.3079 139.298 55.2119 139.298 56.2519V58.6279H131.162V59.5639C131.162 60.4919 131.386 61.1959 131.834 61.6759C132.282 62.1399 132.946 62.3719 133.826 62.3719C134.498 62.3719 135.042 62.2599 135.458 62.0359C135.874 61.7959 136.138 61.4519 136.25 61.0039H139.202C138.978 62.1399 138.37 63.0519 137.378 63.7399C136.402 64.4119 135.21 64.7479 133.802 64.7479ZM136.394 56.9479V56.2279C136.394 55.3159 136.178 54.6199 135.746 54.1399C135.314 53.6439 134.666 53.3959 133.802 53.3959C132.938 53.3959 132.282 53.6439 131.834 54.1399C131.386 54.6359 131.162 55.3399 131.162 56.2519V56.7559L136.61 56.7079L136.394 56.9479ZM157.615 64.5079V51.3079H160.447V53.8279H161.191L160.303 55.3639C160.303 53.9399 160.623 52.8679 161.263 52.1479C161.903 51.4279 162.847 51.0679 164.095 51.0679C165.519 51.0679 166.639 51.5079 167.455 52.3879C168.271 53.2679 168.679 54.4839 168.679 56.0359V56.9959H165.535V56.2519C165.535 55.4039 165.311 54.7479 164.863 54.2839C164.431 53.8199 163.831 53.5879 163.063 53.5879C162.279 53.5879 161.671 53.8199 161.239 54.2839C160.823 54.7479 160.615 55.4039 160.615 56.2519V64.5079H157.615ZM176.95 64.7239C175.83 64.7239 174.854 64.5159 174.022 64.0999C173.206 63.6679 172.566 63.0679 172.102 62.2999C171.654 61.5159 171.43 60.5959 171.43 59.5399V56.2759C171.43 55.2199 171.654 54.3079 172.102 53.5399C172.566 52.7559 173.206 52.1559 174.022 51.7399C174.854 51.3079 175.83 51.0919 176.95 51.0919C178.086 51.0919 179.062 51.3079 179.878 51.7399C180.694 52.1559 181.326 52.7559 181.774 53.5399C182.238 54.3079 182.47 55.2119 182.47 56.2519V59.5399C182.47 60.5959 182.238 61.5159 181.774 62.2999C181.326 63.0679 180.694 63.6679 179.878 64.0999C179.062 64.5159 178.086 64.7239 176.95 64.7239ZM176.95 62.1079C177.75 62.1079 178.366 61.8919 178.798 61.4599C179.246 61.0119 179.47 60.3719 179.47 59.5399V56.2759C179.47 55.4279 179.246 54.7879 178.798 54.3559C178.366 53.9239 177.75 53.7079 176.95 53.7079C176.166 53.7079 175.55 53.9239 175.102 54.3559C174.654 54.7879 174.43 55.4279 174.43 56.2759V59.5399C174.43 60.3719 174.654 61.0119 175.102 61.4599C175.55 61.8919 176.166 62.1079 176.95 62.1079ZM192.469 64.7479C191.381 64.7479 190.517 64.4439 189.877 63.8359C189.237 63.2119 188.917 62.3639 188.917 61.2919L189.589 61.9879H188.917V64.5079H185.989V46.9879H188.989V50.6839L188.893 53.8279H189.589L188.917 54.5239C188.917 53.4519 189.237 52.6119 189.877 52.0039C190.517 51.3799 191.381 51.0679 192.469 51.0679C193.797 51.0679 194.861 51.5239 195.661 52.4359C196.461 53.3479 196.861 54.5799 196.861 56.1319V59.7079C196.861 61.2439 196.461 62.4679 195.661 63.3799C194.861 64.2919 193.797 64.7479 192.469 64.7479ZM191.413 62.1559C192.181 62.1559 192.781 61.9319 193.213 61.4839C193.645 61.0359 193.861 60.3959 193.861 59.5639V56.2519C193.861 55.4199 193.645 54.7799 193.213 54.3319C192.781 53.8839 192.181 53.6599 191.413 53.6599C190.661 53.6599 190.069 53.8919 189.637 54.3559C189.205 54.8039 188.989 55.4359 188.989 56.2519V59.5639C188.989 60.3799 189.205 61.0199 189.637 61.4839C190.069 61.9319 190.661 62.1559 191.413 62.1559ZM200.355 64.5079V61.7719H204.963V54.0199H200.955V51.3079H207.843V61.7719H211.923V64.5079H200.355ZM206.163 49.0999C205.555 49.0999 205.075 48.9479 204.723 48.6439C204.371 48.3239 204.195 47.8999 204.195 47.3719C204.195 46.8439 204.371 46.4279 204.723 46.1239C205.075 45.8039 205.555 45.6439 206.163 45.6439C206.771 45.6439 207.251 45.8039 207.603 46.1239C207.955 46.4279 208.131 46.8439 208.131 47.3719C208.131 47.8999 207.955 48.3239 207.603 48.6439C207.251 48.9479 206.771 49.0999 206.163 49.0999ZM214.77 64.5079V51.3079H217.698V53.8279H218.514L217.698 54.5239C217.698 53.4359 218.01 52.5879 218.634 51.9799C219.274 51.3719 220.146 51.0679 221.25 51.0679C222.546 51.0679 223.578 51.4999 224.346 52.3639C225.13 53.2279 225.522 54.3879 225.522 55.8439V64.5079H222.522V56.1559C222.522 55.3559 222.314 54.7399 221.898 54.3079C221.482 53.8759 220.898 53.6599 220.146 53.6599C219.41 53.6599 218.826 53.8839 218.394 54.3319C217.978 54.7799 217.77 55.4199 217.77 56.2519V64.5079H214.77ZM248.399 64.7239C247.391 64.7239 246.511 64.5639 245.759 64.2439C245.007 63.9239 244.415 63.4839 243.983 62.9239C243.567 62.3479 243.343 61.6759 243.311 60.9079H246.311C246.343 61.3239 246.543 61.6599 246.911 61.9159C247.295 62.1719 247.791 62.2999 248.399 62.2999H249.455C250.191 62.2999 250.743 62.1559 251.111 61.8679C251.479 61.5799 251.663 61.1879 251.663 60.6919C251.663 60.2279 251.495 59.8679 251.159 59.6119C250.839 59.3399 250.335 59.1639 249.647 59.0839L248.015 58.8439C246.511 58.6359 245.407 58.2359 244.703 57.6439C243.999 57.0519 243.647 56.1639 243.647 54.9799C243.647 53.7479 244.063 52.7959 244.895 52.1239C245.727 51.4359 246.951 51.0919 248.567 51.0919H249.479C250.951 51.0919 252.127 51.4199 253.007 52.0759C253.887 52.7319 254.359 53.6119 254.423 54.7159H251.423C251.375 54.3639 251.175 54.0759 250.823 53.8519C250.487 53.6279 250.039 53.5159 249.479 53.5159H248.567C247.879 53.5159 247.375 53.6439 247.055 53.8999C246.751 54.1399 246.599 54.4999 246.599 54.9799C246.599 55.4279 246.735 55.7639 247.007 55.9879C247.279 56.1959 247.719 56.3479 248.327 56.4439L250.031 56.6839C251.599 56.9079 252.751 57.3319 253.487 57.9559C254.239 58.5639 254.615 59.4679 254.615 60.6679C254.615 61.9479 254.175 62.9479 253.295 63.6679C252.431 64.3719 251.151 64.7239 249.455 64.7239H248.399ZM263.294 64.7239C262.174 64.7239 261.198 64.5159 260.366 64.0999C259.55 63.6679 258.91 63.0679 258.446 62.2999C257.998 61.5159 257.774 60.5959 257.774 59.5399V56.2759C257.774 55.2199 257.998 54.3079 258.446 53.5399C258.91 52.7559 259.55 52.1559 260.366 51.7399C261.198 51.3079 262.174 51.0919 263.294 51.0919C264.43 51.0919 265.406 51.3079 266.222 51.7399C267.038 52.1559 267.67 52.7559 268.118 53.5399C268.582 54.3079 268.814 55.2119 268.814 56.2519V59.5399C268.814 60.5959 268.582 61.5159 268.118 62.2999C267.67 63.0679 267.038 63.6679 266.222 64.0999C265.406 64.5159 264.43 64.7239 263.294 64.7239ZM263.294 62.1079C264.094 62.1079 264.71 61.8919 265.142 61.4599C265.59 61.0119 265.814 60.3719 265.814 59.5399V56.2759C265.814 55.4279 265.59 54.7879 265.142 54.3559C264.71 53.9239 264.094 53.7079 263.294 53.7079C262.51 53.7079 261.894 53.9239 261.446 54.3559C260.998 54.7879 260.774 55.4279 260.774 56.2759V59.5399C260.774 60.3719 260.998 61.0119 261.446 61.4599C261.894 61.8919 262.51 62.1079 263.294 62.1079ZM277.756 64.7479C276.636 64.7479 275.652 64.5399 274.804 64.1239C273.972 63.6919 273.324 63.0919 272.86 62.3239C272.396 61.5399 272.164 60.6199 272.164 59.5639V56.2519C272.164 55.1799 272.396 54.2599 272.86 53.4919C273.324 52.7239 273.972 52.1319 274.804 51.7159C275.652 51.2839 276.636 51.0679 277.756 51.0679C279.42 51.0679 280.748 51.4999 281.74 52.3639C282.732 53.2119 283.252 54.3719 283.3 55.8439H280.3C280.252 55.1559 280.004 54.6279 279.556 54.2599C279.124 53.8759 278.524 53.6839 277.756 53.6839C276.956 53.6839 276.324 53.9079 275.86 54.3559C275.396 54.7879 275.164 55.4119 275.164 56.2279V59.5639C275.164 60.3799 275.396 61.0119 275.86 61.4599C276.324 61.9079 276.956 62.1319 277.756 62.1319C278.524 62.1319 279.124 61.9479 279.556 61.5799C280.004 61.1959 280.252 60.6599 280.3 59.9719H283.3C283.252 61.4439 282.732 62.6119 281.74 63.4759C280.748 64.3239 279.42 64.7479 277.756 64.7479ZM286.699 64.5079V61.7719H291.307V54.0199H287.299V51.3079H294.187V61.7719H298.267V64.5079H286.699ZM292.507 49.0999C291.899 49.0999 291.419 48.9479 291.067 48.6439C290.715 48.3239 290.539 47.8999 290.539 47.3719C290.539 46.8439 290.715 46.4279 291.067 46.1239C291.419 45.8039 291.899 45.6439 292.507 45.6439C293.115 45.6439 293.595 45.8039 293.947 46.1239C294.299 46.4279 294.475 46.8439 294.475 47.3719C294.475 47.8999 294.299 48.3239 293.947 48.6439C293.595 48.9479 293.115 49.0999 292.507 49.0999ZM305.002 64.7479C303.642 64.7479 302.57 64.3879 301.786 63.6679C301.002 62.9479 300.61 61.9799 300.61 60.7639C300.61 59.4679 301.042 58.4679 301.906 57.7639C302.77 57.0599 303.994 56.7079 305.578 56.7079H308.866V55.5799C308.866 54.9399 308.658 54.4439 308.242 54.0919C307.826 53.7239 307.258 53.5399 306.538 53.5399C305.882 53.5399 305.338 53.6839 304.906 53.9719C304.474 54.2599 304.218 54.6519 304.138 55.1479H301.21C301.354 53.8999 301.914 52.9079 302.89 52.1719C303.866 51.4359 305.114 51.0679 306.634 51.0679C308.25 51.0679 309.522 51.4759 310.45 52.2919C311.394 53.0919 311.866 54.1799 311.866 55.5559V64.5079H308.962V62.2039H308.482L308.962 61.5559C308.962 62.5319 308.602 63.3079 307.882 63.8839C307.162 64.4599 306.202 64.7479 305.002 64.7479ZM305.986 62.4919C306.834 62.4919 307.522 62.2759 308.05 61.8439C308.594 61.4119 308.866 60.8519 308.866 60.1639V58.5559H305.626C305.018 58.5559 304.53 58.7319 304.162 59.0839C303.794 59.4359 303.61 59.8999 303.61 60.4759C303.61 61.0999 303.818 61.5959 304.234 61.9639C304.666 62.3159 305.25 62.4919 305.986 62.4919ZM322.872 64.5079C322.008 64.5079 321.248 64.3319 320.592 63.9799C319.952 63.6279 319.448 63.1319 319.08 62.4919C318.712 61.8359 318.528 61.0839 318.528 60.2359V49.6999H314.304V46.9879H321.528V60.2359C321.528 60.7159 321.664 61.0999 321.936 61.3879C322.224 61.6599 322.608 61.7959 323.088 61.7959H327.072V64.5079H322.872ZM329.871 64.5079V61.7719H334.479V54.0199H330.471V51.3079H337.359V61.7719H341.439V64.5079H329.871ZM335.679 49.0999C335.071 49.0999 334.591 48.9479 334.239 48.6439C333.887 48.3239 333.711 47.8999 333.711 47.3719C333.711 46.8439 333.887 46.4279 334.239 46.1239C334.591 45.8039 335.071 45.6439 335.679 45.6439C336.287 45.6439 336.767 45.8039 337.119 46.1239C337.471 46.4279 337.647 46.8439 337.647 47.3719C337.647 47.8999 337.471 48.3239 337.119 48.6439C336.767 48.9479 336.287 49.0999 335.679 49.0999ZM344.31 64.5079V61.7959L351.198 53.9479H344.526V51.3079H354.702V54.0199L347.742 61.8679H354.966V64.5079H344.31ZM364.052 64.7479C362.932 64.7479 361.956 64.5319 361.124 64.0999C360.292 63.6679 359.644 63.0679 359.18 62.2999C358.732 61.5159 358.508 60.6039 358.508 59.5639V56.2519C358.508 55.2119 358.732 54.3079 359.18 53.5399C359.644 52.7559 360.292 52.1479 361.124 51.7159C361.956 51.2839 362.932 51.0679 364.052 51.0679C365.156 51.0679 366.116 51.2839 366.932 51.7159C367.764 52.1479 368.404 52.7559 368.852 53.5399C369.316 54.3079 369.548 55.2119 369.548 56.2519V58.6279H361.412V59.5639C361.412 60.4919 361.636 61.1959 362.084 61.6759C362.532 62.1399 363.196 62.3719 364.076 62.3719C364.748 62.3719 365.292 62.2599 365.708 62.0359C366.124 61.7959 366.388 61.4519 366.5 61.0039H369.452C369.228 62.1399 368.62 63.0519 367.628 63.7399C366.652 64.4119 365.46 64.7479 364.052 64.7479ZM366.644 56.9479V56.2279C366.644 55.3159 366.428 54.6199 365.996 54.1399C365.564 53.6439 364.916 53.3959 364.052 53.3959C363.188 53.3959 362.532 53.6439 362.084 54.1399C361.636 54.6359 361.412 55.3399 361.412 56.2519V56.7559L366.86 56.7079L366.644 56.9479ZM377.915 64.7239C376.907 64.7239 376.027 64.5639 375.275 64.2439C374.523 63.9239 373.931 63.4839 373.499 62.9239C373.083 62.3479 372.859 61.6759 372.827 60.9079H375.827C375.859 61.3239 376.059 61.6599 376.427 61.9159C376.811 62.1719 377.307 62.2999 377.915 62.2999H378.971C379.707 62.2999 380.259 62.1559 380.627 61.8679C380.995 61.5799 381.179 61.1879 381.179 60.6919C381.179 60.2279 381.011 59.8679 380.675 59.6119C380.355 59.3399 379.851 59.1639 379.163 59.0839L377.531 58.8439C376.027 58.6359 374.923 58.2359 374.219 57.6439C373.515 57.0519 373.163 56.1639 373.163 54.9799C373.163 53.7479 373.579 52.7959 374.411 52.1239C375.243 51.4359 376.467 51.0919 378.083 51.0919H378.995C380.467 51.0919 381.643 51.4199 382.523 52.0759C383.403 52.7319 383.875 53.6119 383.939 54.7159H380.939C380.891 54.3639 380.691 54.0759 380.339 53.8519C380.003 53.6279 379.555 53.5159 378.995 53.5159H378.083C377.395 53.5159 376.891 53.6439 376.571 53.8999C376.267 54.1399 376.115 54.4999 376.115 54.9799C376.115 55.4279 376.251 55.7639 376.523 55.9879C376.795 56.1959 377.235 56.3479 377.843 56.4439L379.547 56.6839C381.115 56.9079 382.267 57.3319 383.003 57.9559C383.755 58.5639 384.131 59.4679 384.131 60.6679C384.131 61.9479 383.691 62.9479 382.811 63.6679C381.947 64.3719 380.667 64.7239 378.971 64.7239H377.915ZM401.248 64.5079V51.3079H403.696V53.0839H404.2L403.792 53.5159C403.792 52.7799 404 52.1879 404.416 51.7399C404.832 51.2919 405.368 51.0679 406.024 51.0679C406.728 51.0679 407.272 51.3559 407.656 51.9319C408.056 52.5079 408.256 53.2839 408.256 54.2599L407.728 53.0839H408.544L408.232 53.5159C408.232 52.7799 408.44 52.1879 408.856 51.7399C409.272 51.2919 409.824 51.0679 410.512 51.0679C411.328 51.0679 411.976 51.3719 412.456 51.9799C412.936 52.5879 413.176 53.4119 413.176 54.4519V64.5079H410.536V54.5719C410.536 54.1399 410.44 53.8039 410.248 53.5639C410.056 53.3079 409.776 53.1799 409.408 53.1799C409.056 53.1799 408.776 53.2999 408.568 53.5399C408.376 53.7799 408.28 54.1239 408.28 54.5719V64.5079H406.12V54.5719C406.12 54.1239 406.024 53.7799 405.832 53.5399C405.64 53.2999 405.36 53.1799 404.992 53.1799C404.624 53.1799 404.344 53.2999 404.152 53.5399C403.976 53.7799 403.888 54.1239 403.888 54.5719V64.5079H401.248ZM421.591 64.7239C420.471 64.7239 419.495 64.5159 418.663 64.0999C417.847 63.6679 417.207 63.0679 416.743 62.2999C416.295 61.5159 416.071 60.5959 416.071 59.5399V56.2759C416.071 55.2199 416.295 54.3079 416.743 53.5399C417.207 52.7559 417.847 52.1559 418.663 51.7399C419.495 51.3079 420.471 51.0919 421.591 51.0919C422.727 51.0919 423.703 51.3079 424.519 51.7399C425.335 52.1559 425.967 52.7559 426.415 53.5399C426.879 54.3079 427.111 55.2119 427.111 56.2519V59.5399C427.111 60.5959 426.879 61.5159 426.415 62.2999C425.967 63.0679 425.335 63.6679 424.519 64.0999C423.703 64.5159 422.727 64.7239 421.591 64.7239ZM421.591 62.1079C422.391 62.1079 423.007 61.8919 423.439 61.4599C423.887 61.0119 424.111 60.3719 424.111 59.5399V56.2759C424.111 55.4279 423.887 54.7879 423.439 54.3559C423.007 53.9239 422.391 53.7079 421.591 53.7079C420.807 53.7079 420.191 53.9239 419.743 54.3559C419.295 54.7879 419.071 55.4279 419.071 56.2759V59.5399C419.071 60.3719 419.295 61.0119 419.743 61.4599C420.191 61.8919 420.807 62.1079 421.591 62.1079ZM431.037 64.5079V51.3079H433.869V53.8279H434.613L433.725 55.3639C433.725 53.9399 434.045 52.8679 434.685 52.1479C435.325 51.4279 436.269 51.0679 437.517 51.0679C438.941 51.0679 440.061 51.5079 440.877 52.3879C441.693 53.2679 442.101 54.4839 442.101 56.0359V56.9959H438.957V56.2519C438.957 55.4039 438.733 54.7479 438.285 54.2839C437.853 53.8199 437.253 53.5879 436.485 53.5879C435.701 53.5879 435.093 53.8199 434.661 54.2839C434.245 54.7479 434.037 55.4039 434.037 56.2519V64.5079H431.037ZM450.396 64.7479C449.276 64.7479 448.3 64.5319 447.468 64.0999C446.636 63.6679 445.988 63.0679 445.524 62.2999C445.076 61.5159 444.852 60.6039 444.852 59.5639V56.2519C444.852 55.2119 445.076 54.3079 445.524 53.5399C445.988 52.7559 446.636 52.1479 447.468 51.7159C448.3 51.2839 449.276 51.0679 450.396 51.0679C451.5 51.0679 452.46 51.2839 453.276 51.7159C454.108 52.1479 454.748 52.7559 455.196 53.5399C455.66 54.3079 455.892 55.2119 455.892 56.2519V58.6279H447.756V59.5639C447.756 60.4919 447.98 61.1959 448.428 61.6759C448.876 62.1399 449.54 62.3719 450.42 62.3719C451.092 62.3719 451.636 62.2599 452.052 62.0359C452.468 61.7959 452.732 61.4519 452.844 61.0039H455.796C455.572 62.1399 454.964 63.0519 453.972 63.7399C452.996 64.4119 451.804 64.7479 450.396 64.7479ZM452.988 56.9479V56.2279C452.988 55.3159 452.772 54.6199 452.34 54.1399C451.908 53.6439 451.26 53.3959 450.396 53.3959C449.532 53.3959 448.876 53.6439 448.428 54.1399C447.98 54.6359 447.756 55.3399 447.756 56.2519V56.7559L453.204 56.7079L452.988 56.9479ZM478.025 64.7479C476.713 64.7479 475.649 64.2919 474.833 63.3799C474.033 62.4679 473.633 61.2439 473.633 59.7079V56.1319C473.633 54.5799 474.033 53.3479 474.833 52.4359C475.633 51.5239 476.697 51.0679 478.025 51.0679C479.113 51.0679 479.977 51.3799 480.617 52.0039C481.257 52.6119 481.577 53.4519 481.577 54.5239L480.905 53.8279H481.601L481.505 50.6839V46.9879H484.505V64.5079H481.577V61.9879H480.905L481.577 61.2919C481.577 62.3639 481.257 63.2119 480.617 63.8359C479.977 64.4439 479.113 64.7479 478.025 64.7479ZM479.081 62.1559C479.849 62.1559 480.441 61.9319 480.857 61.4839C481.289 61.0199 481.505 60.3799 481.505 59.5639V56.2519C481.505 55.4359 481.289 54.8039 480.857 54.3559C480.441 53.8919 479.849 53.6599 479.081 53.6599C478.313 53.6599 477.713 53.8839 477.281 54.3319C476.849 54.7799 476.633 55.4199 476.633 56.2519V59.5639C476.633 60.3959 476.849 61.0359 477.281 61.4839C477.713 61.9319 478.313 62.1559 479.081 62.1559ZM493.544 64.7479C491.864 64.7479 490.544 64.2839 489.584 63.3559C488.624 62.4119 488.144 61.1319 488.144 59.5159V51.3079H491.144V59.4919C491.144 60.3399 491.352 60.9959 491.768 61.4599C492.184 61.9079 492.776 62.1319 493.544 62.1319C494.296 62.1319 494.88 61.9079 495.296 61.4599C495.728 60.9959 495.944 60.3399 495.944 59.4919V51.3079H498.944V59.5159C498.944 61.1319 498.456 62.4119 497.48 63.3559C496.504 64.2839 495.192 64.7479 493.544 64.7479ZM502.99 64.5079V51.3079H505.822V53.8279H506.566L505.678 55.3639C505.678 53.9399 505.998 52.8679 506.638 52.1479C507.278 51.4279 508.222 51.0679 509.47 51.0679C510.894 51.0679 512.014 51.5079 512.83 52.3879C513.646 53.2679 514.054 54.4839 514.054 56.0359V56.9959H510.91V56.2519C510.91 55.4039 510.686 54.7479 510.238 54.2839C509.806 53.8199 509.206 53.5879 508.438 53.5879C507.654 53.5879 507.046 53.8199 506.614 54.2839C506.198 54.7479 505.99 55.4039 505.99 56.2519V64.5079H502.99ZM516.949 64.5079V61.7719H521.557V54.0199H517.549V51.3079H524.437V61.7719H528.517V64.5079H516.949ZM522.757 49.0999C522.149 49.0999 521.669 48.9479 521.317 48.6439C520.965 48.3239 520.789 47.8999 520.789 47.3719C520.789 46.8439 520.965 46.4279 521.317 46.1239C521.669 45.8039 522.149 45.6439 522.757 45.6439C523.365 45.6439 523.845 45.8039 524.197 46.1239C524.549 46.4279 524.725 46.8439 524.725 47.3719C524.725 47.8999 524.549 48.3239 524.197 48.6439C523.845 48.9479 523.365 49.0999 522.757 49.0999ZM531.364 64.5079V51.3079H534.292V53.8279H535.108L534.292 54.5239C534.292 53.4359 534.604 52.5879 535.228 51.9799C535.868 51.3719 536.74 51.0679 537.844 51.0679C539.14 51.0679 540.172 51.4999 540.94 52.3639C541.724 53.2279 542.116 54.3879 542.116 55.8439V64.5079H539.116V56.1559C539.116 55.3559 538.908 54.7399 538.492 54.3079C538.076 53.8759 537.492 53.6599 536.74 53.6599C536.004 53.6599 535.42 53.8839 534.988 54.3319C534.572 54.7799 534.364 55.4199 534.364 56.2519V64.5079H531.364ZM547.554 68.8279V66.3319H551.466C552.138 66.3319 552.642 66.1639 552.978 65.8279C553.314 65.5079 553.482 65.0439 553.482 64.4359V63.4519L553.53 60.9799H552.882L553.53 60.3319C553.53 61.4039 553.21 62.2439 552.57 62.8519C551.946 63.4439 551.098 63.7399 550.026 63.7399C548.682 63.7399 547.61 63.2839 546.81 62.3719C546.026 61.4599 545.634 60.2279 545.634 58.6759V56.1079C545.634 54.5719 546.026 53.3479 546.81 52.4359C547.61 51.5239 548.682 51.0679 550.026 51.0679C551.098 51.0679 551.946 51.3719 552.57 51.9799C553.21 52.5719 553.53 53.4039 553.53 54.4759L552.882 53.8279H553.53L553.458 51.3079H556.458V64.5079C556.458 65.8359 556.018 66.8839 555.138 67.6519C554.258 68.4359 553.05 68.8279 551.514 68.8279H547.554ZM551.034 61.1479C551.802 61.1479 552.394 60.9239 552.81 60.4759C553.242 60.0119 553.458 59.3719 553.458 58.5559V56.2519C553.458 55.4359 553.242 54.8039 552.81 54.3559C552.394 53.8919 551.802 53.6599 551.034 53.6599C550.266 53.6599 549.674 53.8839 549.258 54.3319C548.842 54.7799 548.634 55.4199 548.634 56.2519V58.5559C548.634 59.3879 548.842 60.0279 549.258 60.4759C549.674 60.9239 550.266 61.1479 551.034 61.1479ZM581.328 64.5079C580.064 64.5079 579.072 64.1559 578.352 63.4519C577.648 62.7479 577.296 61.7799 577.296 60.5479V54.0199H573.72V51.3079H577.296V47.5879H580.32V51.3079H585.384V54.0199H580.32V60.5479C580.32 61.3799 580.728 61.7959 581.544 61.7959H585.144V64.5079H581.328ZM588.926 64.5079V46.9879H591.926V51.3079L591.854 53.8279H592.67L591.854 54.5239C591.854 53.4359 592.166 52.5879 592.79 51.9799C593.43 51.3719 594.302 51.0679 595.406 51.0679C596.702 51.0679 597.734 51.4999 598.502 52.3639C599.286 53.2279 599.678 54.3879 599.678 55.8439V64.5079H596.678V56.1559C596.678 55.3559 596.47 54.7399 596.054 54.3079C595.638 53.8759 595.054 53.6599 594.302 53.6599C593.566 53.6599 592.982 53.8839 592.55 54.3319C592.134 54.7799 591.926 55.4199 591.926 56.2519V64.5079H588.926ZM608.693 64.7479C607.573 64.7479 606.597 64.5319 605.765 64.0999C604.933 63.6679 604.285 63.0679 603.821 62.2999C603.373 61.5159 603.149 60.6039 603.149 59.5639V56.2519C603.149 55.2119 603.373 54.3079 603.821 53.5399C604.285 52.7559 604.933 52.1479 605.765 51.7159C606.597 51.2839 607.573 51.0679 608.693 51.0679C609.797 51.0679 610.757 51.2839 611.573 51.7159C612.405 52.1479 613.045 52.7559 613.493 53.5399C613.957 54.3079 614.189 55.2119 614.189 56.2519V58.6279H606.053V59.5639C606.053 60.4919 606.277 61.1959 606.725 61.6759C607.173 62.1399 607.837 62.3719 608.717 62.3719C609.389 62.3719 609.933 62.2599 610.349 62.0359C610.765 61.7959 611.029 61.4519 611.141 61.0039H614.093C613.869 62.1399 613.261 63.0519 612.269 63.7399C611.293 64.4119 610.101 64.7479 608.693 64.7479ZM611.285 56.9479V56.2279C611.285 55.3159 611.069 54.6199 610.637 54.1399C610.205 53.6439 609.557 53.3959 608.693 53.3959C607.829 53.3959 607.173 53.6439 606.725 54.1399C606.277 54.6359 606.053 55.3399 606.053 56.2519V56.7559L611.501 56.7079L611.285 56.9479ZM635.17 64.5079V55.4839H631.546V52.7719H635.17V50.7799C635.17 49.6279 635.554 48.7079 636.322 48.0199C637.09 47.3319 638.106 46.9879 639.37 46.9879H643.234V49.6279H639.442C639.058 49.6279 638.746 49.7399 638.506 49.9639C638.282 50.1719 638.17 50.4599 638.17 50.8279V52.7719H643.234V55.4839H638.17V64.5079H635.17ZM650.377 64.7479C649.017 64.7479 647.945 64.3879 647.161 63.6679C646.377 62.9479 645.985 61.9799 645.985 60.7639C645.985 59.4679 646.417 58.4679 647.281 57.7639C648.145 57.0599 649.369 56.7079 650.953 56.7079H654.241V55.5799C654.241 54.9399 654.033 54.4439 653.617 54.0919C653.201 53.7239 652.633 53.5399 651.913 53.5399C651.257 53.5399 650.713 53.6839 650.281 53.9719C649.849 54.2599 649.593 54.6519 649.513 55.1479H646.585C646.729 53.8999 647.289 52.9079 648.265 52.1719C649.241 51.4359 650.489 51.0679 652.009 51.0679C653.625 51.0679 654.897 51.4759 655.825 52.2919C656.769 53.0919 657.241 54.1799 657.241 55.5559V64.5079H654.337V62.2039H653.857L654.337 61.5559C654.337 62.5319 653.977 63.3079 653.257 63.8839C652.537 64.4599 651.577 64.7479 650.377 64.7479ZM651.361 62.4919C652.209 62.4919 652.897 62.2759 653.425 61.8439C653.969 61.4119 654.241 60.8519 654.241 60.1639V58.5559H651.001C650.393 58.5559 649.905 58.7319 649.537 59.0839C649.169 59.4359 648.985 59.8999 648.985 60.4759C648.985 61.0999 649.193 61.5959 649.609 61.9639C650.041 62.3159 650.625 62.4919 651.361 62.4919ZM668.247 64.5079C667.383 64.5079 666.623 64.3319 665.967 63.9799C665.327 63.6279 664.823 63.1319 664.455 62.4919C664.087 61.8359 663.903 61.0839 663.903 60.2359V49.6999H659.679V46.9879H666.903V60.2359C666.903 60.7159 667.039 61.0999 667.311 61.3879C667.599 61.6599 667.983 61.7959 668.463 61.7959H672.447V64.5079H668.247ZM682.638 64.5079C681.774 64.5079 681.014 64.3319 680.358 63.9799C679.718 63.6279 679.214 63.1319 678.846 62.4919C678.478 61.8359 678.294 61.0839 678.294 60.2359V49.6999H674.07V46.9879H681.294V60.2359C681.294 60.7159 681.43 61.0999 681.702 61.3879C681.99 61.6599 682.374 61.7959 682.854 61.7959H686.838V64.5079H682.638ZM695.013 64.7479C694.325 64.7479 693.773 64.5479 693.357 64.1479C692.957 63.7479 692.757 63.2039 692.757 62.5159C692.757 61.8279 692.957 61.2839 693.357 60.8839C693.773 60.4679 694.325 60.2599 695.013 60.2599C695.701 60.2599 696.245 60.4679 696.645 60.8839C697.061 61.2839 697.269 61.8279 697.269 62.5159C697.269 63.2039 697.061 63.7479 696.645 64.1479C696.245 64.5479 695.701 64.7479 695.013 64.7479ZM709.619 53.3479L711.539 45.8839H715.355L712.235 53.3479H709.619ZM703.691 53.3479L705.611 45.8839H709.427L706.307 53.3479H703.691Z" fill="#5392F9"/>
<path d="M392.479 112.323C392.479 112.323 392.479 100.147 392.479 83.5079L407.309 83.5079C407.309 105.062 407.521 112.323 407.521 112.323L420.556 112.323L400.659 134.5L379.444 112.323L392.479 112.323Z" fill="#5392F9" stroke="#DCEAFC" stroke-width="4" stroke-linejoin="round"/>
<path d="M601.094 160.188L591.938 150.938L585.875 166.625L601.094 160.188Z" fill="#4071F7"/>
<path d="M197 222L206.688 231.531L212.688 215.844L197 222Z" fill="#4071F7"/>
<rect x="203.125" y="156.5" width="403.75" height="81" rx="16" fill="#4071F7"/>
<rect x="193.125" y="146.5" width="403.75" height="81" rx="16" fill="#5392F9"/>
<path d="M215.279 187.68V183.2H229.359V187.68H215.279ZM215.279 195.68V191.2H229.359V195.68H215.279ZM232.706 200L238.434 176.64H244.514L250.306 200H245.41L244.29 194.72H238.722L237.602 200H232.706ZM239.522 190.88H243.458L242.338 185.248C242.189 184.437 242.029 183.637 241.858 182.848C241.709 182.037 241.592 181.408 241.506 180.96C241.421 181.408 241.304 182.027 241.154 182.816C241.026 183.605 240.877 184.405 240.706 185.216L239.522 190.88ZM253.11 200V176.64H260.694C262.315 176.64 263.723 176.949 264.918 177.568C266.134 178.187 267.072 179.061 267.734 180.192C268.416 181.301 268.758 182.613 268.758 184.128V192.48C268.758 193.973 268.416 195.285 267.734 196.416C267.072 197.547 266.134 198.432 264.918 199.072C263.723 199.691 262.315 200 260.694 200H253.11ZM257.91 195.52H260.694C261.675 195.52 262.464 195.243 263.062 194.688C263.659 194.133 263.958 193.397 263.958 192.48V184.128C263.958 183.232 263.659 182.507 263.062 181.952C262.464 181.397 261.675 181.12 260.694 181.12H257.91V195.52ZM272.361 200V176.64H279.881C281.545 176.64 282.985 176.928 284.201 177.504C285.417 178.08 286.356 178.901 287.017 179.968C287.7 181.035 288.041 182.293 288.041 183.744C288.041 185.259 287.668 186.613 286.921 187.808C286.196 189.003 285.204 189.867 283.945 190.4L288.361 200H283.145L279.369 191.168H277.129V200H272.361ZM277.129 187.008H279.881C280.948 187.008 281.769 186.741 282.345 186.208C282.943 185.675 283.241 184.928 283.241 183.968C283.241 182.965 282.943 182.187 282.345 181.632C281.769 181.077 280.948 180.8 279.881 180.8H277.129V187.008ZM291.389 205.28V200.8H306.749V205.28H291.389ZM311.216 200V176.64H325.616V180.736H315.92V185.984H324.496V190.08H315.92V195.904H325.616V200H311.216ZM328.484 200L334.756 187.936L328.9 176.64H334.18L336.612 181.76C336.846 182.229 337.038 182.656 337.188 183.04C337.358 183.424 337.465 183.701 337.508 183.872C337.55 183.701 337.646 183.424 337.796 183.04C337.945 182.656 338.126 182.229 338.34 181.76L340.836 176.64H345.988L340.132 187.936L346.404 200H341.124L338.308 194.24C338.094 193.771 337.902 193.333 337.732 192.928C337.561 192.523 337.433 192.213 337.348 192C337.284 192.213 337.177 192.523 337.028 192.928C336.878 193.333 336.686 193.771 336.452 194.24L333.636 200H328.484ZM354.231 200V181.12H348.311V176.64H364.951V181.12H359.031V200H354.231ZM368.299 200V176.64H375.819C377.483 176.64 378.923 176.928 380.139 177.504C381.355 178.08 382.293 178.901 382.955 179.968C383.637 181.035 383.979 182.293 383.979 183.744C383.979 185.259 383.605 186.613 382.859 187.808C382.133 189.003 381.141 189.867 379.883 190.4L384.299 200H379.083L375.307 191.168H373.067V200H368.299ZM373.067 187.008H375.819C376.885 187.008 377.707 186.741 378.283 186.208C378.88 185.675 379.179 184.928 379.179 183.968C379.179 182.965 378.88 182.187 378.283 181.632C377.707 181.077 376.885 180.8 375.819 180.8H373.067V187.008ZM386.206 200L391.934 176.64H398.014L403.806 200H398.91L397.79 194.72H392.222L391.102 200H386.206ZM393.022 190.88H396.958L395.838 185.248C395.689 184.437 395.529 183.637 395.358 182.848C395.209 182.037 395.092 181.408 395.006 180.96C394.921 181.408 394.804 182.027 394.654 182.816C394.526 183.605 394.377 184.405 394.206 185.216L393.022 190.88ZM414.322 200.32C412.764 200.32 411.399 200.032 410.226 199.456C409.052 198.859 408.135 198.037 407.474 196.992C406.834 195.925 406.514 194.688 406.514 193.28V183.36C406.514 181.931 406.834 180.693 407.474 179.648C408.135 178.603 409.052 177.792 410.226 177.216C411.399 176.619 412.764 176.32 414.322 176.32C415.9 176.32 417.266 176.619 418.418 177.216C419.591 177.792 420.498 178.603 421.138 179.648C421.799 180.693 422.13 181.931 422.13 183.36H417.33C417.33 182.421 417.063 181.707 416.53 181.216C416.018 180.725 415.282 180.48 414.322 180.48C413.362 180.48 412.615 180.725 412.082 181.216C411.57 181.707 411.314 182.421 411.314 183.36V193.28C411.314 194.197 411.57 194.912 412.082 195.424C412.615 195.915 413.362 196.16 414.322 196.16C415.282 196.16 416.018 195.915 416.53 195.424C417.063 194.912 417.33 194.197 417.33 193.28H422.13C422.13 194.688 421.799 195.925 421.138 196.992C420.498 198.037 419.591 198.859 418.418 199.456C417.266 200.032 415.9 200.32 414.322 200.32ZM430.981 200V181.12H425.061V176.64H441.701V181.12H435.781V200H430.981ZM444.889 205.28V200.8H460.249V205.28H444.889ZM471.756 200.32C469.388 200.32 467.511 199.68 466.124 198.4C464.759 197.12 464.076 195.371 464.076 193.152V176.64H468.876V193.12C468.876 194.101 469.122 194.859 469.612 195.392C470.124 195.904 470.839 196.16 471.756 196.16C472.652 196.16 473.356 195.904 473.868 195.392C474.38 194.859 474.636 194.101 474.636 193.12V176.64H479.436V193.152C479.436 195.349 478.743 197.099 477.356 198.4C475.991 199.68 474.124 200.32 471.756 200.32ZM490.944 200.32C489.301 200.32 487.872 200.043 486.656 199.488C485.44 198.933 484.501 198.155 483.84 197.152C483.178 196.149 482.848 194.965 482.848 193.6H487.648C487.648 194.389 487.946 195.019 488.544 195.488C489.162 195.936 489.994 196.16 491.04 196.16C492.042 196.16 492.821 195.936 493.376 195.488C493.952 195.04 494.24 194.421 494.24 193.632C494.24 192.949 494.026 192.363 493.6 191.872C493.173 191.381 492.576 191.051 491.808 190.88L489.44 190.336C487.456 189.867 485.909 189.003 484.8 187.744C483.712 186.464 483.168 184.907 483.168 183.072C483.168 181.707 483.477 180.523 484.096 179.52C484.736 178.496 485.632 177.707 486.784 177.152C487.936 176.597 489.301 176.32 490.88 176.32C493.269 176.32 495.157 176.917 496.544 178.112C497.952 179.285 498.656 180.875 498.656 182.88H493.856C493.856 182.133 493.589 181.547 493.056 181.12C492.544 180.693 491.797 180.48 490.816 180.48C489.898 180.48 489.194 180.693 488.704 181.12C488.213 181.525 487.968 182.112 487.968 182.88C487.968 183.563 488.16 184.149 488.544 184.64C488.949 185.109 489.514 185.429 490.24 185.6L492.736 186.176C494.805 186.645 496.373 187.499 497.44 188.736C498.506 189.952 499.04 191.509 499.04 193.408C499.04 194.773 498.698 195.979 498.016 197.024C497.354 198.069 496.416 198.88 495.2 199.456C494.005 200.032 492.586 200.32 490.944 200.32ZM516.051 203.84C512.659 202.923 510.046 201.397 508.211 199.264C506.398 197.109 505.491 194.485 505.491 191.392V185.6C505.491 183.573 505.907 181.728 506.739 180.064C507.593 178.4 508.809 176.981 510.387 175.808C511.966 174.613 513.854 173.717 516.051 173.12V177.92C514.857 178.219 513.822 178.72 512.947 179.424C512.094 180.128 511.433 181.003 510.963 182.048C510.515 183.093 510.291 184.277 510.291 185.6V191.392C510.291 192.672 510.515 193.835 510.963 194.88C511.433 195.904 512.094 196.768 512.947 197.472C513.822 198.176 514.857 198.677 516.051 198.976V203.84ZM561.774 203.84V198.976C562.968 198.677 563.992 198.176 564.846 197.472C565.72 196.768 566.382 195.904 566.83 194.88C567.299 193.835 567.534 192.672 567.534 191.392V185.6C567.534 184.277 567.299 183.093 566.83 182.048C566.382 181.003 565.731 180.128 564.878 179.424C564.024 178.72 562.99 178.219 561.774 177.92V173.12C563.992 173.717 565.88 174.613 567.438 175.808C569.016 176.981 570.222 178.4 571.054 180.064C571.907 181.728 572.334 183.573 572.334 185.6V191.392C572.334 194.485 571.416 197.109 569.582 199.264C567.768 201.397 565.166 202.923 561.774 203.84Z" fill="#DCEAFC"/>
<circle cx="525.25" cy="188.75" r="3" fill="#DCEAFC"/>
<circle cx="539.25" cy="188.75" r="3" fill="#DCEAFC"/>
<circle cx="553.25" cy="188.75" r="3" fill="#DCEAFC"/>
<path d="M392.479 278.315C392.479 278.315 392.479 266.139 392.479 249.5L407.309 249.5C407.309 271.054 407.521 278.315 407.521 278.315L420.556 278.315L400.659 300.492L379.444 278.315L392.479 278.315Z" fill="#5392F9" stroke="#DCEAFC" stroke-width="4" stroke-linejoin="round"/>
<circle cx="310" cy="325.492" r="4" fill="#5392F9"/>
<path d="M327 332.492L328.74 321.492H331.1L330.76 323.592H331.38L330.44 324.872C330.627 323.685 331.033 322.792 331.66 322.192C332.3 321.592 333.14 321.292 334.18 321.292C335.367 321.292 336.24 321.659 336.8 322.392C337.36 323.125 337.54 324.139 337.34 325.432L337.2 326.232H334.58L334.7 325.612C334.807 324.905 334.707 324.359 334.4 323.972C334.107 323.585 333.64 323.392 333 323.392C332.347 323.392 331.807 323.585 331.38 323.972C330.967 324.359 330.707 324.905 330.6 325.612L329.5 332.492H327ZM343.072 332.692C342.139 332.692 341.359 332.519 340.732 332.172C340.106 331.812 339.659 331.312 339.392 330.672C339.126 330.019 339.059 329.252 339.192 328.372L339.632 325.612C339.779 324.732 340.086 323.972 340.552 323.332C341.032 322.679 341.639 322.179 342.372 321.832C343.119 321.472 343.959 321.292 344.892 321.292C345.839 321.292 346.619 321.472 347.232 321.832C347.859 322.179 348.306 322.679 348.572 323.332C348.852 323.972 348.919 324.725 348.772 325.592L348.332 328.372C348.199 329.252 347.892 330.019 347.412 330.672C346.932 331.312 346.326 331.812 345.592 332.172C344.859 332.519 344.019 332.692 343.072 332.692ZM343.432 330.512C344.099 330.512 344.639 330.332 345.052 329.972C345.466 329.599 345.726 329.065 345.832 328.372L346.272 325.612C346.379 324.919 346.286 324.392 345.992 324.032C345.699 323.659 345.212 323.472 344.532 323.472C343.879 323.472 343.346 323.659 342.932 324.032C342.519 324.392 342.252 324.919 342.132 325.612L341.692 328.372C341.586 329.065 341.679 329.599 341.972 329.972C342.279 330.332 342.766 330.512 343.432 330.512ZM356.004 332.692C355.098 332.692 354.418 332.439 353.964 331.932C353.524 331.412 353.371 330.705 353.504 329.812L353.984 330.392H353.424L353.084 332.492H350.644L352.964 317.892H355.464L354.964 320.972L354.464 323.592H355.044L354.404 324.172C354.538 323.279 354.911 322.579 355.524 322.072C356.151 321.552 356.918 321.292 357.824 321.292C358.931 321.292 359.751 321.672 360.284 322.432C360.818 323.192 360.984 324.219 360.784 325.512L360.304 328.492C360.171 329.345 359.904 330.092 359.504 330.732C359.104 331.359 358.604 331.845 358.004 332.192C357.404 332.525 356.738 332.692 356.004 332.692ZM355.464 330.532C356.104 330.532 356.631 330.345 357.044 329.972C357.458 329.599 357.718 329.065 357.824 328.372L358.264 325.612C358.371 324.919 358.278 324.385 357.984 324.012C357.691 323.639 357.224 323.452 356.584 323.452C355.958 323.452 355.438 323.645 355.024 324.032C354.611 324.405 354.344 324.932 354.224 325.612L353.784 328.372C353.678 329.052 353.771 329.585 354.064 329.972C354.371 330.345 354.838 330.532 355.464 330.532ZM362.577 332.492L362.937 330.212H366.777L367.817 323.752H364.457L364.817 321.492H370.537L369.177 330.212H372.577L372.217 332.492H362.577ZM369.497 319.652C368.99 319.652 368.61 319.525 368.357 319.272C368.103 319.005 368.01 318.652 368.077 318.212C368.157 317.772 368.363 317.425 368.697 317.172C369.03 316.905 369.45 316.772 369.957 316.772C370.45 316.772 370.823 316.905 371.077 317.172C371.343 317.425 371.437 317.772 371.357 318.212C371.29 318.652 371.09 319.005 370.757 319.272C370.423 319.525 370.003 319.652 369.497 319.652ZM374.629 332.492L376.369 321.492H378.809L378.469 323.592H379.149L378.389 324.172C378.535 323.265 378.909 322.559 379.509 322.052C380.122 321.545 380.889 321.292 381.809 321.292C382.889 321.292 383.695 321.652 384.229 322.372C384.762 323.092 384.929 324.059 384.729 325.272L383.589 332.492H381.089L382.189 325.532C382.295 324.865 382.202 324.352 381.909 323.992C381.615 323.632 381.162 323.452 380.549 323.452C379.922 323.452 379.402 323.639 378.989 324.012C378.589 324.385 378.329 324.919 378.209 325.612L377.129 332.492H374.629Z" fill="#5392F9"/>
<circle cx="310" cy="361.492" r="4" fill="#5392F9"/>
<path d="M330.62 368.692C329.353 368.692 328.387 368.399 327.72 367.812C327.053 367.225 326.773 366.452 326.88 365.492H329.38C329.353 365.839 329.48 366.119 329.76 366.332C330.053 366.545 330.453 366.652 330.96 366.652H331.82C332.433 366.652 332.913 366.532 333.26 366.292C333.62 366.052 333.827 365.725 333.88 365.312C333.947 364.925 333.86 364.619 333.62 364.392C333.393 364.152 333 363.992 332.44 363.912L331.12 363.712C329.893 363.539 329.02 363.219 328.5 362.752C327.993 362.272 327.813 361.539 327.96 360.552C328.12 359.525 328.593 358.725 329.38 358.152C330.167 357.579 331.233 357.292 332.58 357.292H333.34C334.567 357.292 335.5 357.572 336.14 358.132C336.78 358.679 337.053 359.412 336.96 360.332H334.46C334.473 360.039 334.353 359.799 334.1 359.612C333.847 359.425 333.48 359.332 333 359.332H332.24C331.667 359.332 331.233 359.439 330.94 359.652C330.647 359.852 330.467 360.152 330.4 360.552C330.347 360.925 330.413 361.212 330.6 361.412C330.787 361.612 331.133 361.752 331.64 361.832L333.02 362.032C334.3 362.205 335.213 362.545 335.76 363.052C336.307 363.545 336.5 364.292 336.34 365.292C336.167 366.359 335.667 367.192 334.84 367.792C334.027 368.392 332.913 368.692 331.5 368.692H330.62ZM343.072 368.692C342.139 368.692 341.359 368.519 340.732 368.172C340.106 367.812 339.659 367.312 339.392 366.672C339.126 366.019 339.059 365.252 339.192 364.372L339.632 361.612C339.779 360.732 340.086 359.972 340.552 359.332C341.032 358.679 341.639 358.179 342.372 357.832C343.119 357.472 343.959 357.292 344.892 357.292C345.839 357.292 346.619 357.472 347.232 357.832C347.859 358.179 348.306 358.679 348.572 359.332C348.852 359.972 348.919 360.725 348.772 361.592L348.332 364.372C348.199 365.252 347.892 366.019 347.412 366.672C346.932 367.312 346.326 367.812 345.592 368.172C344.859 368.519 344.019 368.692 343.072 368.692ZM343.432 366.512C344.099 366.512 344.639 366.332 345.052 365.972C345.466 365.599 345.726 365.065 345.832 364.372L346.272 361.612C346.379 360.919 346.286 360.392 345.992 360.032C345.699 359.659 345.212 359.472 344.532 359.472C343.879 359.472 343.346 359.659 342.932 360.032C342.519 360.392 342.252 360.919 342.132 361.612L341.692 364.372C341.586 365.065 341.679 365.599 341.972 365.972C342.279 366.332 342.766 366.512 343.432 366.512ZM355.124 368.692C354.191 368.692 353.404 368.519 352.764 368.172C352.124 367.812 351.664 367.312 351.384 366.672C351.118 366.019 351.051 365.252 351.184 364.372L351.624 361.612C351.771 360.719 352.084 359.952 352.564 359.312C353.044 358.672 353.658 358.179 354.404 357.832C355.164 357.472 356.011 357.292 356.944 357.292C358.331 357.292 359.378 357.652 360.084 358.372C360.804 359.079 361.091 360.045 360.944 361.272H358.444C358.484 360.699 358.344 360.259 358.024 359.952C357.704 359.632 357.231 359.472 356.604 359.472C355.924 359.472 355.371 359.659 354.944 360.032C354.518 360.392 354.251 360.912 354.144 361.592L353.684 364.372C353.578 365.052 353.678 365.579 353.984 365.952C354.304 366.325 354.804 366.512 355.484 366.512C356.111 366.512 356.631 366.359 357.044 366.052C357.471 365.732 357.751 365.285 357.884 364.712H360.404C360.151 365.939 359.551 366.912 358.604 367.632C357.671 368.339 356.511 368.692 355.124 368.692ZM362.577 368.492L362.937 366.212H366.777L367.817 359.752H364.457L364.817 357.492H370.537L369.177 366.212H372.577L372.217 368.492H362.577ZM369.497 355.652C368.99 355.652 368.61 355.525 368.357 355.272C368.103 355.005 368.01 354.652 368.077 354.212C368.157 353.772 368.363 353.425 368.697 353.172C369.03 352.905 369.45 352.772 369.957 352.772C370.45 352.772 370.823 352.905 371.077 353.172C371.343 353.425 371.437 353.772 371.357 354.212C371.29 354.652 371.09 355.005 370.757 355.272C370.423 355.525 370.003 355.652 369.497 355.652ZM378.129 368.692C377.022 368.692 376.195 368.312 375.649 367.552C375.115 366.792 374.955 365.772 375.169 364.492L375.629 361.512C375.775 360.645 376.049 359.899 376.449 359.272C376.849 358.645 377.349 358.159 377.949 357.812C378.549 357.465 379.215 357.292 379.949 357.292C380.855 357.292 381.529 357.552 381.969 358.072C382.422 358.579 382.575 359.279 382.429 360.172L381.969 359.592H382.529L382.809 357.492H385.309L383.569 368.492H381.109L381.449 366.392H380.909L381.549 365.812C381.402 366.705 381.022 367.412 380.409 367.932C379.795 368.439 379.035 368.692 378.129 368.692ZM379.369 366.532C379.995 366.532 380.515 366.345 380.929 365.972C381.342 365.585 381.602 365.052 381.709 364.372L382.149 361.612C382.269 360.932 382.175 360.405 381.869 360.032C381.562 359.645 381.095 359.452 380.469 359.452C379.829 359.452 379.302 359.639 378.889 360.012C378.489 360.385 378.235 360.919 378.129 361.612L377.689 364.372C377.569 365.065 377.655 365.599 377.949 365.972C378.242 366.345 378.715 366.532 379.369 366.532ZM392.681 368.492C391.588 368.492 390.761 368.165 390.201 367.512C389.654 366.859 389.468 365.999 389.641 364.932L391.021 356.152H387.661L388.021 353.892H393.881L392.141 364.932C392.074 365.332 392.134 365.652 392.321 365.892C392.521 366.119 392.814 366.232 393.201 366.232H396.601L396.261 368.492H392.681ZM398.553 368.492L398.913 366.212H402.753L403.793 359.752H400.433L400.793 357.492H406.513L405.153 366.212H408.553L408.193 368.492H398.553ZM405.473 355.652C404.966 355.652 404.586 355.525 404.333 355.272C404.08 355.005 403.986 354.652 404.053 354.212C404.133 353.772 404.34 353.425 404.673 353.172C405.006 352.905 405.426 352.772 405.933 352.772C406.426 352.772 406.8 352.905 407.053 353.172C407.32 353.425 407.413 353.772 407.333 354.212C407.266 354.652 407.066 355.005 406.733 355.272C406.4 355.525 405.98 355.652 405.473 355.652ZM410.625 368.492L410.985 366.232L417.685 359.692H412.205L412.545 357.492H421.025L420.665 359.752L413.925 366.292H419.845L419.505 368.492H410.625ZM427.038 368.692C426.104 368.692 425.324 368.512 424.698 368.152C424.071 367.792 423.618 367.292 423.338 366.652C423.071 365.999 423.004 365.239 423.138 364.372L423.578 361.612C423.724 360.745 424.038 359.992 424.518 359.352C424.998 358.699 425.604 358.192 426.338 357.832C427.084 357.472 427.924 357.292 428.858 357.292C429.778 357.292 430.551 357.472 431.178 357.832C431.804 358.192 432.251 358.699 432.518 359.352C432.798 359.992 432.864 360.745 432.718 361.612L432.398 363.592H425.678L425.538 364.372C425.431 365.145 425.524 365.732 425.818 366.132C426.124 366.519 426.644 366.712 427.378 366.712C427.938 366.712 428.398 366.619 428.758 366.432C429.131 366.232 429.391 365.945 429.538 365.572H432.018C431.791 366.199 431.431 366.745 430.938 367.212C430.458 367.679 429.884 368.045 429.218 368.312C428.551 368.565 427.824 368.692 427.038 368.692ZM430.218 362.192L430.318 361.592C430.438 360.832 430.351 360.252 430.058 359.852C429.764 359.439 429.258 359.232 428.538 359.232C427.818 359.232 427.238 359.439 426.798 359.852C426.371 360.265 426.098 360.852 425.978 361.612L425.918 362.032L430.438 361.992L430.218 362.192ZM438.55 368.692C437.283 368.692 436.316 368.399 435.65 367.812C434.983 367.225 434.703 366.452 434.81 365.492H437.31C437.283 365.839 437.41 366.119 437.69 366.332C437.983 366.545 438.383 366.652 438.89 366.652H439.75C440.363 366.652 440.843 366.532 441.19 366.292C441.55 366.052 441.756 365.725 441.81 365.312C441.876 364.925 441.79 364.619 441.55 364.392C441.323 364.152 440.93 363.992 440.37 363.912L439.05 363.712C437.823 363.539 436.95 363.219 436.43 362.752C435.923 362.272 435.743 361.539 435.89 360.552C436.05 359.525 436.523 358.725 437.31 358.152C438.096 357.579 439.163 357.292 440.51 357.292H441.27C442.496 357.292 443.43 357.572 444.07 358.132C444.71 358.679 444.983 359.412 444.89 360.332H442.39C442.403 360.039 442.283 359.799 442.03 359.612C441.776 359.425 441.41 359.332 440.93 359.332H440.17C439.596 359.332 439.163 359.439 438.87 359.652C438.576 359.852 438.396 360.152 438.33 360.552C438.276 360.925 438.343 361.212 438.53 361.412C438.716 361.612 439.063 361.752 439.57 361.832L440.95 362.032C442.23 362.205 443.143 362.545 443.69 363.052C444.236 363.545 444.43 364.292 444.27 365.292C444.096 366.359 443.596 367.192 442.77 367.792C441.956 368.392 440.843 368.692 439.43 368.692H438.55Z" fill="#5392F9"/>
<circle cx="310" cy="397.492" r="4" fill="#5392F9"/>
<path d="M332.32 404.492C331.267 404.492 330.493 404.199 330 403.612C329.507 403.026 329.34 402.219 329.5 401.192L330.36 395.752H327.38L327.72 393.492H330.7L331.18 390.492H333.7L333.22 393.492H337.44L337.08 395.752H332.86L332 401.192C331.88 401.886 332.16 402.232 332.84 402.232H335.84L335.5 404.492H332.32ZM338.652 404.492L340.972 389.892H343.472L342.892 393.492L342.492 395.592H343.172L342.412 396.172C342.559 395.266 342.932 394.559 343.532 394.052C344.146 393.546 344.912 393.292 345.832 393.292C346.912 393.292 347.719 393.652 348.252 394.372C348.786 395.092 348.952 396.059 348.752 397.272L347.612 404.492H345.112L346.212 397.532C346.319 396.866 346.226 396.352 345.932 395.992C345.639 395.632 345.186 395.452 344.572 395.452C343.946 395.452 343.426 395.639 343.012 396.012C342.612 396.386 342.352 396.919 342.232 397.612L341.152 404.492H338.652ZM355.084 404.692C354.151 404.692 353.371 404.512 352.744 404.152C352.118 403.792 351.664 403.292 351.384 402.652C351.118 401.999 351.051 401.239 351.184 400.372L351.624 397.612C351.771 396.746 352.084 395.992 352.564 395.352C353.044 394.699 353.651 394.192 354.384 393.832C355.131 393.472 355.971 393.292 356.904 393.292C357.824 393.292 358.598 393.472 359.224 393.832C359.851 394.192 360.298 394.699 360.564 395.352C360.844 395.992 360.911 396.746 360.764 397.612L360.444 399.592H353.724L353.584 400.372C353.478 401.146 353.571 401.732 353.864 402.132C354.171 402.519 354.691 402.712 355.424 402.712C355.984 402.712 356.444 402.619 356.804 402.432C357.178 402.232 357.438 401.946 357.584 401.572H360.064C359.838 402.199 359.478 402.746 358.984 403.212C358.504 403.679 357.931 404.046 357.264 404.312C356.598 404.566 355.871 404.692 355.084 404.692ZM358.264 398.192L358.364 397.592C358.484 396.832 358.398 396.252 358.104 395.852C357.811 395.439 357.304 395.232 356.584 395.232C355.864 395.232 355.284 395.439 354.844 395.852C354.418 396.266 354.144 396.852 354.024 397.612L353.964 398.032L358.484 397.992L358.264 398.192ZM372.869 408.092L373.209 406.012H375.289C375.835 406.012 376.269 405.872 376.589 405.592C376.922 405.326 377.129 404.939 377.209 404.432L378.389 396.972H375.349L375.709 394.712H378.749L378.989 393.212C379.095 392.532 379.335 391.946 379.709 391.452C380.082 390.959 380.562 390.579 381.149 390.312C381.749 390.032 382.422 389.892 383.169 389.892H386.489L386.149 392.092H382.869C382.482 392.092 382.169 392.192 381.929 392.392C381.689 392.592 381.535 392.886 381.469 393.272L381.249 394.712H385.469L385.109 396.972H380.889L379.689 404.492C379.529 405.599 379.029 406.472 378.189 407.112C377.349 407.766 376.289 408.092 375.009 408.092H372.869ZM390.121 404.692C389.014 404.692 388.188 404.312 387.641 403.552C387.108 402.792 386.948 401.772 387.161 400.492L387.621 397.512C387.768 396.646 388.041 395.899 388.441 395.272C388.841 394.646 389.341 394.159 389.941 393.812C390.541 393.466 391.208 393.292 391.941 393.292C392.848 393.292 393.521 393.552 393.961 394.072C394.414 394.579 394.568 395.279 394.421 396.172L393.961 395.592H394.521L394.801 393.492H397.301L395.561 404.492H393.101L393.441 402.392H392.901L393.541 401.812C393.394 402.706 393.014 403.412 392.401 403.932C391.788 404.439 391.028 404.692 390.121 404.692ZM391.361 402.532C391.988 402.532 392.508 402.346 392.921 401.972C393.334 401.586 393.594 401.052 393.701 400.372L394.141 397.612C394.261 396.932 394.168 396.406 393.861 396.032C393.554 395.646 393.088 395.452 392.461 395.452C391.821 395.452 391.294 395.639 390.881 396.012C390.481 396.386 390.228 396.919 390.121 397.612L389.681 400.372C389.561 401.066 389.648 401.599 389.941 401.972C390.234 402.346 390.708 402.532 391.361 402.532ZM404.673 404.492C403.58 404.492 402.753 404.166 402.193 403.512C401.646 402.859 401.46 401.999 401.633 400.932L403.013 392.152H399.653L400.013 389.892H405.873L404.133 400.932C404.066 401.332 404.126 401.652 404.313 401.892C404.513 402.119 404.806 402.232 405.193 402.232H408.593L408.253 404.492H404.673ZM416.665 404.492C415.572 404.492 414.745 404.166 414.185 403.512C413.639 402.859 413.452 401.999 413.625 400.932L415.005 392.152H411.645L412.005 389.892H417.865L416.125 400.932C416.059 401.332 416.119 401.652 416.305 401.892C416.505 402.119 416.799 402.232 417.185 402.232H420.585L420.245 404.492H416.665Z" fill="#5392F9"/>
</svg>
