<svg width="512" height="512" viewBox="0 0 512 512" fill="none" xmlns="http://www.w3.org/2000/svg">
<rect width="512" height="512" rx="32" fill="url(#paint0_radial_226_362)"/>
<path d="M316.5 339.5L402 297.5L413.5 294L422 305.5L420.5 318.5L374 361L309.5 407.5L265 420.5L241 416L136.5 408L133 427L92.5 424.5L89 387.5V322L124.5 317L133 328.5L169.5 319L213 309.5L270.5 323.5L292 343.5L316.5 339.5Z" fill="#DCEAFC"/>
<path d="M415.994 289.386C421.367 292.144 424.631 296.521 427.665 301.618C429.48 307.996 429.649 314.125 426.891 320.245C423.012 327.077 416.848 332.041 410.959 337.094C408.708 339.051 406.511 341.07 404.323 343.098C400.364 346.701 396.299 350.108 392.136 353.47C389.645 355.516 387.225 357.616 384.806 359.751C377.734 365.969 370.404 371.751 362.86 377.391C361.099 378.716 359.346 380.068 357.603 381.421C326.966 405.047 290.921 428.852 250.704 425.934C243.596 425.009 236.587 423.541 229.568 422.082C225.245 421.193 220.904 420.357 216.563 419.538C215.54 419.334 215.54 419.334 214.49 419.12C197.642 415.936 180.331 415.704 163.251 415.153C161.018 415.073 158.785 414.993 156.561 414.913C151.171 414.726 145.78 414.548 140.398 414.37C140.425 415.277 140.425 415.277 140.451 416.211C140.469 417.412 140.469 417.412 140.487 418.631C140.505 419.423 140.523 420.214 140.54 421.024C140.256 425.436 137.694 427.829 134.554 430.658C128.985 434.519 121.255 433.318 114.708 433.362C113.053 433.38 111.389 433.398 109.735 433.433C107.324 433.487 104.931 433.504 102.52 433.513C101.791 433.54 101.053 433.558 100.305 433.576C95.0215 433.558 90.885 432.357 87.0243 428.603C83.1725 423.346 82.959 419.094 83.0213 412.689C83.0124 411.256 83.0124 411.256 83.0035 409.798C82.9946 406.649 83.0035 403.499 83.0213 400.359C83.0213 398.162 83.0213 395.974 83.0213 393.777C83.0213 389.186 83.0302 384.605 83.048 380.015C83.0746 374.135 83.0747 368.255 83.0569 362.375C83.0569 357.847 83.0569 353.328 83.0746 348.8C83.0746 346.63 83.0746 344.459 83.0746 342.298C83.0746 339.264 83.0835 336.24 83.1013 333.206C83.1013 332.308 83.0924 331.418 83.0924 330.493C83.1458 325.102 83.6529 320.957 87.4958 316.838C92.3795 313.102 95.3595 312.8 101.409 312.746C102.218 312.737 103.036 312.737 103.873 312.728C105.598 312.711 107.324 312.702 109.05 312.693C111.683 312.684 114.316 312.639 116.949 312.604C118.622 312.595 120.303 312.586 121.975 312.577C123.158 312.559 123.158 312.559 124.359 312.533C129.27 312.551 132.054 313.244 135.95 316.518C137.729 318.537 139.197 320.343 140.398 322.745C153.332 320.227 164.826 316.287 176.657 310.478C203.335 297.446 222.354 303.228 249.592 311.492C252.43 312.346 255.276 313.2 258.132 314.054C260.881 314.881 263.629 315.708 266.387 316.545C267.899 316.998 267.899 316.998 269.456 317.461C278.04 320.085 284.676 323.101 289.845 330.751C290.992 333.366 291.837 335.982 292.513 338.757C321.531 336.978 353.44 314.267 378.152 300.106C382.279 297.757 386.434 295.462 390.588 293.167C391.335 292.749 392.082 292.34 392.847 291.913C393.541 291.53 394.226 291.157 394.938 290.765C395.836 290.267 395.836 290.267 396.761 289.76C402.535 286.833 410.025 287.056 415.994 289.386ZM398.229 303.246C397.464 303.673 397.464 303.673 396.681 304.117C395.009 305.052 393.354 306.003 391.7 306.955C390.534 307.613 389.369 308.263 388.204 308.921C385.864 310.238 383.525 311.554 381.194 312.88C318.88 348.178 318.88 348.178 291.571 352.243C288.875 352.777 288.875 352.777 287.256 354.734C286.144 356.468 286.144 356.468 286.287 358.327C272.961 365.053 262.678 363.914 248.48 360.605C237.361 358.043 226.748 356.273 215.282 356.691C213.342 356.548 213.342 356.548 211.563 354.769C211.296 353.097 211.296 353.097 211.287 351.211C211.27 350.588 211.252 349.966 211.234 349.325C211.341 348.774 211.448 348.222 211.563 347.653C220.325 341.808 234.834 345.838 244.477 347.653C248.987 348.596 253.497 349.583 257.981 350.651C266.334 352.67 266.334 352.67 274.553 350.989C277.471 348.658 278.85 346.914 279.944 343.312C280.104 339.362 278.734 336.756 276.163 333.784C274.571 332.406 273.388 331.89 271.386 331.276C270.381 330.964 270.381 330.964 269.358 330.644C268.629 330.431 267.908 330.217 267.161 329.986C266.405 329.755 265.649 329.523 264.866 329.283C262.384 328.518 259.911 327.771 257.429 327.024C255.73 326.508 254.022 325.992 252.323 325.476C248.106 324.195 243.89 322.923 239.673 321.66C237.547 321.019 235.421 320.379 233.295 319.729C229.915 318.697 226.517 317.692 223.128 316.687C222.158 316.393 221.188 316.1 220.192 315.789C205.105 311.421 193.914 316.242 180.259 323.021C168.535 328.723 156.659 332.281 143.956 335.199C142.195 335.644 142.195 335.644 140.398 336.088C140.398 357.812 140.398 379.535 140.398 401.916C147.933 402.156 155.476 402.396 163.251 402.637C190.525 403.606 216.411 406.195 243.098 411.959C274.758 418.284 302.245 403.838 328.034 386.687C330.142 385.255 332.232 383.805 334.323 382.346C334.821 381.999 335.328 381.643 335.853 381.287C351.821 370.168 366.934 357.989 381.737 345.375C383.249 344.094 384.761 342.813 386.282 341.533C392.5 336.275 398.549 330.849 404.465 325.245C406.929 322.914 409.402 320.637 412.026 318.484C415.166 315.869 415.976 314.401 416.492 310.398C416.065 306.848 414.855 305.043 412.605 302.285C407.819 298.771 402.953 300.55 398.229 303.246ZM95.9199 326.303C95.831 327.504 95.8043 328.705 95.7954 329.915C95.7954 330.689 95.7954 331.463 95.7865 332.263C95.7865 333.126 95.7865 333.98 95.7865 334.87C95.7865 335.768 95.7865 336.667 95.7776 337.592C95.7687 340.581 95.7687 343.578 95.7687 346.567C95.7687 348.631 95.7598 350.704 95.7598 352.768C95.7509 357.118 95.7509 361.459 95.7509 365.8C95.7509 371.377 95.742 376.955 95.7242 382.532C95.7153 386.802 95.7153 391.081 95.7153 395.351C95.7153 397.406 95.7065 399.47 95.7065 401.525C95.6976 404.398 95.6976 407.262 95.6976 410.136C95.6976 410.999 95.6886 411.853 95.6886 412.733C95.6886 413.516 95.6976 414.299 95.6976 415.099C95.6976 415.775 95.6976 416.46 95.6976 417.154C95.7776 419.04 95.7776 419.04 97.6991 420.597C100.608 420.864 100.608 420.864 104.033 420.802C104.976 420.802 104.976 420.802 105.928 420.802C107.253 420.802 108.57 420.793 109.895 420.784C111.923 420.766 113.951 420.766 115.971 420.766C122.144 421.122 122.144 421.122 127.944 419.707C127.962 407.547 127.98 395.378 127.989 383.217C127.989 377.569 127.998 371.92 128.007 366.28C128.015 360.836 128.024 355.383 128.024 349.939C128.024 347.857 128.033 345.776 128.033 343.694C128.042 340.785 128.042 337.885 128.042 334.976C128.051 333.669 128.051 333.669 128.051 332.343C128.051 331.552 128.051 330.769 128.051 329.959C128.051 329.265 128.051 328.58 128.051 327.869C128.113 326.276 128.113 326.276 127.055 325.414C124.822 325.325 122.616 325.289 120.383 325.298C119.716 325.298 119.049 325.298 118.355 325.289C116.94 325.289 115.526 325.298 114.112 325.298C111.941 325.298 109.77 325.298 107.591 325.289C106.221 325.289 104.851 325.298 103.481 325.298C102.823 325.298 102.174 325.289 101.497 325.289C98.4552 325.031 98.4552 325.031 95.9199 326.303Z" fill="#5392F9"/>
<path d="M222.396 269.865H301.428V243.417L304.229 245.906L313.563 248.084L320.72 244.039L325.076 234.705L323.831 226.926L318.23 220.703L306.095 218.836H301.428L299.872 191.455H274.358L273.425 188.966L275.914 179.009L271.246 170.296L264.09 166.874L253.822 169.052L247.91 176.52L246.043 182.743L250.088 191.144L221.462 190.832L222.396 269.865Z" fill="#5392F9"/>
<path d="M222.396 115.845H301.428V142.293H297.694L288.36 140.115L281.203 144.16L276.847 153.494L278.092 161.273L283.693 167.496L295.827 169.363L301.428 166.874L299.872 194.255H274.358L273.425 196.744L275.914 206.701L271.246 215.413L264.09 218.836L253.822 216.658L247.91 209.19L246.043 202.967L250.088 194.566L221.462 194.877L222.396 115.845Z" fill="#DCEAFC"/>
<path d="M377.66 271.109H298.628V244.662H302.362L311.696 246.84L318.853 242.795L323.209 233.46L321.964 225.681L316.363 219.458L304.228 217.591L298.628 220.081L300.184 192.699H325.698L326.631 190.21L324.142 180.253L328.809 171.541L335.966 168.118L346.234 170.297L352.146 177.764L354.013 183.987L349.968 192.388L378.594 192.077L377.66 271.109Z" fill="#DCEAFC"/>
<path d="M410.46 108.492L387.929 168.25L367.931 160.71L368.995 157.887L373.303 151.45L372.285 144.885L366.469 138.93L360.232 137.654L353.93 140.114L349.059 148.758L349.345 153.702L329.085 144.72L336.359 125.428L334.742 124.012L326.504 123.056L321.247 117.043L320.7 110.656L325.274 103.513L332.606 101.172L337.843 101.535L343.042 106.988L350.968 85.2547L410.46 108.492Z" fill="#5392F9"/>
<path d="M229.644 113.438C229.953 113.434 230.261 113.434 230.578 113.43C231.606 113.426 232.631 113.43 233.656 113.43C234.396 113.43 235.135 113.426 235.871 113.422C237.873 113.414 239.875 113.418 241.877 113.418C243.546 113.418 245.216 113.418 246.885 113.414C250.825 113.41 254.766 113.41 258.706 113.414C262.769 113.418 266.836 113.414 270.903 113.402C274.392 113.394 277.886 113.391 281.375 113.394C283.46 113.394 285.549 113.394 287.634 113.387C289.592 113.383 291.55 113.383 293.508 113.391C294.229 113.391 294.949 113.391 295.669 113.387C296.65 113.383 297.631 113.387 298.608 113.394C298.897 113.391 299.182 113.387 299.478 113.383C300.808 113.402 301.524 113.509 302.604 114.312C303.478 115.535 303.438 116.67 303.423 118.118C303.427 118.411 303.427 118.708 303.431 119.008C303.438 119.982 303.434 120.951 303.427 121.924C303.431 122.597 303.431 123.273 303.431 123.95C303.434 125.366 303.431 126.782 303.423 128.198C303.415 130.014 303.419 131.826 303.431 133.642C303.434 135.035 303.434 136.431 303.431 137.828C303.427 138.496 303.431 139.165 303.434 139.834C303.438 140.771 303.431 141.705 303.423 142.642C303.427 142.915 303.431 143.192 303.431 143.473C303.407 144.854 303.233 145.613 302.493 146.796C301.634 147.615 301.634 147.615 300.349 147.888C298.608 147.568 297.848 146.939 296.499 145.847C293.908 143.877 290.953 143.687 287.788 144.055C284.856 144.818 282.408 146.068 280.801 148.683C279.005 152.062 278.269 154.701 279.144 158.487C280.172 161.537 282.226 163.859 285.019 165.418C287.772 166.668 290.387 166.902 293.327 166.209C294.996 165.564 296.642 164.876 297.916 163.594C298.81 162.708 299.617 162.696 300.843 162.649C302.651 163.491 302.651 163.491 303.217 164.627C303.253 165.465 303.264 166.308 303.264 167.151C303.264 167.408 303.264 167.665 303.264 167.934C303.264 168.789 303.26 169.643 303.256 170.502C303.256 171.095 303.256 171.689 303.256 172.282C303.253 173.845 303.249 175.403 303.245 176.966C303.241 178.841 303.237 180.716 303.237 182.588C303.233 185.436 303.225 188.285 303.217 191.133C309.745 191.133 316.272 191.133 322.998 191.133C322.606 189.958 322.214 188.783 321.811 187.572C321.692 186.37 321.621 185.282 321.637 184.087C321.641 183.775 321.645 183.466 321.649 183.149C321.787 178.454 323.441 174.861 326.558 171.352C330.708 167.483 335.491 166.356 341.014 166.482C344.753 166.668 347.783 168.29 350.691 170.561C350.936 170.751 351.177 170.937 351.431 171.135C354.061 173.453 356.4 177.678 356.688 181.227C356.708 182.113 356.72 182.999 356.724 183.889C356.732 184.19 356.74 184.495 356.748 184.803C356.76 186.485 356.585 187.877 356.024 189.467C355.862 189.938 355.862 189.938 355.695 190.417C355.569 190.773 355.569 190.773 355.438 191.133C355.731 191.129 356.024 191.125 356.328 191.117C359.09 191.078 361.855 191.05 364.62 191.03C366.045 191.018 367.465 191.006 368.885 190.983C370.258 190.963 371.631 190.951 373.004 190.943C373.779 190.939 374.554 190.923 375.334 190.908C375.808 190.908 376.283 190.908 376.774 190.908C377.189 190.904 377.609 190.9 378.036 190.896C379.618 191.224 380.148 191.857 381.153 193.111C381.347 194.191 381.418 195.026 381.399 196.102C381.402 196.403 381.406 196.699 381.406 197.004C381.414 198.005 381.406 198.998 381.399 199.995C381.399 200.711 381.402 201.427 381.402 202.143C381.41 204.085 381.402 206.028 381.395 207.974C381.387 210.008 381.387 212.041 381.391 214.079C381.391 217.497 381.383 220.915 381.367 224.333C381.355 228.281 381.351 232.23 381.355 236.178C381.355 239.98 381.351 243.782 381.343 247.579C381.339 249.198 381.339 250.812 381.339 252.43C381.339 254.333 381.335 256.24 381.323 258.146C381.323 258.843 381.319 259.539 381.323 260.239C381.327 264.757 381.232 268.65 378.285 272.341C376.101 274.501 373.36 275.051 370.392 275.055C369.633 275.055 369.633 275.055 368.858 275.059C368.292 275.059 367.73 275.059 367.164 275.059C366.567 275.059 365.97 275.059 365.372 275.063C363.726 275.067 362.081 275.067 360.435 275.067C358.659 275.067 356.886 275.071 355.114 275.071C351.233 275.079 347.352 275.079 343.471 275.083C341.05 275.083 338.628 275.083 336.203 275.087C329.498 275.091 322.792 275.095 316.09 275.099C315.659 275.099 315.232 275.099 314.789 275.099C314.357 275.099 313.926 275.099 313.483 275.099C312.613 275.099 311.738 275.099 310.868 275.099C310.437 275.099 310.002 275.099 309.559 275.099C302.548 275.099 295.542 275.106 288.532 275.114C281.339 275.126 274.143 275.13 266.951 275.13C262.912 275.13 258.868 275.134 254.829 275.142C251.391 275.146 247.949 275.15 244.511 275.146C242.755 275.142 240.998 275.142 239.246 275.15C237.64 275.154 236.029 275.154 234.423 275.15C233.842 275.15 233.26 275.15 232.683 275.154C228.548 275.178 224.81 274.893 221.72 271.839C219.892 269.239 219.299 266.973 219.295 263.812C219.291 263.309 219.291 262.803 219.287 262.285C219.287 261.727 219.287 261.169 219.287 260.607C219.287 260.014 219.287 259.42 219.283 258.827C219.279 257.193 219.279 255.559 219.279 253.925C219.275 252.165 219.271 250.4 219.271 248.64C219.263 244.387 219.259 240.13 219.255 235.877C219.251 233.875 219.251 231.87 219.247 229.868C219.239 223.206 219.236 216.543 219.232 209.881C219.232 208.152 219.232 206.424 219.232 204.695C219.232 204.264 219.232 203.836 219.232 203.393C219.228 196.434 219.216 189.475 219.204 182.517C219.192 175.368 219.184 168.223 219.18 161.078C219.18 157.067 219.176 153.055 219.168 149.039C219.16 145.625 219.156 142.207 219.16 138.793C219.16 137.048 219.16 135.308 219.152 133.563C219.145 131.969 219.149 130.37 219.152 128.772C219.152 128.198 219.152 127.621 219.149 127.047C219.117 122.941 219.382 119.131 222.238 115.966C224.359 113.913 226.788 113.414 229.644 113.438ZM225.736 121.2C225.162 122.581 225.134 123.653 225.138 125.144C225.138 125.429 225.138 125.71 225.134 126.003C225.134 126.948 225.142 127.894 225.146 128.839C225.146 129.516 225.146 130.196 225.146 130.873C225.146 132.716 225.154 134.556 225.162 136.396C225.17 138.318 225.17 140.245 225.17 142.168C225.174 145.811 225.186 149.455 225.197 153.095C225.209 157.245 225.217 161.391 225.221 165.541C225.233 174.07 225.257 182.6 225.281 191.133C225.609 191.133 225.937 191.137 226.278 191.141C229.375 191.161 232.469 191.192 235.567 191.224C237.161 191.244 238.751 191.26 240.342 191.268C241.881 191.279 243.416 191.295 244.955 191.315C245.54 191.323 246.126 191.327 246.711 191.331C247.534 191.331 248.353 191.343 249.176 191.359C249.643 191.362 250.109 191.366 250.592 191.37C251.898 191.541 252.455 191.778 253.369 192.715C253.71 194.235 253.587 195.129 252.776 196.462C252.277 197.15 251.775 197.835 251.269 198.519C249.504 200.948 249.516 203.654 249.809 206.562C250.56 209.573 252.036 212.081 254.6 213.869C257.8 215.764 260.771 216.512 264.447 215.661C267.829 214.443 270.488 212.48 272.114 209.232C273.316 206.162 273.482 203.152 272.426 200.023C271.896 198.899 271.231 197.985 270.48 196.992C268.984 194.99 268.984 194.99 269.17 193.507C269.59 192.32 269.59 192.32 270.381 191.529C271.496 191.418 271.496 191.418 272.94 191.402C273.202 191.398 273.467 191.394 273.736 191.39C274.606 191.378 275.476 191.37 276.343 191.362C276.944 191.355 277.549 191.351 278.151 191.339C279.737 191.319 281.32 191.303 282.906 191.291C284.809 191.271 286.712 191.248 288.611 191.224C291.503 191.188 294.395 191.161 297.283 191.133C297.283 184.605 297.283 178.078 297.283 171.352C295.522 171.744 295.522 171.744 293.722 172.143C288.571 172.535 283.586 172.333 279.429 168.88C275.836 165.521 273.391 161.901 273.055 156.885C272.956 151.476 274.016 146.955 277.822 142.892C281.763 139.204 286.138 138.037 291.408 138.014C293.382 138.152 295.332 138.556 297.283 138.912C297.283 132.384 297.283 125.856 297.283 119.131C288.401 119.103 279.52 119.079 270.634 119.068C266.512 119.064 262.385 119.056 258.263 119.04C254.667 119.028 251.075 119.02 247.479 119.02C245.576 119.016 243.673 119.012 241.77 119.004C239.978 118.996 238.186 118.992 236.393 118.996C235.737 118.996 235.076 118.992 234.419 118.989C233.521 118.985 232.623 118.985 231.725 118.989C231.223 118.985 230.72 118.985 230.202 118.985C228.263 119.19 226.99 119.685 225.736 121.2ZM330.317 176.222C329.786 176.926 329.786 176.926 329.328 177.682C329.165 177.935 329.003 178.192 328.837 178.454C327.302 181.31 327.179 184.728 328.034 187.83C328.655 189.313 329.446 190.516 330.439 191.774C331.29 192.897 331.306 193.087 331.306 194.618C330.91 195.88 330.91 195.88 329.723 196.672C328.576 196.782 328.576 196.782 327.156 196.798C326.898 196.802 326.637 196.806 326.372 196.81C325.518 196.822 324.663 196.826 323.809 196.834C323.215 196.842 322.626 196.85 322.032 196.858C320.474 196.877 318.915 196.893 317.356 196.909C315.485 196.929 313.614 196.953 311.742 196.976C308.902 197.008 306.057 197.036 303.217 197.067C303.217 203.595 303.217 210.123 303.217 216.848C304.981 216.456 304.981 216.456 306.777 216.057C312.573 215.614 317.297 216.231 322.021 219.91C325.581 223.162 327.48 227.557 327.761 232.348C327.698 237.404 326.273 241.57 322.776 245.23C319.176 248.572 315.366 250.147 310.461 250.155C310.203 250.159 309.942 250.163 309.673 250.167C307.355 250.175 305.602 249.763 303.217 249.289C303.217 255.816 303.217 262.344 303.217 269.069C312.205 269.113 321.19 269.148 330.174 269.172C334.348 269.18 338.522 269.196 342.691 269.216C346.327 269.236 349.963 269.251 353.603 269.255C355.525 269.255 357.452 269.263 359.379 269.279C361.19 269.291 363.002 269.295 364.814 269.291C365.479 269.291 366.148 269.295 366.812 269.303C367.718 269.315 368.628 269.311 369.538 269.307C370.044 269.307 370.555 269.311 371.077 269.311C372.901 268.99 373.534 268.401 374.823 267.091C375.286 265.703 375.266 264.615 375.266 263.147C375.266 262.866 375.266 262.585 375.266 262.292C375.27 261.343 375.266 260.397 375.266 259.448C375.266 258.771 375.266 258.095 375.266 257.415C375.266 255.571 375.263 253.727 375.259 251.884C375.259 249.957 375.259 248.03 375.259 246.104C375.255 242.456 375.251 238.809 375.247 235.161C375.243 231.007 375.243 226.853 375.239 222.699C375.235 214.154 375.227 205.613 375.219 197.067C374.891 197.063 374.562 197.063 374.226 197.063C371.128 197.047 368.031 197.024 364.933 196.992C363.343 196.976 361.748 196.964 360.158 196.96C358.623 196.953 357.084 196.941 355.549 196.921C354.963 196.913 354.374 196.913 353.788 196.913C352.97 196.909 352.147 196.901 351.328 196.885C350.624 196.881 350.624 196.881 349.911 196.877C348.471 196.628 347.989 196.252 347.13 195.089C347.043 192.803 348.016 191.402 349.318 189.634C351.059 187.019 351.055 184.293 350.691 181.243C349.722 178.26 348.234 175.795 345.548 174.122C345.295 173.959 345.037 173.797 344.776 173.631C339.97 171.048 334 172.282 330.317 176.222ZM225.281 197.067C225.253 206.008 225.233 214.949 225.221 223.89C225.213 228.04 225.205 232.194 225.194 236.344C225.182 239.96 225.174 243.58 225.17 247.2C225.17 249.114 225.166 251.029 225.154 252.944C225.146 254.748 225.146 256.552 225.146 258.356C225.146 259.017 225.146 259.681 225.138 260.342C225.134 261.244 225.134 262.15 225.138 263.052C225.138 263.558 225.138 264.065 225.134 264.587C225.332 266.367 225.921 267.321 227.156 268.591C228.426 269.267 229.435 269.216 230.871 269.212C231.151 269.212 231.436 269.212 231.729 269.216C232.683 269.216 233.632 269.208 234.585 269.204C235.27 269.204 235.95 269.204 236.631 269.204C238.486 269.204 240.338 269.196 242.193 269.188C244.128 269.18 246.062 269.18 248.001 269.18C251.668 269.176 255.332 269.164 258.999 269.152C263.173 269.141 267.346 269.133 271.524 269.129C280.109 269.117 288.698 269.093 297.283 269.069C297.287 268.741 297.287 268.413 297.291 268.072C297.314 264.975 297.342 261.881 297.378 258.783C297.393 257.189 297.409 255.599 297.421 254.004C297.429 252.469 297.445 250.934 297.469 249.395C297.473 248.81 297.477 248.224 297.48 247.639C297.484 246.816 297.496 245.997 297.508 245.174C297.516 244.474 297.516 244.474 297.52 243.758C297.694 242.452 297.928 241.895 298.865 240.981C300.266 240.704 301.183 240.692 302.41 241.471C302.94 241.894 303.474 242.318 304 242.745C306.595 244.719 309.543 244.901 312.712 244.541C315.829 243.786 318.543 242.104 320.351 239.418C320.774 238.631 321.107 237.859 321.415 237.024C321.558 236.645 321.558 236.645 321.7 236.257C322.586 233.373 322.234 230.612 321.02 227.874C319.394 224.891 316.779 222.573 313.503 221.595C310.567 220.951 307.968 221.2 305.195 222.387C304.491 222.861 303.798 223.356 303.118 223.87C301.132 225.37 301.132 225.37 299.656 225.203C298.47 224.76 298.47 224.76 297.678 223.574C297.568 222.422 297.568 222.422 297.552 221.006C297.548 220.618 297.548 220.618 297.54 220.223C297.528 219.368 297.52 218.514 297.516 217.659C297.508 217.066 297.5 216.472 297.492 215.879C297.473 214.32 297.457 212.761 297.441 211.203C297.421 209.331 297.397 207.46 297.374 205.593C297.342 202.748 297.314 199.908 297.283 197.067C290.755 197.067 284.227 197.067 277.502 197.067C277.894 199.156 278.285 201.245 278.689 203.397C278.76 208.259 277.241 213.011 273.87 216.615C269.253 220.654 264.502 221.639 258.548 221.283C254.07 220.828 250.196 218.047 247.352 214.7C245.172 211.571 244.223 208.109 244.171 204.335C244.163 203.892 244.151 203.445 244.14 202.986C244.27 201.419 244.27 201.419 245.457 197.067C238.799 197.067 232.141 197.067 225.281 197.067Z" fill="#4071F7"/>
<path d="M356.411 85.0228C357.535 85.4421 358.642 85.8852 359.75 86.3362C360.177 86.5063 360.605 86.6765 361.044 86.8545C362.219 87.3213 363.394 87.7961 364.569 88.2708C365.815 88.7732 367.061 89.2757 368.307 89.7741C368.83 89.9838 369.352 90.1935 369.874 90.4032C370.135 90.506 370.4 90.6128 370.669 90.7197C371.492 91.052 372.311 91.3803 373.13 91.7087C377.153 93.3268 381.193 94.9132 385.232 96.4956C387.21 97.2671 389.188 98.0465 391.166 98.8219C392.784 99.4588 394.402 100.092 396.02 100.721C397.555 101.314 399.09 101.92 400.621 102.525C401.187 102.746 401.753 102.968 402.322 103.186C408.712 105.646 408.712 105.646 410.666 108.613C410.785 108.918 410.899 109.223 411.022 109.535C411.149 109.836 411.275 110.136 411.406 110.445C412.193 114.821 410.076 118.848 408.478 122.816C408.189 123.532 407.905 124.252 407.62 124.968C406.868 126.863 406.108 128.758 405.349 130.649C404.609 132.493 403.873 134.34 403.137 136.188C401.962 139.135 400.783 142.082 399.601 145.026C398.485 147.795 397.381 150.568 396.289 153.342C395.64 154.995 394.988 156.641 394.335 158.291C394.022 159.078 393.714 159.869 393.405 160.657C392.978 161.749 392.543 162.84 392.112 163.932C391.985 164.257 391.862 164.577 391.732 164.91C390.43 168.165 390.43 168.165 389.065 169.372C386.383 169.902 383.938 168.597 381.481 167.612C381.022 167.43 380.564 167.252 380.093 167.066C378.878 166.583 377.668 166.1 376.457 165.614C375.713 165.317 374.97 165.024 374.226 164.735C372.794 164.174 371.362 163.608 369.933 163.038C369.49 162.864 369.047 162.69 368.588 162.512C368.181 162.346 367.769 162.18 367.346 162.006C366.982 161.863 366.622 161.721 366.25 161.571C365.214 161.001 364.747 160.494 364.142 159.482C363.944 158.323 363.944 158.323 364.142 157.108C365.051 155.992 365.878 155.264 367.136 154.564C368.794 153.5 369.49 152.056 370.202 150.26C370.657 147.803 370.491 145.766 369.261 143.558C367.9 141.612 366.27 140.441 363.963 139.847C361.111 139.432 359.137 140.077 356.724 141.556C354.908 143.424 354.156 145.2 354.128 147.811C354.168 149.152 354.322 150.406 354.576 151.72C354.647 153.152 354.647 153.152 353.832 154.339C352.459 155.276 351.925 155.256 350.295 155.13C349.239 154.825 349.239 154.825 348.163 154.386C347.755 154.224 347.352 154.062 346.932 153.896C346.497 153.718 346.066 153.54 345.619 153.354C344.946 153.085 344.946 153.085 344.258 152.804C343.308 152.42 342.363 152.036 341.413 151.648C339.965 151.055 338.514 150.466 337.062 149.88C336.14 149.508 335.218 149.132 334.296 148.757C333.861 148.582 333.426 148.404 332.979 148.222C332.575 148.056 332.172 147.89 331.752 147.72C331.4 147.574 331.044 147.431 330.68 147.281C329.707 146.814 328.932 146.371 328.14 145.635C327.82 143.091 328.473 141.204 329.438 138.874C329.636 138.38 329.636 138.38 329.838 137.877C330.257 136.833 330.684 135.796 331.108 134.756C331.396 134.048 331.681 133.335 331.966 132.627C332.662 130.894 333.367 129.166 334.075 127.437C333.758 127.366 333.438 127.29 333.109 127.215C332.69 127.116 332.267 127.013 331.832 126.911C331.416 126.812 331.001 126.717 330.573 126.614C326.871 125.534 324.058 123.148 322.095 119.861C320.137 116.098 319.916 111.367 321.193 107.312C322.859 103.399 326.115 100.487 330.012 98.9129C331.535 98.4935 332.975 98.4065 334.545 98.4104C334.842 98.4104 335.135 98.4104 335.44 98.4104C338.988 98.4896 341.932 99.5854 344.756 101.722C344.8 101.457 344.843 101.192 344.887 100.919C345.215 99.4786 345.73 98.1375 346.275 96.7647C346.386 96.4838 346.497 96.1989 346.612 95.9101C346.845 95.3167 347.079 94.7193 347.316 94.1259C347.672 93.22 348.028 92.314 348.384 91.408C348.61 90.8265 348.839 90.2489 349.069 89.6673C349.227 89.2638 349.227 89.2638 349.389 88.8524C350.987 84.8408 352.146 83.6579 356.411 85.0228ZM355.042 91.0401C354.904 91.3882 354.904 91.3882 354.761 91.7403C353.804 94.1417 352.839 96.5431 351.873 98.9406C351.513 99.8386 351.157 100.733 350.797 101.631C350.283 102.92 349.765 104.206 349.247 105.492C349.088 105.892 348.926 106.295 348.764 106.71C348.614 107.082 348.463 107.454 348.305 107.838C348.174 108.166 348.044 108.495 347.905 108.835C347.526 109.634 347.526 109.634 346.734 110.425C344.242 110.655 344.242 110.655 343.352 109.923C342.747 109.203 342.22 108.459 341.69 107.684C340.112 105.571 338.514 104.558 335.906 104.123C333.331 103.941 331.325 104.748 329.205 106.149C327.294 108.15 326.21 110.394 326.162 113.195C326.617 116.15 327.721 118.128 330.119 119.92C332.844 121.514 335.558 121.336 338.577 120.838C340.009 120.711 340.009 120.711 340.998 121.107C341.86 122.254 341.773 123.299 341.591 124.667C341.196 126.028 340.662 127.326 340.12 128.632C339.973 129.003 339.823 129.375 339.669 129.759C339.194 130.942 338.711 132.121 338.229 133.3C337.75 134.483 337.267 135.67 336.789 136.856C336.492 137.596 336.195 138.332 335.891 139.068C335.756 139.4 335.622 139.733 335.483 140.073C335.364 140.365 335.246 140.658 335.123 140.959C334.822 141.675 334.822 141.675 334.866 142.47C336.662 143.206 338.458 143.938 340.254 144.67C340.863 144.919 341.477 145.168 342.09 145.418C342.964 145.774 343.842 146.134 344.717 146.49C344.994 146.6 345.267 146.715 345.552 146.83C346.703 147.38 346.703 147.38 347.921 147.613C347.957 147.344 347.992 147.079 348.024 146.802C348.657 142.632 350.085 139.194 353.46 136.536C357.151 133.996 361.119 133.24 365.502 134.04C367.496 134.526 369.146 135.444 370.867 136.536C371.219 136.757 371.571 136.979 371.931 137.205C374.97 140.243 376.338 144.175 376.406 148.404C376.18 151.819 374.882 154.544 373.241 157.504C375.812 158.853 378.447 159.925 381.153 160.965C381.572 161.127 381.992 161.294 382.427 161.46C383.452 161.855 384.48 162.255 385.505 162.647C386.486 161.772 386.957 161.009 387.427 159.786C387.629 159.276 387.629 159.276 387.831 158.754C387.973 158.382 388.116 158.01 388.262 157.626C388.413 157.235 388.567 156.843 388.725 156.435C389.053 155.585 389.382 154.73 389.71 153.88C390.592 151.589 391.483 149.302 392.373 147.02C392.555 146.545 392.737 146.074 392.927 145.588C394.869 140.587 396.859 135.606 398.857 130.629C399.181 129.822 399.506 129.015 399.826 128.212C399.98 127.824 400.139 127.437 400.297 127.041C400.598 126.286 400.898 125.53 401.203 124.778C401.939 122.927 402.69 121.083 403.462 119.248C403.687 118.706 403.687 118.706 403.917 118.152C404.198 117.471 404.486 116.791 404.779 116.114C405.313 114.817 405.693 113.871 405.642 112.459C405.119 111.217 404.463 110.607 403.26 110.006C402.932 109.879 402.603 109.753 402.267 109.618C401.891 109.472 401.511 109.322 401.124 109.167C400.708 109.009 400.297 108.847 399.87 108.681C399.43 108.511 398.991 108.336 398.54 108.158C397.334 107.684 396.127 107.213 394.916 106.742C393.647 106.244 392.381 105.745 391.111 105.247C390.854 105.144 390.592 105.045 390.327 104.938C389.797 104.728 389.267 104.523 388.737 104.313C387.918 103.993 387.099 103.668 386.28 103.348C382.158 101.726 378.039 100.088 373.925 98.4381C373.628 98.3194 373.332 98.2008 373.027 98.0781C370.4 97.0258 367.777 95.9734 365.15 94.9171C363.785 94.3712 362.421 93.8252 361.06 93.2753C360.312 92.9786 359.564 92.678 358.817 92.3773C358.377 92.1993 357.934 92.0252 357.479 91.8393C357.092 91.685 356.708 91.5307 356.308 91.3724C355.533 91.0164 355.533 91.0164 355.042 91.0401Z" fill="#4071F7"/>
<defs>
<radialGradient id="paint0_radial_226_362" cx="0" cy="0" r="1" gradientUnits="userSpaceOnUse" gradientTransform="translate(256 256) rotate(90) scale(256)">
<stop stop-color="#DCEAFC"/>
<stop offset="1" stop-color="white"/>
</radialGradient>
</defs>
</svg>
