<svg width="512" height="512" viewBox="0 0 512 512" fill="none" xmlns="http://www.w3.org/2000/svg">
<rect width="512" height="512" rx="32" fill="url(#paint0_radial_222_87)"/>
<rect x="190.753" y="51.0797" width="130.493" height="181.241" rx="12" fill="#DCEAFC" stroke="#DCEAFC" stroke-width="8"/>
<rect width="80.3863" height="24" transform="translate(215.807 90.9801)" fill="#DCEAFC"/>
<line x1="221.807" y1="84.9801" x2="290.193" y2="84.9801" stroke="#DCEAFC" stroke-width="12" stroke-linecap="round"/>
<line x1="221.807" y1="108.98" x2="290.193" y2="108.98" stroke="#DCEAFC" stroke-width="12" stroke-linecap="round"/>
<mask id="path-5-inside-1_222_87" fill="white">
<rect x="194.753" y="55.0797" width="122.493" height="173.241" rx="8"/>
</mask>
<rect x="194.753" y="55.0797" width="122.493" height="173.241" rx="8" fill="#4071F7" stroke="#4071F7" stroke-width="24" mask="url(#path-5-inside-1_222_87)"/>
<rect width="80.3863" height="24" transform="translate(215.807 90.9801)" fill="#4071F7"/>
<line x1="221.807" y1="84.9801" x2="290.193" y2="84.9801" stroke="#DCEAFC" stroke-width="12" stroke-linecap="round"/>
<line x1="221.807" y1="108.98" x2="290.193" y2="108.98" stroke="#DCEAFC" stroke-width="12" stroke-linecap="round"/>
<path d="M215.077 172.832C211.898 172.832 209.413 171.947 207.621 170.176C205.829 168.405 204.933 165.877 204.933 162.592V150.048H210.117V162.4C210.117 164.533 210.554 166.069 211.429 167.008C212.303 167.947 213.53 168.416 215.109 168.416C216.687 168.416 217.914 167.947 218.789 167.008C219.663 166.069 220.101 164.533 220.101 162.4V150.048H225.221V162.592C225.221 165.877 224.325 168.405 222.533 170.176C220.741 171.947 218.255 172.832 215.077 172.832ZM237.704 172.832C235.912 172.832 234.194 172.597 232.552 172.128C230.909 171.637 229.586 171.008 228.584 170.24L230.344 166.336C231.304 167.019 232.434 167.584 233.736 168.032C235.058 168.459 236.392 168.672 237.736 168.672C238.76 168.672 239.581 168.576 240.2 168.384C240.84 168.171 241.309 167.883 241.608 167.52C241.906 167.157 242.056 166.741 242.056 166.272C242.056 165.675 241.821 165.205 241.352 164.864C240.882 164.501 240.264 164.213 239.496 164C238.728 163.765 237.874 163.552 236.936 163.36C236.018 163.147 235.09 162.891 234.152 162.592C233.234 162.293 232.392 161.909 231.624 161.44C230.856 160.971 230.226 160.352 229.736 159.584C229.266 158.816 229.032 157.835 229.032 156.64C229.032 155.36 229.373 154.197 230.056 153.152C230.76 152.085 231.805 151.243 233.192 150.624C234.6 149.984 236.36 149.664 238.472 149.664C239.88 149.664 241.266 149.835 242.632 150.176C243.997 150.496 245.202 150.987 246.248 151.648L244.648 155.584C243.602 154.987 242.557 154.549 241.512 154.272C240.466 153.973 239.442 153.824 238.44 153.824C237.437 153.824 236.616 153.941 235.976 154.176C235.336 154.411 234.877 154.72 234.6 155.104C234.322 155.467 234.184 155.893 234.184 156.384C234.184 156.96 234.418 157.429 234.888 157.792C235.357 158.133 235.976 158.411 236.744 158.624C237.512 158.837 238.354 159.051 239.272 159.264C240.21 159.477 241.138 159.723 242.056 160C242.994 160.277 243.848 160.651 244.616 161.12C245.384 161.589 246.002 162.208 246.472 162.976C246.962 163.744 247.208 164.715 247.208 165.888C247.208 167.147 246.856 168.299 246.152 169.344C245.448 170.389 244.392 171.232 242.984 171.872C241.597 172.512 239.837 172.832 237.704 172.832ZM247.038 175.648L257.598 145.504H262.046L251.486 175.648H247.038ZM273.233 172.832C270.054 172.832 267.569 171.947 265.777 170.176C263.985 168.405 263.089 165.877 263.089 162.592V150.048H268.273V162.4C268.273 164.533 268.71 166.069 269.585 167.008C270.46 167.947 271.686 168.416 273.265 168.416C274.844 168.416 276.07 167.947 276.945 167.008C277.82 166.069 278.257 164.533 278.257 162.4V150.048H283.377V162.592C283.377 165.877 282.481 168.405 280.689 170.176C278.897 171.947 276.412 172.832 273.233 172.832ZM293.14 167.328L292.852 161.344L303.572 150.048H309.332L299.668 160.448L296.788 163.52L293.14 167.328ZM288.5 172.448V150.048H293.652V172.448H288.5ZM303.828 172.448L295.86 162.688L299.252 159.008L309.876 172.448H303.828Z" fill="#DCEAFC"/>
<path d="M230.481 324.164V364.995H281.519V324.164L387 218.684V190.612H125V218.684L230.481 324.164Z" fill="#5392F9" stroke="#DCEAFC" stroke-width="8" stroke-linejoin="round"/>
<line x1="128.5" y1="213" x2="387" y2="213" stroke="#DCEAFC" stroke-width="8"/>
<path d="M125 395.155C125 390.737 128.582 387.155 133 387.155H256V422.038H125V395.155Z" fill="#DCEAFC" stroke="#5392F9" stroke-width="8"/>
<path d="M125 422.038H256V456.92H133C128.582 456.92 125 453.339 125 448.92V422.038Z" fill="#DCEAFC" stroke="#5392F9" stroke-width="8"/>
<path d="M256 387.155H379C383.418 387.155 387 390.737 387 395.155V422.038H256V387.155Z" fill="#DCEAFC" stroke="#5392F9" stroke-width="8"/>
<path d="M256 422.038H387V448.92C387 453.339 383.418 456.92 379 456.92H256V422.038Z" fill="#DCEAFC" stroke="#5392F9" stroke-width="8"/>
<path d="M161.434 410.596V397.996H164.35V408.22H170.668V410.596H161.434ZM176.655 410.74C175.623 410.74 174.705 410.524 173.901 410.092C173.109 409.66 172.479 409.072 172.011 408.328C171.555 407.572 171.327 406.714 171.327 405.754C171.327 404.782 171.555 403.924 172.011 403.18C172.479 402.424 173.109 401.836 173.901 401.416C174.705 400.984 175.623 400.768 176.655 400.768C177.675 400.768 178.587 400.984 179.391 401.416C180.195 401.836 180.825 402.418 181.281 403.162C181.737 403.906 181.965 404.77 181.965 405.754C181.965 406.714 181.737 407.572 181.281 408.328C180.825 409.072 180.195 409.66 179.391 410.092C178.587 410.524 177.675 410.74 176.655 410.74ZM176.655 408.436C177.123 408.436 177.543 408.328 177.915 408.112C178.287 407.896 178.581 407.59 178.797 407.194C179.013 406.786 179.121 406.306 179.121 405.754C179.121 405.19 179.013 404.71 178.797 404.314C178.581 403.918 178.287 403.612 177.915 403.396C177.543 403.18 177.123 403.072 176.655 403.072C176.187 403.072 175.767 403.18 175.395 403.396C175.023 403.612 174.723 403.918 174.495 404.314C174.279 404.71 174.171 405.19 174.171 405.754C174.171 406.306 174.279 406.786 174.495 407.194C174.723 407.59 175.023 407.896 175.395 408.112C175.767 408.328 176.187 408.436 176.655 408.436ZM188.522 410.74C187.478 410.74 186.548 410.53 185.732 410.11C184.916 409.678 184.274 409.084 183.806 408.328C183.35 407.572 183.122 406.714 183.122 405.754C183.122 404.782 183.35 403.924 183.806 403.18C184.274 402.424 184.916 401.836 185.732 401.416C186.548 400.984 187.478 400.768 188.522 400.768C189.542 400.768 190.43 400.984 191.186 401.416C191.942 401.836 192.5 402.442 192.86 403.234L190.682 404.404C190.43 403.948 190.112 403.612 189.728 403.396C189.356 403.18 188.948 403.072 188.504 403.072C188.024 403.072 187.592 403.18 187.208 403.396C186.824 403.612 186.518 403.918 186.29 404.314C186.074 404.71 185.966 405.19 185.966 405.754C185.966 406.318 186.074 406.798 186.29 407.194C186.518 407.59 186.824 407.896 187.208 408.112C187.592 408.328 188.024 408.436 188.504 408.436C188.948 408.436 189.356 408.334 189.728 408.13C190.112 407.914 190.43 407.572 190.682 407.104L192.86 408.292C192.5 409.072 191.942 409.678 191.186 410.11C190.43 410.53 189.542 410.74 188.522 410.74ZM200.417 410.596V408.706L200.237 408.292V404.908C200.237 404.308 200.051 403.84 199.679 403.504C199.319 403.168 198.761 403 198.005 403C197.489 403 196.979 403.084 196.475 403.252C195.983 403.408 195.563 403.624 195.215 403.9L194.207 401.938C194.735 401.566 195.371 401.278 196.115 401.074C196.859 400.87 197.615 400.768 198.383 400.768C199.859 400.768 201.005 401.116 201.821 401.812C202.637 402.508 203.045 403.594 203.045 405.07V410.596H200.417ZM197.465 410.74C196.709 410.74 196.061 410.614 195.521 410.362C194.981 410.098 194.567 409.744 194.279 409.3C193.991 408.856 193.847 408.358 193.847 407.806C193.847 407.23 193.985 406.726 194.261 406.294C194.549 405.862 194.999 405.526 195.611 405.286C196.223 405.034 197.021 404.908 198.005 404.908H200.579V406.546H198.311C197.651 406.546 197.195 406.654 196.943 406.87C196.703 407.086 196.583 407.356 196.583 407.68C196.583 408.04 196.721 408.328 196.997 408.544C197.285 408.748 197.675 408.85 198.167 408.85C198.635 408.85 199.055 408.742 199.427 408.526C199.799 408.298 200.069 407.968 200.237 407.536L200.669 408.832C200.465 409.456 200.093 409.93 199.553 410.254C199.013 410.578 198.317 410.74 197.465 410.74ZM205.586 410.596V397.24H208.394V410.596H205.586ZM215.806 410.74C214.702 410.74 213.73 410.524 212.89 410.092C212.062 409.66 211.42 409.072 210.964 408.328C210.508 407.572 210.28 406.714 210.28 405.754C210.28 404.782 210.502 403.924 210.946 403.18C211.402 402.424 212.02 401.836 212.8 401.416C213.58 400.984 214.462 400.768 215.446 400.768C216.394 400.768 217.246 400.972 218.002 401.38C218.77 401.776 219.376 402.352 219.82 403.108C220.264 403.852 220.486 404.746 220.486 405.79C220.486 405.898 220.48 406.024 220.468 406.168C220.456 406.3 220.444 406.426 220.432 406.546H212.566V404.908H218.956L217.876 405.394C217.876 404.89 217.774 404.452 217.57 404.08C217.366 403.708 217.084 403.42 216.724 403.216C216.364 403 215.944 402.892 215.464 402.892C214.984 402.892 214.558 403 214.186 403.216C213.826 403.42 213.544 403.714 213.34 404.098C213.136 404.47 213.034 404.914 213.034 405.43V405.862C213.034 406.39 213.148 406.858 213.376 407.266C213.616 407.662 213.946 407.968 214.366 408.184C214.798 408.388 215.302 408.49 215.878 408.49C216.394 408.49 216.844 408.412 217.228 408.256C217.624 408.1 217.984 407.866 218.308 407.554L219.802 409.174C219.358 409.678 218.8 410.068 218.128 410.344C217.456 410.608 216.682 410.74 215.806 410.74Z" fill="#5392F9"/>
<path d="M280.254 403.072H286.32V405.34H280.254V403.072ZM280.47 408.256H287.328V410.596H277.572V397.996H287.094V400.336H280.47V408.256ZM288.121 410.596L292.459 404.908L292.405 406.456L288.247 400.912H291.397L294.025 404.53L292.837 404.566L295.555 400.912H298.543L294.367 406.402V404.89L298.687 410.596H295.501L292.747 406.744L293.917 406.906L291.181 410.596H288.121ZM304.01 410.74C302.87 410.74 301.982 410.452 301.346 409.876C300.71 409.288 300.392 408.418 300.392 407.266V398.77H303.2V407.23C303.2 407.638 303.308 407.956 303.524 408.184C303.74 408.4 304.034 408.508 304.406 408.508C304.85 408.508 305.228 408.388 305.54 408.148L306.296 410.128C306.008 410.332 305.66 410.488 305.252 410.596C304.856 410.692 304.442 410.74 304.01 410.74ZM298.898 403.288V401.128H305.612V403.288H298.898ZM307.872 410.596V400.912H310.554V403.648L310.176 402.856C310.464 402.172 310.926 401.656 311.562 401.308C312.198 400.948 312.972 400.768 313.884 400.768V403.36C313.764 403.348 313.656 403.342 313.56 403.342C313.464 403.33 313.362 403.324 313.254 403.324C312.486 403.324 311.862 403.546 311.382 403.99C310.914 404.422 310.68 405.1 310.68 406.024V410.596H307.872ZM320.861 410.596V408.706L320.681 408.292V404.908C320.681 404.308 320.495 403.84 320.123 403.504C319.763 403.168 319.205 403 318.449 403C317.933 403 317.423 403.084 316.919 403.252C316.427 403.408 316.007 403.624 315.659 403.9L314.651 401.938C315.179 401.566 315.815 401.278 316.559 401.074C317.303 400.87 318.059 400.768 318.827 400.768C320.303 400.768 321.449 401.116 322.265 401.812C323.081 402.508 323.489 403.594 323.489 405.07V410.596H320.861ZM317.909 410.74C317.153 410.74 316.505 410.614 315.965 410.362C315.425 410.098 315.011 409.744 314.723 409.3C314.435 408.856 314.291 408.358 314.291 407.806C314.291 407.23 314.429 406.726 314.705 406.294C314.993 405.862 315.443 405.526 316.055 405.286C316.667 405.034 317.465 404.908 318.449 404.908H321.023V406.546H318.755C318.095 406.546 317.639 406.654 317.387 406.87C317.147 407.086 317.027 407.356 317.027 407.68C317.027 408.04 317.165 408.328 317.441 408.544C317.729 408.748 318.119 408.85 318.611 408.85C319.079 408.85 319.499 408.742 319.871 408.526C320.243 408.298 320.513 407.968 320.681 407.536L321.113 408.832C320.909 409.456 320.537 409.93 319.997 410.254C319.457 410.578 318.761 410.74 317.909 410.74ZM330.781 410.74C329.737 410.74 328.807 410.53 327.991 410.11C327.175 409.678 326.533 409.084 326.065 408.328C325.609 407.572 325.381 406.714 325.381 405.754C325.381 404.782 325.609 403.924 326.065 403.18C326.533 402.424 327.175 401.836 327.991 401.416C328.807 400.984 329.737 400.768 330.781 400.768C331.801 400.768 332.689 400.984 333.445 401.416C334.201 401.836 334.759 402.442 335.119 403.234L332.941 404.404C332.689 403.948 332.371 403.612 331.987 403.396C331.615 403.18 331.207 403.072 330.763 403.072C330.283 403.072 329.851 403.18 329.467 403.396C329.083 403.612 328.777 403.918 328.549 404.314C328.333 404.71 328.225 405.19 328.225 405.754C328.225 406.318 328.333 406.798 328.549 407.194C328.777 407.59 329.083 407.896 329.467 408.112C329.851 408.328 330.283 408.436 330.763 408.436C331.207 408.436 331.615 408.334 331.987 408.13C332.371 407.914 332.689 407.572 332.941 407.104L335.119 408.292C334.759 409.072 334.201 409.678 333.445 410.11C332.689 410.53 331.801 410.74 330.781 410.74ZM340.836 410.74C339.696 410.74 338.808 410.452 338.172 409.876C337.536 409.288 337.218 408.418 337.218 407.266V398.77H340.026V407.23C340.026 407.638 340.134 407.956 340.35 408.184C340.566 408.4 340.86 408.508 341.232 408.508C341.676 408.508 342.054 408.388 342.366 408.148L343.122 410.128C342.834 410.332 342.486 410.488 342.078 410.596C341.682 410.692 341.268 410.74 340.836 410.74ZM335.724 403.288V401.128H342.438V403.288H335.724ZM349.205 410.74C348.101 410.74 347.129 410.524 346.289 410.092C345.461 409.66 344.819 409.072 344.363 408.328C343.907 407.572 343.679 406.714 343.679 405.754C343.679 404.782 343.901 403.924 344.345 403.18C344.801 402.424 345.419 401.836 346.199 401.416C346.979 400.984 347.861 400.768 348.845 400.768C349.793 400.768 350.645 400.972 351.401 401.38C352.169 401.776 352.775 402.352 353.219 403.108C353.663 403.852 353.885 404.746 353.885 405.79C353.885 405.898 353.879 406.024 353.867 406.168C353.855 406.3 353.843 406.426 353.831 406.546H345.965V404.908H352.355L351.275 405.394C351.275 404.89 351.173 404.452 350.969 404.08C350.765 403.708 350.483 403.42 350.123 403.216C349.763 403 349.343 402.892 348.863 402.892C348.383 402.892 347.957 403 347.585 403.216C347.225 403.42 346.943 403.714 346.739 404.098C346.535 404.47 346.433 404.914 346.433 405.43V405.862C346.433 406.39 346.547 406.858 346.775 407.266C347.015 407.662 347.345 407.968 347.765 408.184C348.197 408.388 348.701 408.49 349.277 408.49C349.793 408.49 350.243 408.412 350.627 408.256C351.023 408.1 351.383 407.866 351.707 407.554L353.201 409.174C352.757 409.678 352.199 410.068 351.527 410.344C350.855 410.608 350.081 410.74 349.205 410.74ZM359.913 410.74C359.001 410.74 358.179 410.536 357.447 410.128C356.715 409.708 356.133 409.126 355.701 408.382C355.281 407.638 355.071 406.762 355.071 405.754C355.071 404.734 355.281 403.852 355.701 403.108C356.133 402.364 356.715 401.788 357.447 401.38C358.179 400.972 359.001 400.768 359.913 400.768C360.729 400.768 361.443 400.948 362.055 401.308C362.667 401.668 363.141 402.214 363.477 402.946C363.813 403.678 363.981 404.614 363.981 405.754C363.981 406.882 363.819 407.818 363.495 408.562C363.171 409.294 362.703 409.84 362.091 410.2C361.491 410.56 360.765 410.74 359.913 410.74ZM360.399 408.436C360.855 408.436 361.269 408.328 361.641 408.112C362.013 407.896 362.307 407.59 362.523 407.194C362.751 406.786 362.865 406.306 362.865 405.754C362.865 405.19 362.751 404.71 362.523 404.314C362.307 403.918 362.013 403.612 361.641 403.396C361.269 403.18 360.855 403.072 360.399 403.072C359.931 403.072 359.511 403.18 359.139 403.396C358.767 403.612 358.467 403.918 358.239 404.314C358.023 404.71 357.915 405.19 357.915 405.754C357.915 406.306 358.023 406.786 358.239 407.194C358.467 407.59 358.767 407.896 359.139 408.112C359.511 408.328 359.931 408.436 360.399 408.436ZM362.937 410.596V408.616L362.991 405.736L362.811 402.874V397.24H365.619V410.596H362.937Z" fill="#5392F9"/>
<rect x="136.75" y="432.538" width="51.5" height="13.8827" rx="4" fill="#5392F9"/>
<rect x="267.25" y="432.538" width="31.25" height="13.8827" rx="4" fill="#5392F9"/>
<rect x="306.5" y="432.538" width="21" height="13.8827" rx="4" fill="#5392F9"/>
<rect x="335.5" y="432.538" width="34" height="13.8827" rx="4" fill="#5392F9"/>
<defs>
<radialGradient id="paint0_radial_222_87" cx="0" cy="0" r="1" gradientUnits="userSpaceOnUse" gradientTransform="translate(256 256) rotate(90) scale(256)">
<stop stop-color="#DCEAFC"/>
<stop offset="1" stop-color="white"/>
</radialGradient>
</defs>
</svg>
