<svg width="512" height="512" viewBox="0 0 512 512" fill="none" xmlns="http://www.w3.org/2000/svg">
<path d="M193 100C194.59 100.86 194.59 100.86 196.22 101.74C205.61 106.85 214.73 112.41 223.88 117.92C232.11 122.88 240.39 127.77 248.69 132.62C249.3 132.98 249.92 133.34 250.55 133.72C251.79 134.44 253.02 135.16 254.25 135.88C254.85 136.23 255.45 136.58 256.07 136.95C256.67 137.29 257.26 137.64 257.88 138C264.12 141.65 270.35 145.34 276.58 149.03C281.91 152.18 287.25 155.32 292.59 158.44C293.25 158.82 293.9 159.21 294.58 159.6C297.81 161.49 301.05 163.38 304.28 165.27C305.47 165.96 306.66 166.65 307.84 167.35C308.89 167.96 309.93 168.56 311.01 169.19C314.07 171.04 317.04 172.99 320 175C318.72 178.84 317.56 179.06 314.02 180.9C312.97 181.45 311.92 182.01 310.84 182.58C309.7 183.17 308.55 183.76 307.38 184.38C304.97 185.64 302.57 186.91 300.17 188.19C299.56 188.51 298.95 188.83 298.32 189.16C292.72 192.13 287.2 195.23 281.69 198.38C273.08 203.28 264.43 208.1 255.75 212.88C253.28 214.24 250.81 215.6 248.34 216.96C247.72 217.29 247.11 217.63 246.48 217.98C236.78 223.32 227.1 228.71 217.42 234.1C212 237.11 206.57 240.13 201.14 243.14C198.37 244.68 195.6 246.22 192.84 247.76C191.84 248.31 190.84 248.85 189.82 249.42C188 250.44 186.21 251.49 184.44 252.57C183.67 253.04 182.9 253.51 182.1 253.99C181.45 254.41 180.79 254.82 180.12 255.25C176.1 256.68 172.83 255.38 169.09 253.66C168.07 253.09 167.06 252.52 166.02 251.93C164.87 251.29 163.72 250.65 162.53 249.99C161.29 249.28 160.05 248.58 158.81 247.88C157.51 247.15 156.22 246.42 154.92 245.7C152.25 244.2 149.58 242.7 146.91 241.2C142.18 238.54 137.43 235.9 132.69 233.27C129.35 231.42 126.01 229.57 122.68 227.71C115.95 223.97 109.23 220.24 102.5 216.5C100.25 215.25 98 214 95.75 212.75C94.64 212.13 93.52 211.51 92.38 210.88C89 209 85.63 207.12 82.25 205.25C80.58 204.32 80.58 204.32 78.87 203.37C76.64 202.13 74.41 200.89 72.18 199.65C66.89 196.72 61.61 193.78 56.32 190.85C53.82 189.47 51.31 188.08 48.81 186.69C47.61 186.03 46.42 185.36 45.22 184.7C43.56 183.79 41.91 182.87 40.25 181.95C39.31 181.43 38.36 180.9 37.39 180.37C35.55 179.32 33.76 178.18 32 177C33.27 173.18 34.45 172.89 37.91 170.95C38.95 170.36 39.99 169.77 41.06 169.17C42.2 168.53 43.33 167.9 44.5 167.25C46.9 165.9 49.29 164.54 51.68 163.18C52.29 162.83 52.9 162.48 53.53 162.12C59.63 158.66 65.63 155.06 71.62 151.44C80.77 145.92 89.96 140.5 99.19 135.13C108.56 129.68 117.9 124.17 127.23 118.64C130.12 116.93 133.02 115.22 135.91 113.51C136.89 112.93 137.87 112.35 138.87 111.76C140.72 110.67 142.57 109.58 144.42 108.49C145.69 107.74 145.69 107.74 146.98 106.97C147.81 106.49 148.64 106 149.49 105.5C151.22 104.47 152.94 103.42 154.65 102.36C166.58 95 180.42 92.53 193 100Z" fill="#DEDEDE"/>
<path d="M320 192C320.09 209.32 320.16 226.63 320.21 243.95C320.23 251.99 320.26 260.03 320.3 268.07C320.34 275.08 320.37 282.09 320.38 289.1C320.38 292.81 320.39 296.52 320.42 300.23C320.46 304.38 320.46 308.53 320.45 312.68C320.47 313.9 320.48 315.12 320.5 316.38C320.45 326.43 318.04 333.71 311.05 341.03C304.15 347.65 294.96 352.04 286.75 356.81C285.47 357.56 284.2 358.3 282.92 359.05C280.28 360.59 277.63 362.14 274.98 363.68C269.28 367 263.58 370.34 257.89 373.68C256.06 374.75 254.22 375.83 252.39 376.9C244.39 381.59 236.4 386.3 228.42 391.03C219.17 396.5 209.9 401.93 200.63 407.35C200.03 407.71 199.43 408.06 198.81 408.42C197.16 409.38 195.52 410.34 193.88 411.31C191.99 412.42 190.11 413.56 188.25 414.72C186 416 186 416 184 416C183.6 396.88 183.3 377.75 183.12 358.63C183.03 349.75 182.91 340.87 182.72 331.99C182.55 324.24 182.44 316.5 182.4 308.76C182.38 304.66 182.33 300.56 182.2 296.47C181.48 271.56 181.48 271.56 185.65 265.68C189.58 262.12 193.9 260.23 198.92 258.69C202 257.67 204.55 256.1 207.32 254.42C209.25 253.34 211.19 252.26 213.12 251.19C215.28 249.98 217.44 248.78 219.59 247.58C220.66 246.98 221.73 246.39 222.83 245.77C227.77 243.01 232.7 240.22 237.62 237.44C238.57 236.9 239.51 236.37 240.48 235.82C243.32 234.22 246.16 232.61 249 231C261.9 223.7 274.81 216.42 287.75 209.19C292.91 206.31 298.06 203.4 303.18 200.45C304.15 199.89 305.12 199.33 306.12 198.75C307.96 197.69 309.8 196.62 311.63 195.55C312.44 195.09 313.25 194.62 314.09 194.13C314.8 193.72 315.51 193.31 316.24 192.88C318 192 318 192 320 192Z" fill="#DEDEDE"/>
<path d="M32 192C35.85 193.25 39.29 194.56 42.81 196.58C43.71 197.1 44.61 197.61 45.54 198.14C46.49 198.69 47.45 199.24 48.44 199.81C50.51 201 52.58 202.18 54.65 203.36C56.24 204.27 56.24 204.27 57.85 205.2C62.72 207.99 67.61 210.74 72.5 213.5C74.42 214.58 76.34 215.67 78.26 216.75C79.68 217.56 79.68 217.56 81.13 218.38C83.98 219.99 86.83 221.6 89.68 223.21C99.65 228.86 109.63 234.47 119.62 240.06C127.47 244.45 135.31 248.86 143.12 253.31C143.9 253.76 144.68 254.2 145.49 254.65C147.04 255.54 148.57 256.46 150.07 257.41C153.04 259.15 153.04 259.15 156.74 260.09C161.51 261.72 165.18 263.7 168 268C170.74 277.81 169.79 288.7 169.52 298.8C169.43 302.92 169.42 307.05 169.4 311.17C169.35 318.97 169.23 326.77 169.08 334.56C168.91 343.45 168.83 352.33 168.75 361.21C168.6 379.48 168.33 397.74 168 416C163.82 414.37 159.96 412.41 156.06 410.19C155.37 409.79 154.68 409.4 153.96 409C146.31 404.64 138.75 400.15 131.18 395.66C124.3 391.58 117.4 387.54 110.5 383.5C101.13 378.01 91.75 372.52 82.42 366.96C77.78 364.21 73.13 361.49 68.44 358.82C65.81 357.32 63.19 355.81 60.57 354.3C59.29 353.57 58.02 352.84 56.74 352.12C45.06 345.54 36.34 339.02 32 326C31.91 324.19 31.88 322.37 31.88 320.55C31.88 319.42 31.88 318.29 31.88 317.12C31.88 315.26 31.88 315.26 31.89 313.36C31.89 312.05 31.89 310.74 31.89 309.4C31.89 305.81 31.89 302.22 31.9 298.64C31.9 294.89 31.91 291.14 31.91 287.39C31.91 280.3 31.92 273.2 31.93 266.1C31.94 258.02 31.94 249.94 31.95 241.86C31.96 225.24 31.98 208.62 32 192Z" fill="#DEDEDE"/>
<path d="M401.562 383.482C402.292 383.472 403.032 383.472 403.782 383.462C406.192 383.442 408.592 383.452 411.002 383.472C412.682 383.462 414.362 383.462 416.042 383.452C419.562 383.452 423.072 383.462 426.592 383.482C431.092 383.502 435.592 383.492 440.092 383.462C443.562 383.452 447.032 383.452 450.502 383.462C452.152 383.462 453.812 383.462 455.472 383.452C457.792 383.442 460.112 383.462 462.442 383.482C463.752 383.482 465.072 383.492 466.432 383.492C471.952 384.282 474.802 386.582 478.342 390.772C480.332 394.642 480.502 397.232 480.522 401.562C480.522 402.292 480.532 403.032 480.542 403.782C480.552 406.192 480.542 408.592 480.532 411.002C480.532 412.682 480.542 414.362 480.542 416.042C480.552 419.562 480.542 423.072 480.522 426.592C480.502 431.092 480.512 435.592 480.532 440.092C480.552 443.562 480.542 447.032 480.532 450.502C480.532 452.152 480.532 453.812 480.542 455.472C480.552 457.792 480.542 460.112 480.522 462.442C480.512 463.752 480.512 465.072 480.512 466.432C479.722 471.952 477.422 474.802 473.222 478.342C469.362 480.332 466.772 480.502 462.442 480.522C461.702 480.522 460.972 480.532 460.222 480.542C457.812 480.552 455.402 480.542 453.002 480.532C451.322 480.532 449.642 480.542 447.952 480.542C444.442 480.552 440.922 480.542 437.402 480.522C432.902 480.502 428.412 480.512 423.912 480.532C420.442 480.552 416.972 480.542 413.502 480.532C411.842 480.532 410.182 480.532 408.522 480.542C406.202 480.552 403.882 480.542 401.562 480.522C400.242 480.512 398.922 480.512 397.562 480.512C392.262 479.752 389.222 477.322 385.642 473.462C383.282 468.482 383.572 464.052 383.752 458.622C383.772 457.602 383.782 456.582 383.802 455.522C383.852 453.012 383.912 450.512 384.002 448.002C382.412 448.022 382.412 448.022 380.792 448.042C370.802 448.162 360.812 448.252 350.822 448.312C345.692 448.342 340.552 448.382 335.422 448.452C330.462 448.522 325.502 448.552 320.542 448.572C318.652 448.582 316.762 448.602 314.882 448.632C296.272 448.942 296.272 448.942 289.002 442.002C288.122 441.362 287.252 440.732 286.352 440.072C285.642 439.522 284.932 438.972 284.192 438.402C283.372 437.772 282.552 437.142 281.702 436.492C280.852 435.832 280.002 435.182 279.122 434.502C265.582 424.112 251.832 414.002 238.002 404.002C239.762 398.712 245.692 396.622 250.332 393.882C252.242 392.752 254.122 391.602 256.012 390.452C257.222 389.732 258.432 389.012 259.642 388.292C260.742 387.642 261.842 386.982 262.972 386.312C266.372 384.842 267.582 384.702 271.002 386.002C273.212 387.372 273.212 387.372 275.452 389.142C276.302 389.802 277.152 390.462 278.022 391.142C278.902 391.832 279.782 392.532 280.682 393.252C283.362 395.352 286.042 397.422 288.772 399.452C291.182 401.272 293.262 403.252 295.382 405.402C309.592 418.812 327.242 416.722 345.542 416.352C349.882 416.282 354.232 416.282 358.572 416.282C367.052 416.262 375.522 416.152 384.002 416.002C383.982 415.362 383.962 414.732 383.932 414.072C383.852 411.172 383.802 408.272 383.752 405.372C383.712 404.372 383.682 403.372 383.652 402.352C383.572 396.392 383.752 392.572 388.002 388.002C392.632 384.322 395.682 383.492 401.562 383.482ZM418.622 423.622C416.422 428.202 416.202 432.002 417.002 437.002C419.332 441.842 422.162 444.672 427.002 447.002C431.992 447.792 435.792 447.582 440.372 445.372C443.962 442.132 446.592 439.532 447.382 434.602C447.642 428.922 446.932 425.352 443.002 421.002C438.652 417.062 435.082 416.362 429.402 416.612C424.462 417.402 421.872 420.042 418.622 423.622Z" fill="#DEDEDE"/>
<path d="M401.562 31.4824C402.292 31.4724 403.032 31.4724 403.782 31.4624C406.192 31.4424 408.592 31.4524 411.002 31.4724C412.682 31.4624 414.362 31.4624 416.042 31.4524C419.562 31.4524 423.072 31.4624 426.592 31.4824C431.092 31.5024 435.592 31.4924 440.092 31.4624C443.562 31.4524 447.032 31.4524 450.502 31.4624C452.152 31.4624 453.812 31.4624 455.472 31.4524C457.792 31.4424 460.112 31.4624 462.442 31.4824C463.752 31.4824 465.072 31.4924 466.432 31.4924C471.952 32.2824 474.802 34.5824 478.342 38.7724C480.332 42.6424 480.502 45.2324 480.522 49.5624C480.522 50.2924 480.532 51.0324 480.542 51.7824C480.552 54.1924 480.542 56.5924 480.532 59.0024C480.532 60.6824 480.542 62.3624 480.542 64.0424C480.552 67.5624 480.542 71.0724 480.522 74.5924C480.502 79.0924 480.512 83.5924 480.532 88.0924C480.552 91.5624 480.542 95.0324 480.532 98.5024C480.532 100.152 480.532 101.812 480.542 103.472C480.552 105.792 480.542 108.112 480.522 110.442C480.512 111.752 480.512 113.072 480.512 114.432C479.722 119.952 477.422 122.802 473.222 126.342C469.362 128.332 466.772 128.502 462.442 128.522C461.702 128.522 460.972 128.532 460.222 128.542C457.812 128.552 455.402 128.542 453.002 128.532C451.322 128.532 449.642 128.542 447.952 128.542C444.442 128.552 440.922 128.542 437.402 128.522C432.902 128.502 428.412 128.512 423.912 128.532C420.442 128.552 416.972 128.542 413.502 128.532C411.842 128.532 410.182 128.532 408.522 128.542C406.202 128.552 403.882 128.542 401.562 128.522C400.242 128.512 398.922 128.512 397.562 128.512C392.262 127.752 389.222 125.322 385.642 121.462C383.282 116.482 383.572 112.052 383.752 106.622C383.772 105.602 383.782 104.582 383.802 103.522C383.852 101.012 383.912 98.5124 384.002 96.0024C374.682 95.8024 365.362 95.6924 356.042 95.6624C351.712 95.6524 347.382 95.6124 343.052 95.5124C316.722 94.5324 316.722 94.5324 294.602 107.362C293.992 107.992 293.382 108.612 292.742 109.252C290.252 111.742 287.542 113.782 284.722 115.902C282.132 117.952 279.542 120.002 276.972 122.082C276.132 122.742 275.282 123.412 274.412 124.092C273.682 124.672 272.952 125.262 272.192 125.862C270.002 127.002 270.002 127.002 267.612 126.882C264.452 125.812 261.752 124.382 258.862 122.722C258.012 122.242 258.012 122.242 257.142 121.742C255.942 121.062 254.752 120.372 253.572 119.682C251.752 118.622 249.922 117.582 248.082 116.542C246.922 115.882 245.772 115.212 244.612 114.542C243.552 113.932 242.502 113.322 241.422 112.702C239.002 111.002 239.002 111.002 238.002 108.002C238.462 107.662 238.932 107.322 239.412 106.972C248.862 100.052 258.262 93.0624 267.562 85.9424C274.372 80.7224 281.232 75.5824 288.182 70.5624C289.332 69.7424 289.332 69.7424 290.492 68.8924C296.052 64.9024 299.172 63.8524 306.122 63.8824C306.962 63.8824 307.802 63.8824 308.662 63.8824C311.442 63.8824 314.222 63.8924 317.012 63.9024C318.932 63.9024 320.862 63.9024 322.782 63.9024C327.852 63.9124 332.932 63.9224 338.002 63.9324C343.182 63.9424 348.352 63.9424 353.522 63.9524C363.682 63.9624 373.842 63.9824 384.002 64.0024C383.982 63.3624 383.962 62.7324 383.932 62.0724C383.852 59.1724 383.802 56.2724 383.752 53.3724C383.712 52.3724 383.682 51.3724 383.652 50.3524C383.572 44.3924 383.752 40.5724 388.002 36.0024C392.632 32.3224 395.682 31.4924 401.562 31.4824ZM418.622 71.6224C416.422 76.2024 416.202 80.0024 417.002 85.0024C419.332 89.8424 422.162 92.6724 427.002 95.0024C431.992 95.7924 435.792 95.5824 440.372 93.3724C443.962 90.1324 446.592 87.5324 447.382 82.6024C447.642 76.9224 446.932 73.3524 443.002 69.0024C438.652 65.0624 435.082 64.3624 429.402 64.6124C424.462 65.4024 421.872 68.0424 418.622 71.6224Z" fill="#DEDEDE"/>
<path d="M401.562 207.482C402.292 207.472 403.032 207.472 403.782 207.462C406.192 207.442 408.592 207.452 411.002 207.472C412.682 207.462 414.362 207.462 416.042 207.452C419.562 207.452 423.072 207.462 426.592 207.482C431.092 207.502 435.592 207.492 440.092 207.462C443.562 207.452 447.032 207.452 450.502 207.462C452.152 207.462 453.812 207.462 455.472 207.452C457.792 207.442 460.112 207.462 462.442 207.482C463.752 207.482 465.072 207.492 466.432 207.492C471.952 208.282 474.802 210.582 478.342 214.772C480.332 218.642 480.502 221.232 480.522 225.562C480.522 226.292 480.532 227.032 480.542 227.782C480.552 230.192 480.542 232.592 480.532 235.002C480.532 236.682 480.542 238.362 480.542 240.042C480.552 243.562 480.542 247.072 480.522 250.592C480.502 255.092 480.512 259.592 480.532 264.092C480.552 267.562 480.542 271.032 480.532 274.502C480.532 276.152 480.532 277.812 480.542 279.472C480.552 281.792 480.542 284.112 480.522 286.442C480.512 287.752 480.512 289.072 480.512 290.432C479.722 295.952 477.422 298.802 473.222 302.342C469.362 304.332 466.772 304.502 462.442 304.522C461.702 304.522 460.972 304.532 460.222 304.542C457.812 304.552 455.402 304.542 453.002 304.532C451.322 304.532 449.642 304.542 447.952 304.542C444.442 304.552 440.922 304.542 437.402 304.522C432.902 304.502 428.412 304.512 423.912 304.532C420.442 304.552 416.972 304.542 413.502 304.532C411.842 304.532 410.182 304.532 408.522 304.542C406.202 304.552 403.882 304.542 401.562 304.522C400.242 304.512 398.922 304.512 397.562 304.512C393.312 303.902 391.272 302.762 388.002 300.002C384.002 294.002 384.002 294.002 384.002 272.002C368.162 272.002 352.322 272.002 336.002 272.002C336.002 261.442 336.002 250.882 336.002 240.002C351.842 240.002 367.682 240.002 384.002 240.002C384.002 232.742 384.002 225.482 384.002 218.002C389.162 210.252 392.252 207.502 401.562 207.482ZM418.622 247.622C416.422 252.202 416.202 256.002 417.002 261.002C419.332 265.842 422.162 268.672 427.002 271.002C431.992 271.792 435.792 271.582 440.372 269.372C443.962 266.132 446.592 263.532 447.382 258.602C447.642 252.922 446.932 249.352 443.002 245.002C438.652 241.062 435.082 240.362 429.402 240.612C424.462 241.402 421.872 244.042 418.622 247.622Z" fill="#DEDEDE"/>
</svg>
