<svg width="512" height="512" viewBox="0 0 512 512" fill="none" xmlns="http://www.w3.org/2000/svg">
<rect width="512" height="512" rx="32" fill="url(#paint0_radial_225_194)"/>
<path d="M260.655 57.3207C263.845 58.6785 266.444 60.6571 269.191 62.7521C270.16 63.4737 271.13 64.1953 272.1 64.9169C274.226 66.492 276.345 68.0904 278.455 69.6888C281.799 72.226 285.19 74.7012 288.651 77.0833C290.738 78.5187 292.608 79.9541 294.416 81.7388C297.651 84.7726 300.227 86.208 304.681 86.146C308.537 85.8977 312.355 85.3856 316.18 84.8424C321.084 84.1751 326.003 83.7096 330.922 83.2208C331.877 83.1121 332.823 83.0113 333.801 82.9026C351.5 81.0327 351.5 81.0327 356.14 83.3139C360.593 87.1003 362.913 92.4542 365.202 97.7381C365.458 98.3201 365.722 98.902 365.986 99.5072C366.801 101.346 367.608 103.193 368.415 105.04C368.942 106.25 369.478 107.468 370.013 108.679C370.277 109.276 370.541 109.873 370.812 110.486C371.34 111.689 371.875 112.892 372.418 114.087C373.706 116.973 374.886 119.821 375.848 122.831C377.671 128.239 379.371 131.902 384.546 134.695C387.471 136.068 390.458 137.217 393.485 138.357C394.749 138.869 396.014 139.382 397.271 139.901C399.746 140.918 402.221 141.911 404.704 142.889C408.98 144.565 413.162 146.404 417.344 148.297C417.941 148.553 418.539 148.817 419.16 149.08C424.335 151.369 427.501 153.604 429.805 158.966C431.279 169.596 428.696 181.335 427.524 191.911C427.245 194.448 426.973 196.993 426.701 199.538C426.608 200.314 426.523 201.09 426.43 201.889C426.352 202.619 426.275 203.34 426.197 204.093C426.089 205.04 426.089 205.04 425.98 206.009C425.879 209.462 426.577 211.922 428.626 214.669C429.231 215.491 429.231 215.491 429.844 216.329C430.278 216.903 430.713 217.485 431.163 218.083C432.086 219.332 433.01 220.581 433.925 221.83C434.639 222.792 434.639 222.792 435.361 223.77C437.611 226.804 439.814 229.861 442.026 232.918C442.445 233.5 442.856 234.074 443.291 234.664C455.822 252.037 455.822 252.037 454.634 260.611C453.277 263.8 451.298 266.399 449.203 269.146C448.497 270.092 447.799 271.031 447.1 271.978C445.533 274.073 443.958 276.16 442.375 278.247C439.434 282.142 436.625 286.138 433.824 290.142C433.467 290.654 433.111 291.166 432.746 291.694C432.42 292.175 432.086 292.648 431.753 293.145C430.581 294.751 430.581 294.751 429.347 296.14C426.958 298.894 425.6 300.881 425.669 304.605C425.794 305.932 425.949 307.266 426.12 308.593C426.197 309.307 426.267 310.013 426.345 310.75C426.585 313.016 426.864 315.282 427.136 317.547C427.307 319.06 427.47 320.573 427.633 322.086C427.935 324.887 428.246 327.681 428.579 330.474C431.031 351.191 431.031 351.191 428.734 356.048C422.892 362.729 413.146 365.755 405.17 369.239C403.952 369.774 402.733 370.31 401.515 370.853C400.918 371.117 400.32 371.38 399.707 371.644C398.512 372.172 397.318 372.707 396.123 373.243C393.422 374.453 390.769 375.563 387.929 376.401C382.854 378.069 379.906 379.714 377.408 384.424C376.034 387.364 374.863 390.359 373.699 393.385C373.179 394.658 372.651 395.923 372.124 397.187C371.099 399.67 370.083 402.153 369.09 404.652C367.39 408.911 365.544 413.109 363.658 417.299C363.402 417.897 363.138 418.494 362.875 419.115C360.578 424.29 358.359 427.456 352.989 429.76C343.058 431.141 332.125 428.845 322.248 427.774C318.741 427.394 315.241 427.021 311.742 426.657C310.943 426.563 310.143 426.478 309.321 426.385C308.576 426.307 307.839 426.23 307.071 426.152C306.101 426.044 306.101 426.044 305.108 425.935C301.841 425.834 299.839 426.757 297.248 428.666C296.689 429.077 296.123 429.489 295.541 429.915C294.943 430.358 294.346 430.808 293.725 431.266C292.46 432.189 291.196 433.12 289.931 434.043C288.992 434.734 288.992 434.734 288.038 435.44C285.632 437.201 283.211 438.939 280.783 440.67C280.356 440.972 279.937 441.275 279.502 441.585C278.137 442.555 276.764 443.533 275.398 444.503C274.831 444.906 274.257 445.31 273.675 445.729C271.86 447.017 270.036 448.305 268.221 449.593C267.646 450.004 267.072 450.407 266.483 450.826C265.947 451.207 265.412 451.587 264.861 451.975C264.147 452.479 264.147 452.479 263.426 452.991C259.74 455.482 255.628 455.179 251.345 454.59C248.155 453.232 245.556 451.253 242.809 449.158C241.863 448.452 240.924 447.754 239.977 447.055C237.882 445.488 235.795 443.913 233.708 442.33C229.813 439.389 225.817 436.581 221.813 433.78C221.301 433.423 220.789 433.066 220.261 432.701C219.78 432.375 219.307 432.041 218.81 431.708C217.204 430.536 217.204 430.536 215.808 429.302C213.076 426.944 211.106 425.547 207.428 425.625C206.124 425.749 204.828 425.904 203.533 426.075C202.842 426.152 202.144 426.222 201.422 426.3C199.211 426.54 197.007 426.82 194.796 427.091C193.322 427.262 191.847 427.425 190.373 427.588C187.642 427.89 184.911 428.201 182.179 428.534C160.873 431.11 160.873 431.11 155.814 428.596C151.414 424.771 149.087 419.441 146.798 414.172C146.41 413.295 146.41 413.295 146.014 412.403C145.199 410.564 144.392 408.717 143.585 406.871C143.058 405.66 142.522 404.442 141.987 403.232C141.723 402.634 141.459 402.037 141.188 401.424C140.66 400.221 140.125 399.018 139.582 397.824C138.294 394.937 137.114 392.09 136.152 389.079C134.329 383.671 132.629 380.009 127.454 377.215C124.529 375.842 121.542 374.694 118.515 373.553C117.251 373.041 115.986 372.529 114.729 372.009C112.254 370.992 109.779 369.999 107.296 369.022C103.02 367.346 98.8383 365.507 94.6561 363.613C94.0586 363.357 93.4612 363.094 92.8404 362.83C87.6651 360.541 84.4993 358.306 82.1949 352.945C80.7206 342.315 83.3044 330.575 84.4761 319.999C84.7554 317.462 85.027 314.917 85.2985 312.372C85.3916 311.596 85.477 310.82 85.5701 310.021C85.6865 308.935 85.6865 308.935 85.8029 307.817C85.8805 307.189 85.9503 306.553 86.0201 305.901C86.121 302.448 85.4227 299.988 83.3743 297.242C82.9708 296.691 82.5673 296.148 82.1561 295.581C81.7216 295.007 81.287 294.425 80.837 293.828C79.9137 292.578 78.9903 291.329 78.0748 290.08C77.6014 289.436 77.1281 288.8 76.6393 288.14C74.3891 285.106 72.1855 282.049 69.9742 278.992C69.3457 278.123 69.3457 278.123 68.7094 277.246C56.1784 259.874 56.1784 259.874 57.3656 251.3C58.7234 248.111 60.702 245.511 62.797 242.765C63.5186 241.795 64.2402 240.825 64.9618 239.855C66.5369 237.729 68.1353 235.611 69.7337 233.5C72.2709 230.156 74.7461 226.765 77.1281 223.305C78.5636 221.217 79.999 219.347 81.7836 217.54C84.8175 214.304 86.2529 211.728 86.1908 207.274C85.9425 203.418 85.4304 199.6 84.8873 195.775C84.22 190.871 83.7545 185.952 83.2656 181.033C83.157 180.078 83.0561 179.132 82.9475 178.154C81.0775 160.455 81.0775 160.455 83.3587 155.815C87.1452 151.362 92.499 149.042 97.783 146.753C98.3649 146.497 98.9469 146.233 99.5521 145.969C101.391 145.154 103.238 144.347 105.084 143.54C106.295 143.013 107.513 142.477 108.723 141.942C109.616 141.546 109.616 141.546 110.531 141.143C111.734 140.615 112.937 140.08 114.132 139.537C117.018 138.249 119.866 137.069 122.876 136.107C128.284 134.284 131.947 132.585 134.74 127.409C136.113 124.484 137.262 121.497 138.402 118.471C138.914 117.206 139.426 115.941 139.946 114.684C140.963 112.209 141.956 109.734 142.934 107.251C144.61 102.976 146.448 98.7934 148.342 94.6112C148.598 94.0137 148.862 93.4163 149.125 92.7956C151.414 87.6202 153.649 84.4545 159.011 82.15C169.641 80.6757 181.38 83.2595 191.956 84.4312C194.493 84.7105 197.038 84.9821 199.583 85.2537C200.747 85.3933 200.747 85.3933 201.934 85.5252C203.02 85.6416 203.02 85.6416 204.138 85.758C204.766 85.8356 205.403 85.9054 206.054 85.9753C210.461 86.1072 213.146 84.532 216.576 81.956C217.538 81.2499 218.508 80.5361 219.478 79.83C219.99 79.4498 220.502 79.0696 221.029 78.6816C223.831 76.6177 226.655 74.5848 229.471 72.5442C230.34 71.9157 230.34 71.9157 231.233 71.2794C235.462 68.2223 239.714 65.1885 243.973 62.1702C244.819 61.5727 244.819 61.5727 245.673 60.9597C250.871 57.2974 254.262 56.4361 260.655 57.3207Z" fill="#5392F9"/>
<path d="M316.18 84.8424C312.355 85.3856 308.537 85.8977 304.681 86.146L319 138L362 164L369 209L398 252L382 289L383 330L349 347L331 378L301 387L295.541 429.916C296.123 429.489 296.689 429.077 297.248 428.666C299.839 426.758 301.841 425.834 305.108 425.935L305.142 425.939C306.101 426.044 306.112 426.045 307.071 426.152C307.689 426.215 308.287 426.277 308.885 426.34L309.321 426.385C310.143 426.478 310.943 426.564 311.742 426.657C315.241 427.021 318.741 427.394 322.248 427.774C332.125 428.845 343.058 431.141 352.989 429.76C358.359 427.456 360.578 424.29 362.875 419.115C363.138 418.494 363.402 417.897 363.658 417.299C365.544 413.109 367.39 408.911 369.09 404.652C370.083 402.153 371.099 399.67 372.124 397.187L372.126 397.182C372.653 395.919 373.18 394.656 373.699 393.385C374.863 390.359 376.034 387.364 377.408 384.424C379.906 379.714 382.854 378.069 387.929 376.401C390.769 375.563 393.422 374.453 396.123 373.243L396.124 373.242C397.319 372.707 398.513 372.172 399.707 371.644C400.32 371.38 400.918 371.117 401.515 370.853C402.732 370.31 403.95 369.775 405.167 369.24L405.17 369.239C413.146 365.755 422.892 362.729 428.734 356.048C431.031 351.191 431.031 351.191 428.579 330.475L428.579 330.474C428.246 327.681 427.935 324.888 427.633 322.086L427.629 322.058C427.468 320.555 427.306 319.051 427.136 317.547C426.864 315.282 426.585 313.016 426.345 310.75C426.267 310.013 426.197 309.307 426.12 308.593C425.949 307.266 425.794 305.932 425.669 304.605C425.6 300.881 426.958 298.894 429.347 296.14C430.581 294.751 430.581 294.751 431.752 293.146L431.753 293.145C432.086 292.648 432.42 292.175 432.746 291.694C433.108 291.17 433.463 290.661 433.817 290.152L433.824 290.142C436.625 286.138 439.434 282.142 442.375 278.247C443.958 276.16 445.533 274.073 447.1 271.978C447.799 271.031 448.497 270.092 449.203 269.146C451.298 266.399 453.277 263.8 454.634 260.611C455.822 252.037 455.822 252.037 443.291 234.664C442.856 234.074 442.445 233.5 442.026 232.918C439.814 229.861 437.611 226.804 435.361 223.77C434.644 222.799 434.639 222.793 433.94 221.851L433.925 221.83C433.01 220.581 432.086 219.332 431.163 218.083C430.713 217.485 430.278 216.903 429.844 216.329L429.831 216.311C429.231 215.491 429.227 215.485 428.626 214.669C426.577 211.922 425.879 209.462 425.98 206.009C426.088 205.04 426.088 205.04 426.197 204.094L426.197 204.093C426.275 203.34 426.352 202.619 426.43 201.889C426.523 201.09 426.608 200.314 426.701 199.538L426.704 199.513C426.975 196.976 427.246 194.44 427.524 191.911C428.696 181.335 431.279 169.596 429.805 158.966C427.501 153.604 424.335 151.369 419.16 149.081C418.539 148.817 417.941 148.553 417.344 148.297C413.162 146.404 408.98 144.565 404.704 142.889C402.221 141.911 399.746 140.918 397.271 139.901C396.015 139.382 394.751 138.87 393.487 138.358L393.484 138.357C390.458 137.217 387.471 136.068 384.546 134.695C379.371 131.902 377.671 128.239 375.848 122.831C374.886 119.821 373.706 116.973 372.418 114.087C371.875 112.892 371.34 111.689 370.812 110.486C370.541 109.873 370.277 109.276 370.013 108.679C369.478 107.468 368.942 106.25 368.415 105.04C367.608 103.193 366.801 101.346 365.986 99.5072C365.722 98.902 365.458 98.3201 365.202 97.7381C362.913 92.4542 360.593 87.1003 356.14 83.3139C351.5 81.0327 351.5 81.0327 333.801 82.9026C332.823 83.0113 331.877 83.1121 330.922 83.2208C326.003 83.7096 321.084 84.1751 316.18 84.8424Z" fill="#4071F7"/>
<path d="M125.076 252.772H156.084V267.46H125.076V252.772ZM126.42 290.5H107.412V223.3H160.116V237.988H126.42V290.5ZM185.326 290.5V223.3H216.046C222.19 223.3 227.47 224.292 231.886 226.276C236.366 228.26 239.822 231.14 242.254 234.916C244.686 238.628 245.902 243.044 245.902 248.164C245.902 253.22 244.686 257.604 242.254 261.316C239.822 264.964 236.366 267.78 231.886 269.764C227.47 271.684 222.19 272.644 216.046 272.644H195.886L204.334 264.676V290.5H185.326ZM226.894 290.5L210.19 266.02H230.446L247.246 290.5H226.894ZM204.334 266.692L195.886 257.956H214.894C218.862 257.956 221.806 257.092 223.726 255.364C225.71 253.636 226.702 251.236 226.702 248.164C226.702 245.028 225.71 242.596 223.726 240.868C221.806 239.14 218.862 238.276 214.894 238.276H195.886L204.334 229.54V266.692ZM290.18 249.316H321.38V263.524H290.18V249.316ZM291.524 275.812H326.66V290.5H272.708V223.3H325.412V237.988H291.524V275.812ZM371 249.316H402.2V263.524H371V249.316ZM372.344 275.812H407.48V290.5H353.528V223.3H406.232V237.988H372.344V275.812Z" fill="white"/>
<defs>
<radialGradient id="paint0_radial_225_194" cx="0" cy="0" r="1" gradientUnits="userSpaceOnUse" gradientTransform="translate(256 256) rotate(90) scale(256)">
<stop stop-color="#DCEAFC"/>
<stop offset="1" stop-color="white"/>
</radialGradient>
</defs>
</svg>
