<svg width="512" height="512" viewBox="0 0 512 512" fill="none" xmlns="http://www.w3.org/2000/svg">
<g clip-path="url(#clip0_235_24)">
<path d="M284.37 8.20677C288.84 11.2568 292.53 14.9768 296.32 18.8168C297.21 19.6968 298.09 20.5668 299 21.4668C301.42 23.8868 303.84 26.3068 306.25 28.7268C308.86 31.3468 311.48 33.9568 314.11 36.5668C319.23 41.6768 324.35 46.7968 329.46 51.9168C333.61 56.0768 337.77 60.2368 341.93 64.3968C342.53 64.9968 343.12 65.5868 343.73 66.1968C344.94 67.3968 346.15 68.6068 347.35 69.8068C358.65 81.0968 369.93 92.3868 381.21 103.687C390.88 113.377 400.55 123.047 410.24 132.717C421.5 143.957 432.76 155.207 444 166.457C445.2 167.667 446.4 168.867 447.6 170.067C448.19 170.657 448.78 171.247 449.39 171.857C453.54 176.007 457.7 180.157 461.85 184.307C466.92 189.367 471.99 194.437 477.04 199.507C479.62 202.097 482.2 204.677 484.78 207.257C487.59 210.047 490.39 212.867 493.18 215.677C494 216.477 494.81 217.287 495.64 218.107C506.3 228.917 512.34 240.767 512.5 255.997C512.42 263.657 511.62 270.127 508 276.997C507.59 277.847 507.17 278.687 506.75 279.567C500.54 291.127 490.57 298.047 478.37 302.247C472.94 303.457 467.79 304.057 462.24 304.027C461.04 304.017 461.04 304.017 459.82 304.017C459.22 304.007 458.62 304.007 458 303.997C458 305.177 458 305.177 458.01 306.387C458.05 325.577 458.08 344.767 458.1 363.957C458.11 373.237 458.13 382.517 458.15 391.797C458.17 399.887 458.18 407.987 458.19 416.077C458.19 420.357 458.2 424.637 458.21 428.917C458.22 432.957 458.23 436.997 458.23 441.037C458.23 442.507 458.23 443.987 458.24 445.457C458.34 465.177 455.12 482.107 441.5 497.067C426.51 511.387 409.52 512.467 389.88 512.397C387.74 512.397 385.59 512.407 383.44 512.407C378.96 512.407 374.48 512.407 370 512.387C364.26 512.377 358.52 512.387 352.78 512.407C348.36 512.417 343.93 512.407 339.51 512.397C337.39 512.397 335.27 512.407 333.16 512.407C330.2 512.417 327.25 512.407 324.3 512.387C323.43 512.397 322.55 512.397 321.66 512.407C316.94 512.357 313.84 512.047 310 508.997C306.31 504.797 304.88 502.507 304.86 496.957C304.86 495.897 304.85 494.827 304.85 493.727C304.84 492.557 304.84 491.377 304.84 490.167C304.84 488.927 304.83 487.697 304.83 486.427C304.82 483.737 304.81 481.047 304.8 478.357C304.79 474.097 304.77 469.847 304.75 465.587C304.69 453.477 304.63 441.367 304.6 429.257C304.58 422.567 304.55 415.887 304.51 409.197C304.49 405.667 304.47 402.127 304.47 398.597C304.47 394.647 304.44 390.697 304.42 386.737C304.42 385.577 304.42 384.417 304.43 383.217C304.33 373.787 302.79 365.007 296 357.997C290.68 354.067 285.84 352.887 279.35 352.837C278.21 352.827 277.08 352.817 275.91 352.807C274.69 352.807 273.46 352.797 272.2 352.797C270.94 352.787 269.68 352.787 268.38 352.777C265.7 352.767 263.03 352.767 260.36 352.757C256.95 352.757 253.54 352.727 250.14 352.707C246.87 352.677 243.6 352.677 240.33 352.677C239.11 352.657 237.9 352.647 236.65 352.637C228.77 352.657 223.14 353.497 216.31 357.627C210.59 363.497 207.88 370.227 207.87 378.337C207.86 379.417 207.86 380.507 207.86 381.617C207.86 382.797 207.86 383.987 207.86 385.197C207.85 386.447 207.85 387.697 207.85 388.987C207.84 391.697 207.83 394.417 207.83 397.127C207.83 401.427 207.81 405.717 207.79 410.017C207.78 411.487 207.78 412.957 207.77 414.427C207.77 415.167 207.76 415.907 207.76 416.667C207.72 426.657 207.69 436.657 207.67 446.657C207.67 453.397 207.64 460.147 207.6 466.897C207.58 470.457 207.57 474.027 207.58 477.597C207.58 481.577 207.56 485.557 207.53 489.537C207.54 490.717 207.54 491.897 207.55 493.107C207.48 499.187 207.38 503.377 203 507.997C197.99 512.417 193.88 512.577 187.51 512.517C186.58 512.527 185.64 512.527 184.67 512.537C181.58 512.557 178.49 512.547 175.4 512.527C173.24 512.537 171.08 512.537 168.92 512.547C164.39 512.547 159.86 512.537 155.34 512.517C149.56 512.497 143.78 512.507 138.01 512.537C133.54 512.547 129.08 512.547 124.62 512.537C122.49 512.537 120.36 512.537 118.23 512.547C96.8804 512.617 96.8804 512.617 87.0004 507.997C86.1804 507.627 85.3604 507.247 84.5204 506.857C69.6004 499.597 61.6704 486.667 55.7504 471.877C53.4304 462.997 53.8604 453.757 53.8904 444.657C53.8904 443.117 53.8904 441.577 53.8904 440.047C53.8904 435.887 53.8904 431.737 53.9004 427.587C53.9004 423.237 53.9104 418.887 53.9104 414.547C53.9104 406.317 53.9204 398.097 53.9304 389.877C53.9404 380.507 53.9404 371.137 53.9504 361.777C53.9604 342.517 53.9804 323.257 54.0004 303.997C53.3204 304.007 52.6404 304.007 51.9404 304.017C51.0504 304.017 50.1504 304.027 49.2304 304.027C48.3404 304.037 47.4604 304.037 46.5504 304.047C33.1004 303.797 21.8404 298.497 12.2604 289.377C2.3904 278.987 -0.639612 267.427 -0.469612 253.367C0.150388 236.297 9.24037 225.287 20.9804 213.627C21.8504 212.757 22.7204 211.877 23.6204 210.977C26.0004 208.587 28.3904 206.187 30.7904 203.807C33.3804 201.217 35.9704 198.617 38.5504 196.027C43.6104 190.947 48.6704 185.887 53.7404 180.827C57.8504 176.717 61.9704 172.597 66.0804 168.477C66.9604 167.597 66.9604 167.597 67.8604 166.697C69.0604 165.497 70.2504 164.307 71.4404 163.107C82.6104 151.927 93.7904 140.757 104.97 129.587C115.18 119.387 125.39 109.167 135.59 98.9468C146.08 88.4268 156.57 77.9168 167.08 67.4168C172.97 61.5368 178.86 55.6468 184.74 49.7468C189.74 44.7268 194.75 39.7168 199.77 34.7168C202.33 32.1668 204.89 29.6068 207.43 27.0468C210.2 24.2668 212.98 21.4968 215.76 18.7368C216.56 17.9268 217.35 17.1268 218.17 16.2968C237.13 -2.41323 261.66 -5.59323 284.37 8.20677Z" fill="#DEDEDE"/>
</g>
<defs>
<clipPath id="clip0_235_24">
<rect width="512" height="512" fill="white"/>
</clipPath>
</defs>
</svg>
