<svg width="1024" height="1024" viewBox="0 0 1024 1024" fill="none" xmlns="http://www.w3.org/2000/svg">
<path d="M743.91 284.848C743.91 473.549 1211.59 642.824 890.261 784.993C664.278 884.977 585.166 732.342 496.406 739.797C410.837 746.984 253.279 934.861 164.773 884.977C-36.7065 735.242 139.323 554.654 139.323 261.084C139.323 -32.4868 261.816 261.084 421.079 261.084C670.567 261.084 743.91 137.178 743.91 284.848Z" fill="url(#paint0_linear_235_30)"/>
<g filter="url(#filter0_d_235_30)">
<rect x="21" y="297.322" width="982" height="229.355" rx="114.678" fill="#DDEEFF"/>
<path d="M250.619 430.322L266.069 395.322H275.819L291.319 430.322H281.019L268.919 400.172H272.819L260.719 430.322H250.619ZM259.069 423.522L261.619 416.222H278.719L281.269 423.522H259.069ZM305.231 430.772C302.765 430.772 300.515 430.206 298.481 429.072C296.481 427.906 294.881 426.289 293.681 424.222C292.481 422.122 291.881 419.622 291.881 416.722C291.881 413.856 292.481 411.389 293.681 409.322C294.881 407.222 296.481 405.606 298.481 404.472C300.515 403.339 302.765 402.772 305.231 402.772C307.565 402.772 309.531 403.272 311.131 404.272C312.765 405.272 313.998 406.806 314.831 408.872C315.665 410.939 316.081 413.556 316.081 416.722C316.081 419.956 315.681 422.606 314.881 424.672C314.081 426.739 312.881 428.272 311.281 429.272C309.681 430.272 307.665 430.772 305.231 430.772ZM307.231 423.222C308.298 423.222 309.248 422.972 310.081 422.472C310.948 421.972 311.631 421.239 312.131 420.272C312.631 419.272 312.881 418.089 312.881 416.722C312.881 415.356 312.631 414.206 312.131 413.272C311.631 412.306 310.948 411.572 310.081 411.072C309.248 410.572 308.298 410.322 307.231 410.322C306.131 410.322 305.148 410.572 304.281 411.072C303.448 411.572 302.781 412.306 302.281 413.272C301.781 414.206 301.531 415.356 301.531 416.722C301.531 418.089 301.781 419.272 302.281 420.272C302.781 421.239 303.448 421.972 304.281 422.472C305.148 422.972 306.131 423.222 307.231 423.222ZM313.181 430.322V425.672L313.231 416.722L312.731 407.772V393.222H322.231V430.322H313.181ZM328.343 430.322V403.222H337.393V411.122L336.043 408.872C336.843 406.839 338.143 405.322 339.943 404.322C341.743 403.289 343.927 402.772 346.493 402.772V411.322C346.06 411.256 345.677 411.222 345.343 411.222C345.043 411.189 344.71 411.172 344.343 411.172C342.41 411.172 340.843 411.706 339.643 412.772C338.443 413.806 337.843 415.506 337.843 417.872V430.322H328.343ZM364.37 430.772C361.17 430.772 358.37 430.172 355.97 428.972C353.603 427.739 351.753 426.072 350.42 423.972C349.12 421.839 348.47 419.422 348.47 416.722C348.47 414.022 349.103 411.622 350.37 409.522C351.67 407.389 353.453 405.739 355.72 404.572C357.986 403.372 360.536 402.772 363.37 402.772C366.036 402.772 368.47 403.322 370.67 404.422C372.87 405.489 374.62 407.072 375.92 409.172C377.22 411.272 377.87 413.822 377.87 416.822C377.87 417.156 377.853 417.539 377.82 417.972C377.786 418.406 377.753 418.806 377.72 419.172H356.27V414.172H372.67L369.07 415.572C369.103 414.339 368.87 413.272 368.37 412.372C367.903 411.472 367.236 410.772 366.37 410.272C365.536 409.772 364.553 409.522 363.42 409.522C362.286 409.522 361.286 409.772 360.42 410.272C359.586 410.772 358.936 411.489 358.47 412.422C358.003 413.322 357.77 414.389 357.77 415.622V417.072C357.77 418.406 358.036 419.556 358.57 420.522C359.136 421.489 359.936 422.239 360.97 422.772C362.003 423.272 363.236 423.522 364.67 423.522C366.003 423.522 367.136 423.339 368.07 422.972C369.036 422.572 369.986 421.972 370.92 421.172L375.92 426.372C374.62 427.806 373.02 428.906 371.12 429.672C369.22 430.406 366.97 430.772 364.37 430.772ZM399.9 402.772C402 402.772 403.9 403.206 405.6 404.072C407.3 404.906 408.633 406.206 409.6 407.972C410.6 409.739 411.1 412.022 411.1 414.822V430.322H401.6V416.372C401.6 414.439 401.2 413.039 400.4 412.172C399.633 411.272 398.55 410.822 397.15 410.822C396.15 410.822 395.233 411.056 394.4 411.522C393.566 411.956 392.916 412.639 392.45 413.572C391.983 414.506 391.75 415.722 391.75 417.222V430.322H382.25V403.222H391.3V410.922L389.55 408.672C390.583 406.706 392 405.239 393.8 404.272C395.6 403.272 397.633 402.772 399.9 402.772ZM433.614 430.322V425.272L432.964 424.022V414.722C432.964 413.222 432.497 412.072 431.564 411.272C430.664 410.439 429.214 410.022 427.214 410.022C425.914 410.022 424.597 410.239 423.264 410.672C421.931 411.072 420.797 411.639 419.864 412.372L416.664 405.922C418.197 404.922 420.031 404.156 422.164 403.622C424.331 403.056 426.481 402.772 428.614 402.772C433.014 402.772 436.414 403.789 438.814 405.822C441.247 407.822 442.464 410.972 442.464 415.272V430.322H433.614ZM425.614 430.772C423.447 430.772 421.614 430.406 420.114 429.672C418.614 428.939 417.464 427.939 416.664 426.672C415.897 425.406 415.514 423.989 415.514 422.422C415.514 420.756 415.931 419.322 416.764 418.122C417.631 416.889 418.947 415.956 420.714 415.322C422.481 414.656 424.764 414.322 427.564 414.322H433.964V419.272H428.864C427.331 419.272 426.247 419.522 425.614 420.022C425.014 420.522 424.714 421.189 424.714 422.022C424.714 422.856 425.031 423.522 425.664 424.022C426.297 424.522 427.164 424.772 428.264 424.772C429.297 424.772 430.231 424.522 431.064 424.022C431.931 423.489 432.564 422.689 432.964 421.622L434.264 425.122C433.764 426.989 432.781 428.406 431.314 429.372C429.881 430.306 427.981 430.772 425.614 430.772ZM448.461 430.322V393.222H457.961V430.322H448.461ZM464.134 430.322V403.222H473.634V430.322H464.134ZM468.884 400.222C467.151 400.222 465.751 399.739 464.684 398.772C463.618 397.806 463.084 396.606 463.084 395.172C463.084 393.739 463.618 392.539 464.684 391.572C465.751 390.606 467.151 390.122 468.884 390.122C470.618 390.122 472.018 390.589 473.084 391.522C474.151 392.422 474.684 393.589 474.684 395.022C474.684 396.522 474.151 397.772 473.084 398.772C472.051 399.739 470.651 400.222 468.884 400.222ZM497.458 402.772C499.558 402.772 501.458 403.206 503.158 404.072C504.858 404.906 506.192 406.206 507.158 407.972C508.158 409.739 508.658 412.022 508.658 414.822V430.322H499.158V416.372C499.158 414.439 498.758 413.039 497.958 412.172C497.192 411.272 496.108 410.822 494.708 410.822C493.708 410.822 492.792 411.056 491.958 411.522C491.125 411.956 490.475 412.639 490.008 413.572C489.542 414.506 489.308 415.722 489.308 417.222V430.322H479.808V403.222H488.858V410.922L487.108 408.672C488.142 406.706 489.558 405.239 491.358 404.272C493.158 403.272 495.192 402.772 497.458 402.772ZM529.164 430.772C525.964 430.772 523.164 430.172 520.764 428.972C518.398 427.739 516.548 426.072 515.214 423.972C513.914 421.839 513.264 419.422 513.264 416.722C513.264 414.022 513.898 411.622 515.164 409.522C516.464 407.389 518.248 405.739 520.514 404.572C522.781 403.372 525.331 402.772 528.164 402.772C530.831 402.772 533.264 403.322 535.464 404.422C537.664 405.489 539.414 407.072 540.714 409.172C542.014 411.272 542.664 413.822 542.664 416.822C542.664 417.156 542.648 417.539 542.614 417.972C542.581 418.406 542.548 418.806 542.514 419.172H521.064V414.172H537.464L533.864 415.572C533.898 414.339 533.664 413.272 533.164 412.372C532.698 411.472 532.031 410.772 531.164 410.272C530.331 409.772 529.348 409.522 528.214 409.522C527.081 409.522 526.081 409.772 525.214 410.272C524.381 410.772 523.731 411.489 523.264 412.422C522.798 413.322 522.564 414.389 522.564 415.622V417.072C522.564 418.406 522.831 419.556 523.364 420.522C523.931 421.489 524.731 422.239 525.764 422.772C526.798 423.272 528.031 423.522 529.464 423.522C530.798 423.522 531.931 423.339 532.864 422.972C533.831 422.572 534.781 421.972 535.714 421.172L540.714 426.372C539.414 427.806 537.814 428.906 535.914 429.672C534.014 430.406 531.764 430.772 529.164 430.772ZM574.345 431.022C571.479 431.022 568.712 430.672 566.045 429.972C563.412 429.239 561.262 428.306 559.595 427.172L562.845 419.872C564.412 420.872 566.212 421.706 568.245 422.372C570.312 423.006 572.362 423.322 574.395 423.322C575.762 423.322 576.862 423.206 577.695 422.972C578.529 422.706 579.129 422.372 579.495 421.972C579.895 421.539 580.095 421.039 580.095 420.472C580.095 419.672 579.729 419.039 578.995 418.572C578.262 418.106 577.312 417.722 576.145 417.422C574.979 417.122 573.679 416.822 572.245 416.522C570.845 416.222 569.429 415.839 567.995 415.372C566.595 414.906 565.312 414.306 564.145 413.572C562.979 412.806 562.029 411.822 561.295 410.622C560.562 409.389 560.195 407.839 560.195 405.972C560.195 403.872 560.762 401.972 561.895 400.272C563.062 398.572 564.795 397.206 567.095 396.172C569.395 395.139 572.262 394.622 575.695 394.622C577.995 394.622 580.245 394.889 582.445 395.422C584.679 395.922 586.662 396.672 588.395 397.672L585.345 405.022C583.679 404.122 582.029 403.456 580.395 403.022C578.762 402.556 577.179 402.322 575.645 402.322C574.279 402.322 573.179 402.472 572.345 402.772C571.512 403.039 570.912 403.406 570.545 403.872C570.179 404.339 569.995 404.872 569.995 405.472C569.995 406.239 570.345 406.856 571.045 407.322C571.779 407.756 572.729 408.122 573.895 408.422C575.095 408.689 576.395 408.972 577.795 409.272C579.229 409.572 580.645 409.956 582.045 410.422C583.479 410.856 584.779 411.456 585.945 412.222C587.112 412.956 588.045 413.939 588.745 415.172C589.479 416.372 589.845 417.889 589.845 419.722C589.845 421.756 589.262 423.639 588.095 425.372C586.962 427.072 585.245 428.439 582.945 429.472C580.679 430.506 577.812 431.022 574.345 431.022ZM606.068 430.772C602.602 430.772 599.902 429.922 597.968 428.222C596.035 426.489 595.068 423.889 595.068 420.422V397.172H604.568V420.322C604.568 421.289 604.835 422.056 605.368 422.622C605.902 423.156 606.585 423.422 607.418 423.422C608.552 423.422 609.518 423.139 610.318 422.572L612.668 429.222C611.868 429.756 610.885 430.139 609.718 430.372C608.552 430.639 607.335 430.772 606.068 430.772ZM591.118 411.322V404.222H610.768V411.322H591.118ZM627.732 430.772C625.532 430.772 623.548 430.339 621.782 429.472C620.048 428.606 618.682 427.256 617.682 425.422C616.715 423.556 616.232 421.206 616.232 418.372V403.222H625.732V416.822C625.732 418.922 626.115 420.422 626.882 421.322C627.682 422.222 628.798 422.672 630.232 422.672C631.165 422.672 632.015 422.456 632.782 422.022C633.548 421.589 634.165 420.906 634.632 419.972C635.098 419.006 635.332 417.772 635.332 416.272V403.222H644.832V430.322H635.782V422.672L637.532 424.822C636.598 426.822 635.248 428.322 633.482 429.322C631.715 430.289 629.798 430.772 627.732 430.772ZM662.751 430.772C660.284 430.772 658.034 430.206 656.001 429.072C654.001 427.906 652.401 426.289 651.201 424.222C650.001 422.122 649.401 419.622 649.401 416.722C649.401 413.856 650.001 411.389 651.201 409.322C652.401 407.222 654.001 405.606 656.001 404.472C658.034 403.339 660.284 402.772 662.751 402.772C665.084 402.772 667.051 403.272 668.651 404.272C670.284 405.272 671.517 406.806 672.351 408.872C673.184 410.939 673.601 413.556 673.601 416.722C673.601 419.956 673.201 422.606 672.401 424.672C671.601 426.739 670.401 428.272 668.801 429.272C667.201 430.272 665.184 430.772 662.751 430.772ZM664.751 423.222C665.817 423.222 666.767 422.972 667.601 422.472C668.467 421.972 669.151 421.239 669.651 420.272C670.151 419.272 670.401 418.089 670.401 416.722C670.401 415.356 670.151 414.206 669.651 413.272C669.151 412.306 668.467 411.572 667.601 411.072C666.767 410.572 665.817 410.322 664.751 410.322C663.651 410.322 662.667 410.572 661.801 411.072C660.967 411.572 660.301 412.306 659.801 413.272C659.301 414.206 659.051 415.356 659.051 416.722C659.051 418.089 659.301 419.272 659.801 420.272C660.301 421.239 660.967 421.972 661.801 422.472C662.667 422.972 663.651 423.222 664.751 423.222ZM670.701 430.322V425.672L670.751 416.722L670.251 407.772V393.222H679.751V430.322H670.701ZM685.863 430.322V403.222H695.363V430.322H685.863ZM690.613 400.222C688.88 400.222 687.48 399.739 686.413 398.772C685.346 397.806 684.813 396.606 684.813 395.172C684.813 393.739 685.346 392.539 686.413 391.572C687.48 390.606 688.88 390.122 690.613 390.122C692.346 390.122 693.746 390.589 694.813 391.522C695.88 392.422 696.413 393.589 696.413 395.022C696.413 396.522 695.88 397.772 694.813 398.772C693.78 399.739 692.38 400.222 690.613 400.222ZM715.137 430.772C712.17 430.772 709.537 430.172 707.237 428.972C704.937 427.772 703.12 426.122 701.787 424.022C700.487 421.889 699.837 419.456 699.837 416.722C699.837 413.989 700.487 411.572 701.787 409.472C703.12 407.372 704.937 405.739 707.237 404.572C709.537 403.372 712.17 402.772 715.137 402.772C718.103 402.772 720.737 403.372 723.037 404.572C725.37 405.739 727.187 407.372 728.487 409.472C729.787 411.572 730.437 413.989 730.437 416.722C730.437 419.456 729.787 421.889 728.487 424.022C727.187 426.122 725.37 427.772 723.037 428.972C720.737 430.172 718.103 430.772 715.137 430.772ZM715.137 423.222C716.237 423.222 717.203 422.972 718.037 422.472C718.903 421.972 719.587 421.239 720.087 420.272C720.587 419.272 720.837 418.089 720.837 416.722C720.837 415.356 720.587 414.206 720.087 413.272C719.587 412.306 718.903 411.572 718.037 411.072C717.203 410.572 716.237 410.322 715.137 410.322C714.07 410.322 713.103 410.572 712.237 411.072C711.403 411.572 710.72 412.306 710.187 413.272C709.687 414.206 709.437 415.356 709.437 416.722C709.437 418.089 709.687 419.272 710.187 420.272C710.72 421.239 711.403 421.972 712.237 422.472C713.103 422.972 714.07 423.222 715.137 423.222ZM744.687 430.772C742.387 430.772 740.137 430.506 737.937 429.972C735.771 429.439 734.021 428.772 732.687 427.972L735.537 421.472C736.804 422.239 738.287 422.856 739.987 423.322C741.687 423.756 743.354 423.972 744.987 423.972C746.587 423.972 747.687 423.806 748.287 423.472C748.921 423.139 749.237 422.689 749.237 422.122C749.237 421.589 748.937 421.206 748.337 420.972C747.771 420.706 747.004 420.506 746.037 420.372C745.104 420.239 744.071 420.089 742.937 419.922C741.804 419.756 740.654 419.539 739.487 419.272C738.354 418.972 737.304 418.539 736.337 417.972C735.404 417.372 734.654 416.572 734.087 415.572C733.521 414.572 733.237 413.306 733.237 411.772C733.237 410.039 733.737 408.506 734.737 407.172C735.771 405.806 737.271 404.739 739.237 403.972C741.204 403.172 743.604 402.772 746.437 402.772C748.337 402.772 750.254 402.972 752.187 403.372C754.154 403.739 755.804 404.306 757.137 405.072L754.287 411.522C752.954 410.756 751.621 410.239 750.287 409.972C748.954 409.672 747.687 409.522 746.487 409.522C744.887 409.522 743.754 409.706 743.087 410.072C742.454 410.439 742.137 410.889 742.137 411.422C742.137 411.956 742.421 412.372 742.987 412.672C743.554 412.939 744.304 413.156 745.237 413.322C746.204 413.456 747.254 413.606 748.387 413.772C749.521 413.906 750.654 414.122 751.787 414.422C752.954 414.722 754.004 415.172 754.937 415.772C755.904 416.339 756.671 417.122 757.237 418.122C757.804 419.089 758.087 420.339 758.087 421.872C758.087 423.539 757.571 425.039 756.537 426.372C755.537 427.706 754.037 428.772 752.037 429.572C750.071 430.372 747.621 430.772 744.687 430.772ZM784.632 430.322V403.172H773.882V395.322H805.232V403.172H794.532V430.322H784.632ZM819.336 430.772C816.369 430.772 813.736 430.172 811.436 428.972C809.136 427.772 807.319 426.122 805.986 424.022C804.686 421.889 804.036 419.456 804.036 416.722C804.036 413.989 804.686 411.572 805.986 409.472C807.319 407.372 809.136 405.739 811.436 404.572C813.736 403.372 816.369 402.772 819.336 402.772C822.303 402.772 824.936 403.372 827.236 404.572C829.569 405.739 831.386 407.372 832.686 409.472C833.986 411.572 834.636 413.989 834.636 416.722C834.636 419.456 833.986 421.889 832.686 424.022C831.386 426.122 829.569 427.772 827.236 428.972C824.936 430.172 822.303 430.772 819.336 430.772ZM819.336 423.222C820.436 423.222 821.403 422.972 822.236 422.472C823.103 421.972 823.786 421.239 824.286 420.272C824.786 419.272 825.036 418.089 825.036 416.722C825.036 415.356 824.786 414.206 824.286 413.272C823.786 412.306 823.103 411.572 822.236 411.072C821.403 410.572 820.436 410.322 819.336 410.322C818.269 410.322 817.303 410.572 816.436 411.072C815.603 411.572 814.919 412.306 814.386 413.272C813.886 414.206 813.636 415.356 813.636 416.722C813.636 418.089 813.886 419.272 814.386 420.272C814.919 421.239 815.603 421.972 816.436 422.472C817.303 422.972 818.269 423.222 819.336 423.222ZM852.637 430.772C849.67 430.772 847.037 430.172 844.737 428.972C842.437 427.772 840.62 426.122 839.287 424.022C837.987 421.889 837.337 419.456 837.337 416.722C837.337 413.989 837.987 411.572 839.287 409.472C840.62 407.372 842.437 405.739 844.737 404.572C847.037 403.372 849.67 402.772 852.637 402.772C855.603 402.772 858.237 403.372 860.537 404.572C862.87 405.739 864.687 407.372 865.987 409.472C867.287 411.572 867.937 413.989 867.937 416.722C867.937 419.456 867.287 421.889 865.987 424.022C864.687 426.122 862.87 427.772 860.537 428.972C858.237 430.172 855.603 430.772 852.637 430.772ZM852.637 423.222C853.737 423.222 854.703 422.972 855.537 422.472C856.403 421.972 857.087 421.239 857.587 420.272C858.087 419.272 858.337 418.089 858.337 416.722C858.337 415.356 858.087 414.206 857.587 413.272C857.087 412.306 856.403 411.572 855.537 411.072C854.703 410.572 853.737 410.322 852.637 410.322C851.57 410.322 850.603 410.572 849.737 411.072C848.903 411.572 848.22 412.306 847.687 413.272C847.187 414.206 846.937 415.356 846.937 416.722C846.937 418.089 847.187 419.272 847.687 420.272C848.22 421.239 848.903 421.972 849.737 422.472C850.603 422.972 851.57 423.222 852.637 423.222ZM872.337 430.322V393.222H881.837V430.322H872.337ZM897.861 430.772C895.561 430.772 893.311 430.506 891.111 429.972C888.945 429.439 887.195 428.772 885.861 427.972L888.711 421.472C889.978 422.239 891.461 422.856 893.161 423.322C894.861 423.756 896.528 423.972 898.161 423.972C899.761 423.972 900.861 423.806 901.461 423.472C902.095 423.139 902.411 422.689 902.411 422.122C902.411 421.589 902.111 421.206 901.511 420.972C900.945 420.706 900.178 420.506 899.211 420.372C898.278 420.239 897.245 420.089 896.111 419.922C894.978 419.756 893.828 419.539 892.661 419.272C891.528 418.972 890.478 418.539 889.511 417.972C888.578 417.372 887.828 416.572 887.261 415.572C886.695 414.572 886.411 413.306 886.411 411.772C886.411 410.039 886.911 408.506 887.911 407.172C888.945 405.806 890.445 404.739 892.411 403.972C894.378 403.172 896.778 402.772 899.611 402.772C901.511 402.772 903.428 402.972 905.361 403.372C907.328 403.739 908.978 404.306 910.311 405.072L907.461 411.522C906.128 410.756 904.795 410.239 903.461 409.972C902.128 409.672 900.861 409.522 899.661 409.522C898.061 409.522 896.928 409.706 896.261 410.072C895.628 410.439 895.311 410.889 895.311 411.422C895.311 411.956 895.595 412.372 896.161 412.672C896.728 412.939 897.478 413.156 898.411 413.322C899.378 413.456 900.428 413.606 901.561 413.772C902.695 413.906 903.828 414.122 904.961 414.422C906.128 414.722 907.178 415.172 908.111 415.772C909.078 416.339 909.845 417.122 910.411 418.122C910.978 419.089 911.261 420.339 911.261 421.872C911.261 423.539 910.745 425.039 909.711 426.372C908.711 427.706 907.211 428.772 905.211 429.572C903.245 430.372 900.795 430.772 897.861 430.772Z" fill="#5392F9"/>
</g>
<path d="M105.845 420.47L106.872 450.5" stroke="#5392F9" stroke-width="10" stroke-linecap="round"/>
<path d="M124.872 365.5L124.872 450.5" stroke="#5392F9" stroke-width="10" stroke-linecap="round"/>
<path d="M142.872 389.071L142.872 450.5" stroke="#5392F9" stroke-width="10" stroke-linecap="round"/>
<path d="M160.872 369.429L160.872 450.5" stroke="#5392F9" stroke-width="10" stroke-linecap="round"/>
<path d="M178.872 416.899L179.385 450.5" stroke="#5392F9" stroke-width="10" stroke-linecap="round"/>
<path d="M197.385 389.042L198.155 450.5" stroke="#5392F9" stroke-width="10" stroke-linecap="round"/>
<defs>
<filter id="filter0_d_235_30" x="1" y="277.322" width="1022" height="269.355" filterUnits="userSpaceOnUse" color-interpolation-filters="sRGB">
<feFlood flood-opacity="0" result="BackgroundImageFix"/>
<feColorMatrix in="SourceAlpha" type="matrix" values="0 0 0 0 0 0 0 0 0 0 0 0 0 0 0 0 0 0 127 0" result="hardAlpha"/>
<feOffset/>
<feGaussianBlur stdDeviation="10"/>
<feComposite in2="hardAlpha" operator="out"/>
<feColorMatrix type="matrix" values="0 0 0 0 0 0 0 0 0 0 0 0 0 0 0 0 0 0 0.5 0"/>
<feBlend mode="normal" in2="BackgroundImageFix" result="effect1_dropShadow_235_30"/>
<feBlend mode="normal" in="SourceGraphic" in2="effect1_dropShadow_235_30" result="shape"/>
</filter>
<linearGradient id="paint0_linear_235_30" x1="535.558" y1="130.608" x2="535.558" y2="893.392" gradientUnits="userSpaceOnUse">
<stop stop-color="#3886BE"/>
<stop offset="0.0001" stop-color="#64AEE3"/>
<stop offset="1" stop-color="#327BB0"/>
</linearGradient>
</defs>
</svg>
