<svg width="512" height="512" viewBox="0 0 512 512" fill="none" xmlns="http://www.w3.org/2000/svg">
<rect width="512" height="512" rx="32" fill="url(#paint0_radial_227_457)"/>
<path d="M268.97 289H104.97C96.1333 289 88.9698 281.837 88.9698 273V109C88.9698 100.163 96.1333 93 104.97 93H268.97C277.806 93 284.97 100.163 284.97 109L284.971 126.511L333.03 165.511L284.971 204.511L284.97 273C284.97 281.837 277.806 289 268.97 289Z" fill="#5392F9" stroke="#DCEAFC" stroke-width="8" stroke-linejoin="round"/>
<path d="M212.212 161.024H227.476V171.488H212.212V161.024ZM202.9 143.648H215.668V189.728H202.9V143.648ZM155.38 194.528H217.972V204.032H155.38V194.528ZM186.58 206.72C202.42 206.72 211.828 211.424 211.828 219.776C211.828 228.224 202.42 232.832 186.58 232.832C170.74 232.832 161.332 228.224 161.332 219.776C161.332 211.424 170.74 206.72 186.58 206.72ZM186.58 215.552C178.228 215.552 174.1 216.896 174.1 219.776C174.1 222.752 178.228 224 186.58 224C194.932 224 199.156 222.752 199.156 219.776C199.156 216.896 194.932 215.552 186.58 215.552ZM180.34 187.616H193.012V200.768H180.34V187.616ZM169.972 146.24C183.604 146.24 193.684 154.4 193.684 166.016C193.684 177.536 183.604 185.792 169.972 185.792C156.34 185.792 146.26 177.536 146.26 166.016C146.26 154.4 156.34 146.24 169.972 146.24ZM169.972 156.32C163.444 156.32 158.644 159.872 158.644 166.016C158.644 172.16 163.444 175.712 169.972 175.712C176.596 175.712 181.396 172.16 181.396 166.016C181.396 159.872 176.596 156.32 169.972 156.32Z" fill="#DCEAFC"/>
<path d="M243.03 223H407.03C415.867 223 423.03 230.163 423.03 239V403C423.03 411.837 415.867 419 407.03 419H243.03C234.194 419 227.03 411.837 227.03 403L227.029 385.489L178.97 346.489L227.029 307.489L227.03 239C227.03 230.163 234.194 223 243.03 223Z" fill="#5392F9" stroke="#DCEAFC" stroke-width="8" stroke-linejoin="round"/>
<path d="M265.433 350L291.389 291.2H307.769L333.809 350H316.505L296.177 299.348H302.729L282.401 350H265.433ZM279.629 338.576L283.913 326.312H312.641L316.925 338.576H279.629ZM365.572 350V341.516L364.48 339.416V323.792C364.48 321.272 363.696 319.34 362.128 317.996C360.616 316.596 358.18 315.896 354.82 315.896C352.636 315.896 350.424 316.26 348.184 316.988C345.944 317.66 344.04 318.612 342.472 319.844L337.096 309.008C339.672 307.328 342.752 306.04 346.336 305.144C349.976 304.192 353.588 303.716 357.172 303.716C364.564 303.716 370.276 305.424 374.308 308.84C378.396 312.2 380.44 317.492 380.44 324.716V350H365.572ZM352.132 350.756C348.492 350.756 345.412 350.14 342.892 348.908C340.372 347.676 338.44 345.996 337.096 343.868C335.808 341.74 335.164 339.36 335.164 336.728C335.164 333.928 335.864 331.52 337.264 329.504C338.72 327.432 340.932 325.864 343.9 324.8C346.868 323.68 350.704 323.12 355.408 323.12H366.16V331.436H357.592C355.016 331.436 353.196 331.856 352.132 332.696C351.124 333.536 350.62 334.656 350.62 336.056C350.62 337.456 351.152 338.576 352.216 339.416C353.28 340.256 354.736 340.676 356.584 340.676C358.32 340.676 359.888 340.256 361.288 339.416C362.744 338.52 363.808 337.176 364.48 335.384L366.664 341.264C365.824 344.4 364.172 346.78 361.708 348.404C359.3 349.972 356.108 350.756 352.132 350.756Z" fill="#DCEAFC"/>
<defs>
<radialGradient id="paint0_radial_227_457" cx="0" cy="0" r="1" gradientUnits="userSpaceOnUse" gradientTransform="translate(256 256) rotate(90) scale(256)">
<stop stop-color="#DCEAFC"/>
<stop offset="1" stop-color="white"/>
</radialGradient>
</defs>
</svg>
