<svg width="512" height="512" viewBox="0 0 512 512" fill="none" xmlns="http://www.w3.org/2000/svg">
<rect width="512" height="512" rx="32" fill="url(#paint0_radial_225_116)"/>
<path d="M63.25 91.1173C63.25 86.699 66.8317 83.1173 71.25 83.1173H194.25V118H63.25V91.1173Z" fill="#DCEAFC" stroke="#5392F9" stroke-width="4"/>
<rect x="63.25" y="118" width="131" height="34.8827" fill="#DCEAFC" stroke="#5392F9" stroke-width="4"/>
<rect x="63.25" y="153" width="131" height="34.8827" fill="#DCEAFC" stroke="#5392F9" stroke-width="4"/>
<rect x="63.25" y="188" width="131" height="34.8827" fill="#DCEAFC" stroke="#5392F9" stroke-width="4"/>
<path d="M63.25 223H194.25V257.883H71.25C66.8317 257.883 63.25 254.301 63.25 249.883V223Z" fill="#DCEAFC" stroke="#5392F9" stroke-width="4"/>
<path d="M194.25 83.1173H317.25C321.668 83.1173 325.25 86.699 325.25 91.1173V118H194.25V83.1173Z" fill="#DCEAFC" stroke="#5392F9" stroke-width="4"/>
<rect x="194.25" y="118" width="131" height="34.8827" fill="#DCEAFC" stroke="#5392F9" stroke-width="4"/>
<rect x="194.25" y="153" width="131" height="34.8827" fill="#DCEAFC" stroke="#5392F9" stroke-width="4"/>
<rect x="194.25" y="188" width="131" height="34.8827" fill="#DCEAFC" stroke="#5392F9" stroke-width="4"/>
<path d="M194.25 223H325.25V249.883C325.25 254.301 321.668 257.883 317.25 257.883H194.25V223Z" fill="#DCEAFC" stroke="#5392F9" stroke-width="4"/>
<rect x="75" y="128.5" width="76" height="13.8827" rx="4" fill="#5392F9"/>
<rect x="205.125" y="128.5" width="93.375" height="13.8827" rx="4" fill="#5392F9"/>
<rect x="75" y="163.5" width="93.5" height="13.8827" rx="4" fill="#5392F9"/>
<rect x="205.125" y="163.5" width="60.625" height="13.8827" rx="4" fill="#5392F9"/>
<rect x="75" y="198.5" width="43.5" height="13.8827" rx="4" fill="#5392F9"/>
<rect x="205.125" y="198.5" width="81.875" height="13.8827" rx="4" fill="#5392F9"/>
<rect x="75" y="231.5" width="82.5" height="13.8827" rx="4" fill="#5392F9"/>
<rect x="205.125" y="231.5" width="97.875" height="13.8827" rx="4" fill="#5392F9"/>
<rect x="66.25" y="121" width="256" height="133.883" stroke="#4071F7" stroke-width="6"/>
<rect x="63.25" y="118" width="262" height="139.883" stroke="#4071F7" stroke-width="6"/>
<rect x="314.75" y="247.383" width="21" height="21" fill="#4071F7" stroke="#DCEAFC" stroke-width="2"/>
<rect x="54.125" y="347.883" width="403.75" height="81" rx="16" fill="#4071F7"/>
<path d="M72.7619 388.903V382.183H93.8819V388.903H72.7619ZM72.7619 400.903V394.183H93.8819V400.903H72.7619ZM101.063 407.383V372.343H123.623V379.063H108.167V386.839H122.375V393.559H108.263V407.383H101.063ZM140.884 407.863C137.332 407.863 134.516 406.903 132.436 404.983C130.388 403.063 129.364 400.439 129.364 397.111V372.343H136.564V397.063C136.564 398.535 136.932 399.671 137.668 400.471C138.436 401.239 139.508 401.623 140.884 401.623C142.228 401.623 143.284 401.239 144.052 400.471C144.82 399.671 145.204 398.535 145.204 397.063V372.343H152.404V397.111C152.404 400.407 151.364 403.031 149.284 404.983C147.236 406.903 144.436 407.863 140.884 407.863ZM158.146 407.383V372.343H166.546L175.618 399.463C175.522 398.279 175.41 396.919 175.282 395.383C175.154 393.815 175.042 392.263 174.946 390.727C174.882 389.159 174.85 387.831 174.85 386.743V372.343H181.186V407.383H172.786L163.81 380.263C163.906 381.287 164.002 382.503 164.098 383.911C164.194 385.319 164.274 386.743 164.338 388.183C164.434 389.623 164.482 390.903 164.482 392.023V407.383H158.146ZM198.639 407.863C196.303 407.863 194.255 407.431 192.495 406.567C190.735 405.671 189.359 404.439 188.367 402.871C187.407 401.271 186.927 399.415 186.927 397.303V382.423C186.927 380.279 187.407 378.423 188.367 376.855C189.359 375.287 190.735 374.071 192.495 373.207C194.255 372.311 196.303 371.863 198.639 371.863C201.007 371.863 203.055 372.311 204.783 373.207C206.543 374.071 207.903 375.287 208.863 376.855C209.855 378.423 210.351 380.279 210.351 382.423H203.151C203.151 381.015 202.751 379.943 201.951 379.207C201.183 378.471 200.079 378.103 198.639 378.103C197.199 378.103 196.079 378.471 195.279 379.207C194.511 379.943 194.127 381.015 194.127 382.423V397.303C194.127 398.679 194.511 399.751 195.279 400.519C196.079 401.255 197.199 401.623 198.639 401.623C200.079 401.623 201.183 401.255 201.951 400.519C202.751 399.751 203.151 398.679 203.151 397.303H210.351C210.351 399.415 209.855 401.271 208.863 402.871C207.903 404.439 206.543 405.671 204.783 406.567C203.055 407.431 201.007 407.863 198.639 407.863ZM223.628 407.383V379.063H214.748V372.343H239.708V379.063H230.828V407.383H223.628ZM245.449 407.383V401.143H252.409V378.583H245.449V372.343H266.569V378.583H259.609V401.143H266.569V407.383H245.449ZM284.791 407.863C282.455 407.863 280.423 407.431 278.695 406.567C276.967 405.671 275.623 404.439 274.663 402.871C273.735 401.271 273.271 399.415 273.271 397.303V382.423C273.271 380.311 273.735 378.471 274.663 376.903C275.623 375.303 276.967 374.071 278.695 373.207C280.423 372.311 282.455 371.863 284.791 371.863C287.159 371.863 289.191 372.311 290.887 373.207C292.615 374.071 293.943 375.303 294.871 376.903C295.831 378.471 296.311 380.311 296.311 382.423V397.303C296.311 399.415 295.831 401.271 294.871 402.871C293.943 404.439 292.615 405.671 290.887 406.567C289.191 407.431 287.159 407.863 284.791 407.863ZM284.791 401.623C286.231 401.623 287.303 401.255 288.007 400.519C288.743 399.751 289.111 398.679 289.111 397.303V382.423C289.111 381.015 288.759 379.943 288.055 379.207C287.351 378.471 286.263 378.103 284.791 378.103C283.319 378.103 282.231 378.471 281.527 379.207C280.823 379.943 280.471 381.015 280.471 382.423V397.303C280.471 398.679 280.823 399.751 281.527 400.519C282.263 401.255 283.351 401.623 284.791 401.623ZM302.052 407.383V372.343H310.452L319.524 399.463C319.428 398.279 319.316 396.919 319.188 395.383C319.06 393.815 318.948 392.263 318.852 390.727C318.788 389.159 318.756 387.831 318.756 386.743V372.343H325.092V407.383H316.692L307.716 380.263C307.812 381.287 307.908 382.503 308.004 383.911C308.1 385.319 308.18 386.743 308.244 388.183C308.34 389.623 308.388 390.903 308.388 392.023V407.383H302.052ZM351.233 413.143C346.145 411.767 342.225 409.479 339.473 406.279C336.753 403.047 335.393 399.111 335.393 394.471V385.783C335.393 382.743 336.017 379.975 337.265 377.479C338.545 374.983 340.369 372.855 342.737 371.095C345.105 369.303 347.937 367.959 351.233 367.063V374.263C349.441 374.711 347.889 375.463 346.577 376.519C345.297 377.575 344.305 378.887 343.601 380.455C342.929 382.023 342.593 383.799 342.593 385.783V394.471C342.593 396.391 342.929 398.135 343.601 399.703C344.305 401.239 345.297 402.535 346.577 403.591C347.889 404.647 349.441 405.399 351.233 405.847V413.143ZM419.817 413.143V405.847C421.609 405.399 423.145 404.647 424.425 403.591C425.737 402.535 426.729 401.239 427.401 399.703C428.105 398.135 428.457 396.391 428.457 394.471V385.783C428.457 383.799 428.105 382.023 427.401 380.455C426.729 378.887 425.753 377.575 424.473 376.519C423.193 375.463 421.641 374.711 419.817 374.263V367.063C423.145 367.959 425.977 369.303 428.313 371.095C430.681 372.855 432.489 374.983 433.737 377.479C435.017 379.975 435.657 382.743 435.657 385.783V394.471C435.657 399.111 434.281 403.047 431.529 406.279C428.809 409.479 424.905 411.767 419.817 413.143Z" fill="#DCEAFC"/>
<circle cx="366.5" cy="388.383" r="5.25" fill="#DCEAFC"/>
<circle cx="385" cy="388.383" r="5.25" fill="#DCEAFC"/>
<circle cx="403.5" cy="388.383" r="5.25" fill="#DCEAFC"/>
<path d="M197 269.383C197 267.726 195.657 266.383 194 266.383C192.343 266.383 191 267.726 191 269.383H197ZM194 294.383H191C191 296.04 192.343 297.383 194 297.383V294.383ZM385 294.383H388C388 292.726 386.657 291.383 385 291.383V294.383ZM385 348.383L402.321 318.383H367.679L385 348.383ZM191 269.383V294.383H197V269.383H191ZM194 297.383H385V291.383H194V297.383ZM382 294.383V321.383H388V294.383H382Z" fill="#4071F7"/>
<defs>
<radialGradient id="paint0_radial_225_116" cx="0" cy="0" r="1" gradientUnits="userSpaceOnUse" gradientTransform="translate(256 256) rotate(90) scale(256)">
<stop stop-color="#DCEAFC"/>
<stop offset="1" stop-color="white"/>
</radialGradient>
</defs>
</svg>
