<svg width="512" height="512" viewBox="0 0 512 512" fill="none" xmlns="http://www.w3.org/2000/svg">
<path d="M352 10C384.61 11.69 412.04 23.79 436 46C437.36 47.25 437.36 47.25 438.74 48.53C463.69 72.51 477.59 104.92 481 139C481 145.93 481 152.86 481 160C462.85 160 444.7 160 426 160C425.5 147.13 425.5 147.13 425 134C421.33 126.66 419.51 123.63 412.75 119.69C406.08 118.02 399.78 118.2 393.75 121.68C387.8 126.16 386.14 131.9 385 139C384.66 142.69 384.5 146.36 384.38 150.06C384.19 154.98 384.19 154.98 384 160C373.44 160 362.88 160 352 160C351.95 157.05 351.9 154.1 351.85 151.06C351.8 148.19 351.74 145.31 351.68 142.44C351.64 140.45 351.61 138.46 351.58 136.47C351.53 133.61 351.47 130.74 351.41 127.87C351.4 126.99 351.39 126.11 351.38 125.2C351.26 120.12 350.78 115.78 349 111C343.02 106.06 333.73 107.53 326.39 107.47C324.69 107.44 324.69 107.44 322.96 107.41C321.94 107.4 320.92 107.39 319.86 107.38C315.78 106.84 313.16 105.08 310.19 102.31C308.43 98.89 308.22 95.7 309 92C310.75 88.98 312.83 86.58 316 85C317.96 84.87 319.93 84.8 321.89 84.75C323.08 84.72 324.26 84.69 325.48 84.65C327.98 84.59 330.48 84.54 332.97 84.48C334.16 84.45 335.35 84.41 336.58 84.38C337.67 84.35 338.75 84.33 339.87 84.3C343.39 83.96 345.87 83.7 349 82C352 74.88 351.35 66.84 351.41 59.22C351.43 57.8 351.45 56.37 351.47 54.95C351.52 51.23 351.56 47.5 351.6 43.78C351.64 39.97 351.69 36.17 351.74 32.36C351.84 24.91 351.92 17.45 352 10Z" fill="#DEDEDE"/>
<path d="M246 96C246 113.82 246 131.64 246 150C237.59 150.5 237.59 150.5 229 151C220.36 153.38 213.94 156.03 209.28 163.91C204.64 172.92 202.48 180.15 205.25 190.12C207.99 198.4 213.27 204.76 220.9 209.07C226.71 211.67 232.53 212.2 238.81 212.56C241.18 212.71 243.56 212.85 246 213C246 220.26 246 227.52 246 235C243.53 235.04 241.06 235.07 238.52 235.11C236.12 235.16 233.72 235.21 231.32 235.26C229.66 235.3 227.99 235.32 226.33 235.35C223.93 235.38 221.54 235.43 219.14 235.49C218.03 235.5 218.03 235.5 216.9 235.51C212.46 235.63 209.48 236.17 206 239C203.63 242.28 203.75 245.38 203.73 249.34C203.71 250.57 203.69 251.8 203.66 253.06C203.64 255.64 203.62 258.22 203.61 260.8C203.59 262.03 203.56 263.26 203.54 264.53C203.53 265.65 203.52 266.77 203.51 267.93C202.89 271.65 201.58 273.3 199 276C195.73 278.29 192.93 278.47 189 278C185.34 275.96 183.33 274.5 181 271C180.73 268.17 180.73 268.17 180.69 264.76C180.67 263.53 180.64 262.3 180.62 261.03C180.58 258.43 180.55 255.84 180.52 253.25C180.5 252.01 180.47 250.78 180.44 249.51C180.43 248.38 180.41 247.25 180.4 246.09C179.95 242.61 179.14 240.76 177 238C173.78 235.95 171.18 235.73 167.41 235.68C166.28 235.66 165.16 235.64 164.01 235.62C162.8 235.61 161.6 235.6 160.36 235.59C159.12 235.57 157.88 235.55 156.61 235.53C153.33 235.48 150.05 235.44 146.77 235.4C143.41 235.36 140.06 235.31 136.71 235.26C130.14 235.16 123.57 235.08 117 235C116.78 219.79 116.78 219.79 118.12 212.38C118.26 211.63 118.39 210.89 118.52 210.13C121.42 194.79 126.3 180.57 134 167C134.5 166.12 134.5 166.12 135.01 165.22C139.37 157.6 144.27 150.64 150 144C150.8 143.06 151.6 142.11 152.42 141.14C174.87 115.22 211.21 96 246 96Z" fill="#DEDEDE"/>
<path d="M119 256C132.53 256 146.06 256 160 256C160.66 261.94 161.32 267.88 162 274C165.21 283.75 170.77 290.32 179.89 295.09C187.18 298.23 195.83 298.12 203.25 295.44C211.3 291.78 217.74 285.69 221.03 277.4C222.24 273.16 222.7 269.01 223.12 264.62C223.41 261.78 223.7 258.93 224 256C231.26 256 238.52 256 246 256C246.03 257.71 246.05 259.41 246.08 261.17C246.16 266.81 246.25 272.45 246.34 278.09C246.39 281.51 246.45 284.93 246.5 288.35C246.55 292.28 246.62 296.21 246.68 300.14C246.7 301.37 246.72 302.59 246.73 303.86C246.76 305.57 246.76 305.57 246.79 307.31C246.82 308.82 246.82 308.82 246.84 310.36C246.98 312.72 247.33 314.74 248 317C254.57 318.7 260.36 319.21 267.12 319C281.14 318.58 281.14 318.58 286.44 323.06C288.6 327.12 288.93 330.5 288 335C286.06 338.57 283.92 340.69 280 342C277.98 342.13 275.96 342.2 273.94 342.25C272.75 342.28 271.56 342.31 270.33 342.35C267.82 342.41 265.31 342.46 262.8 342.52C261.61 342.55 260.42 342.59 259.19 342.62C258.1 342.65 257.01 342.67 255.89 342.7C253 343 251.36 343.34 249 345C247.19 347.96 246.74 350.23 246.68 353.68C246.66 354.61 246.64 355.54 246.62 356.51C246.61 357.48 246.6 358.45 246.59 359.45C246.57 360.35 246.55 361.25 246.53 362.18C246.47 365.54 246.42 368.89 246.38 372.25C246.25 379.76 246.13 387.26 246 395C227.19 395 208.38 395 189 395C187.35 388.73 185.7 382.46 184 376C182.12 371.46 180.29 367.3 178 363C177.27 361.57 177.27 361.57 176.52 360.1C170.77 349.51 162.8 340.45 154.88 331.43C136.99 311.05 119 284.21 119 256Z" fill="#DEDEDE"/>
<path d="M324 213C327.02 214.75 329.42 216.83 331 220C331.13 221.96 331.2 223.93 331.25 225.89C331.28 227.08 331.31 228.26 331.35 229.48C331.41 231.98 331.46 234.48 331.52 236.97C331.55 238.16 331.59 239.35 331.62 240.58C331.65 241.67 331.67 242.75 331.7 243.87C332.03 247.35 332.38 249.88 334 253C339.95 255.8 346.59 255.35 353.06 255.41C354.78 255.44 354.78 255.44 356.53 255.47C360.16 255.53 363.8 255.58 367.44 255.62C369.91 255.66 372.38 255.7 374.86 255.74C380.9 255.84 386.95 255.92 393 256C392.86 257.73 392.72 259.46 392.57 261.19C392.49 262.16 392.41 263.12 392.33 264.12C391.83 268.46 390.73 272.52 389.44 276.69C389.18 277.54 388.91 278.4 388.64 279.28C382.65 298.07 371.87 313.81 358.92 328.5C341.4 348.39 328.45 367.68 323 394C322 395 322 395 319.75 395.12C318.76 395.12 317.77 395.12 316.75 395.11C315.62 395.11 314.5 395.11 313.35 395.11C311.52 395.11 311.52 395.11 309.65 395.1C308.41 395.1 307.17 395.09 305.89 395.09C302.58 395.09 299.28 395.08 295.97 395.07C292.6 395.06 289.23 395.05 285.86 395.05C279.24 395.04 272.62 395.02 266 395C266 384.11 266 373.22 266 362C268.62 361.9 271.24 361.79 273.94 361.69C284.7 361.1 293.35 359.21 301 351C306.25 342.6 309.56 334.41 307.47 324.47C304.97 315.45 300.5 309.55 293 304C284.59 299.24 275.58 299.64 266 299C266 284.81 266 270.62 266 256C282.06 255.69 282.06 255.69 287.09 255.61C288.43 255.58 289.76 255.55 291.1 255.51C292.11 255.5 292.11 255.5 293.15 255.49C298.18 255.34 301.67 254.46 306 252C308.18 248.44 308.26 245.11 308.31 241C308.33 239.87 308.36 238.73 308.38 237.56C308.42 235.19 308.45 232.81 308.48 230.44C308.5 229.3 308.53 228.17 308.56 227C308.57 225.97 308.59 224.94 308.6 223.88C309.17 219.79 310.91 217.17 313.69 214.19C317.11 212.43 320.3 212.22 324 213Z" fill="#DEDEDE"/>
<path d="M191 416C233.9 416 276.8 416 321 416C321 440.38 321 440.38 320 448C319.07 448.01 318.13 448.03 317.17 448.04C313.69 448.11 310.2 448.18 306.71 448.26C305.21 448.3 303.7 448.32 302.2 448.35C300.03 448.38 297.86 448.43 295.68 448.49C294.38 448.51 293.08 448.54 291.73 448.57C287.45 449.06 284.8 450 281 452C278.51 455.74 278.54 457.57 279 462C281.14 465.39 282.18 466.73 286 468C287.99 468.15 289.99 468.25 291.98 468.32C293.14 468.36 294.31 468.4 295.51 468.44C296.72 468.48 297.94 468.52 299.19 468.56C300.41 468.61 301.64 468.65 302.9 468.69C305.94 468.8 308.97 468.9 312 469C305.18 483.79 291.21 493.47 276.29 499C259.33 504.4 242.06 502.45 226 495C214.97 489.2 205.99 480.97 200 470C200 469.67 200 469.34 200 469C200.58 468.99 201.15 468.98 201.74 468.98C207.75 468.89 213.75 468.79 219.75 468.68C221.99 468.64 224.23 468.61 226.47 468.58C229.69 468.53 232.91 468.47 236.13 468.41C237.13 468.4 238.13 468.39 239.15 468.38C246.28 468.24 246.28 468.24 253 466C254.24 462.28 254.68 458.86 254 455C251.3 451.48 249.32 449.77 245 449C243.23 448.89 241.45 448.82 239.68 448.79C238.62 448.77 237.56 448.75 236.47 448.73C234.76 448.71 234.76 448.71 233.02 448.68C231.26 448.65 231.26 448.65 229.47 448.62C225.73 448.56 221.99 448.5 218.25 448.44C215.71 448.39 213.18 448.35 210.64 448.31C204.43 448.2 198.21 448.1 192 448C190.6 437.29 191 426.91 191 416Z" fill="#DEDEDE"/>
<path d="M102 75C104.7 76.66 106.76 78.75 108.93 81.05C109.54 81.66 110.14 82.26 110.76 82.89C112.03 84.17 113.29 85.46 114.53 86.76C116.44 88.75 118.37 90.7 120.31 92.66C121.54 93.91 122.77 95.16 124 96.42C124.57 97.01 125.14 97.59 125.74 98.19C129.2 101.82 132.04 105.03 131.97 110.32C131.1 114.5 130.49 116.54 127.31 119.56C123.48 121.22 121.13 121.53 117 121C112.57 118.8 109.3 115.58 105.86 112.09C105.29 111.52 104.72 110.95 104.14 110.37C102.95 109.17 101.76 107.98 100.57 106.78C98.75 104.93 96.92 103.1 95.09 101.27C93.93 100.11 92.77 98.94 91.61 97.78C91.06 97.23 90.51 96.68 89.95 96.11C86.47 92.59 84.84 90.69 84.62 85.75C84.65 82.23 85.09 80.25 87.31 77.5C91.88 73.25 96.22 73.44 102 75Z" fill="#DEDEDE"/>
<path d="M125 370C128.12 371.79 129.55 373.24 131.38 376.31C132.25 380.07 132.08 382.27 131 386C125.98 392.84 119.49 398.83 113.56 404.88C112.66 405.82 111.76 406.77 110.83 407.75C105.79 412.87 102.31 416.39 95 417C91.38 415.93 88.94 414.79 86.06 412.38C84.32 408.47 84.15 405.18 85 401C86.19 399.19 86.19 399.19 87.83 397.42C88.47 396.73 89.1 396.04 89.75 395.33C93.74 391.2 97.75 387.1 101.82 383.05C103.33 381.54 104.84 380.03 106.35 378.52C107.31 377.55 108.27 376.59 109.24 375.63C110.54 374.33 110.54 374.33 111.86 373.01C115.83 369.28 119.75 369.35 125 370Z" fill="#DEDEDE"/>
<path d="M396 370C397.82 371.18 397.82 371.18 399.59 372.82C400.28 373.46 400.96 374.09 401.67 374.75C405.8 378.74 409.9 382.75 413.95 386.82C415.46 388.33 416.97 389.84 418.48 391.35C419.45 392.31 420.41 393.27 421.37 394.24C422.24 395.1 423.1 395.97 423.99 396.86C427.32 400.41 427.33 403.04 427.29 407.74C426.86 411.05 425.39 412.75 423 415C419.1 416.95 415.22 416.86 411 416C407.77 414.05 405.31 411.48 402.71 408.76C400.59 406.58 398.4 404.47 396.21 402.35C394.48 400.65 392.74 398.95 391 397.25C390.15 396.42 389.3 395.59 388.42 394.74C387.62 393.94 386.82 393.15 386 392.33C385.28 391.62 384.56 390.9 383.81 390.17C380.89 386.67 379.96 384.05 380.12 379.5C381.08 375.68 382.28 373.8 385 371C388.59 369.2 392.09 369.32 396 370Z" fill="#DEDEDE"/>
<path d="M453.492 233.664C454.732 233.654 454.732 233.654 455.992 233.644C457.732 233.634 459.472 233.634 461.212 233.634C463.862 233.624 466.512 233.584 469.162 233.554C470.852 233.544 472.552 233.544 474.242 233.544C475.032 233.524 475.822 233.514 476.632 233.494C481.872 233.534 484.852 234.524 489.002 238.004C491.472 241.704 491.682 244.704 491.002 249.004C488.002 254.504 488.002 254.504 485.002 256.004C483.672 256.114 482.332 256.174 480.992 256.194C479.762 256.214 479.762 256.214 478.502 256.244C474.722 256.284 470.952 256.324 467.182 256.354C465.192 256.364 463.202 256.394 461.212 256.434C458.342 256.484 455.472 256.504 452.602 256.524C451.722 256.544 450.832 256.564 449.922 256.594C445.422 256.574 443.602 256.474 439.962 253.594C437.192 249.934 436.652 247.684 436.712 243.034C437.162 239.814 438.682 238.194 441.002 236.004C444.822 233.364 449.022 233.674 453.492 233.664Z" fill="#DEDEDE"/>
<path d="M37.4922 233.664C38.7322 233.654 38.7322 233.654 39.9922 233.644C41.7322 233.634 43.4722 233.634 45.2122 233.634C47.8622 233.624 50.5122 233.584 53.1622 233.554C54.8522 233.544 56.5522 233.544 58.2422 233.544C59.0322 233.524 59.8222 233.514 60.6322 233.494C65.8722 233.534 68.8522 234.524 73.0022 238.004C75.4722 241.704 75.6822 244.704 75.0022 249.004C72.0022 254.504 72.0022 254.504 69.0022 256.004C67.6722 256.114 66.3322 256.174 64.9922 256.194C63.7622 256.214 63.7622 256.214 62.5022 256.244C58.7222 256.284 54.9522 256.324 51.1822 256.354C49.1922 256.364 47.2022 256.394 45.2122 256.434C42.3422 256.484 39.4722 256.504 36.6022 256.524C35.7222 256.544 34.8322 256.564 33.9222 256.594C29.4222 256.574 27.6022 256.474 23.9622 253.594C21.1922 249.934 20.6522 247.684 20.7122 243.034C21.1622 239.814 22.6822 238.194 25.0022 236.004C28.8222 233.364 33.0222 233.674 37.4922 233.664Z" fill="#DEDEDE"/>
<path d="M259 10C262.66 12.04 264.67 13.5 267 17C267.22 19.98 267.33 22.85 267.34 25.83C267.34 26.7 267.35 27.57 267.36 28.47C267.37 30.31 267.37 32.15 267.37 33.99C267.37 36.79 267.41 39.6 267.45 42.4C267.46 44.19 267.46 45.98 267.46 47.77C267.48 48.6 267.49 49.44 267.5 50.3C267.46 55.66 266.58 58.75 263 63C259.29 64.86 255.04 64.59 251 64C248.18 61.81 246.58 60.17 245 57C244.86 54.07 244.79 51.16 244.76 48.23C244.75 47.36 244.75 46.48 244.74 45.58C244.72 43.73 244.71 41.88 244.7 40.03C244.69 37.21 244.64 34.39 244.6 31.56C244.59 29.76 244.58 27.97 244.57 26.17C244.56 25.33 244.54 24.48 244.52 23.61C244.54 19.54 244.67 17.52 246.91 14.01C250.75 10.32 253.64 9.36002 259 10Z" fill="#DEDEDE"/>
</svg>
