<svg width="512" height="512" viewBox="0 0 512 512" fill="none" xmlns="http://www.w3.org/2000/svg">
<rect width="512" height="512" rx="32" fill="url(#paint0_radial_226_235)"/>
<path d="M386.317 386.524L428.727 342.567H78.7267L121.137 386.524L78.7267 430.482H428.727L386.317 386.524Z" fill="#4071F7" stroke="#4071F7" stroke-width="10" stroke-linecap="round" stroke-linejoin="round"/>
<path d="M432.184 338.95L422.324 329.095L404.227 340.524L414.727 350.024L432.184 338.95Z" fill="#4071F7"/>
<path d="M65.3517 424.169L75.2111 434.024L93.3087 422.595L82.8087 413.095L65.3517 424.169Z" fill="#4071F7"/>
<path d="M376.317 376.524L418.727 332.567H68.7267L111.137 376.524L68.7267 420.482H418.727L376.317 376.524Z" fill="#5392F9" stroke="#5392F9" stroke-width="10" stroke-linecap="round" stroke-linejoin="round"/>
<path d="M142.2 371.636H165.6V382.292H142.2V371.636ZM143.208 391.508H169.56V402.524H129.096V352.124H168.624V363.14H143.208V391.508ZM184.383 402.524L206.631 352.124H220.671L242.991 402.524H228.159L210.735 359.108H216.351L198.927 402.524H184.383ZM196.551 392.732L200.223 382.22H224.847L228.519 392.732H196.551ZM277.705 403.532C273.577 403.532 269.593 403.028 265.753 402.02C261.961 400.964 258.865 399.62 256.465 397.988L261.145 387.476C263.401 388.916 265.993 390.116 268.921 391.076C271.897 391.988 274.849 392.444 277.777 392.444C279.745 392.444 281.329 392.276 282.529 391.94C283.729 391.556 284.593 391.076 285.121 390.5C285.697 389.876 285.985 389.156 285.985 388.34C285.985 387.188 285.457 386.276 284.401 385.604C283.345 384.932 281.977 384.38 280.297 383.948C278.617 383.516 276.745 383.084 274.681 382.652C272.665 382.22 270.625 381.668 268.561 380.996C266.545 380.324 264.697 379.46 263.017 378.404C261.337 377.3 259.969 375.884 258.913 374.156C257.857 372.38 257.329 370.148 257.329 367.46C257.329 364.436 258.145 361.7 259.777 359.252C261.457 356.804 263.953 354.836 267.265 353.348C270.577 351.86 274.705 351.116 279.649 351.116C282.961 351.116 286.201 351.5 289.369 352.268C292.585 352.988 295.441 354.068 297.937 355.508L293.545 366.092C291.145 364.796 288.769 363.836 286.417 363.212C284.065 362.54 281.785 362.204 279.577 362.204C277.609 362.204 276.025 362.42 274.825 362.852C273.625 363.236 272.761 363.764 272.233 364.436C271.705 365.108 271.441 365.876 271.441 366.74C271.441 367.844 271.945 368.732 272.953 369.404C274.009 370.028 275.377 370.556 277.057 370.988C278.785 371.372 280.657 371.78 282.673 372.212C284.737 372.644 286.777 373.196 288.793 373.868C290.857 374.492 292.729 375.356 294.409 376.46C296.089 377.516 297.433 378.932 298.441 380.708C299.497 382.436 300.025 384.62 300.025 387.26C300.025 390.188 299.185 392.9 297.505 395.396C295.873 397.844 293.401 399.812 290.089 401.3C286.825 402.788 282.697 403.532 277.705 403.532ZM331.259 402.524V381.212L334.571 389.78L312.035 352.124H327.083L343.355 379.412H334.643L350.987 352.124H364.811L342.347 389.78L345.515 381.212V402.524H331.259Z" fill="#DCEAFC"/>
<path d="M444.06 105.242L427.032 80.5272L420.716 101.695L444.06 105.242Z" fill="#4071F7"/>
<path d="M68.5909 290.445L66.5909 276.945L73.8722 284.945L68.5909 290.445Z" fill="#4071F7"/>
<path d="M446.648 288.259V113.976C446.648 105.139 439.485 97.9755 430.648 97.9755H142.528C133.692 97.9755 126.528 105.139 126.528 113.976V122.424C126.528 131.046 119.696 138.118 111.079 138.414L83.8583 139.351C75.241 139.648 68.4086 146.719 68.4086 155.342V288.259C68.4086 297.096 75.572 304.259 84.4086 304.259H430.648C439.485 304.259 446.648 297.096 446.648 288.259Z" fill="#4071F7"/>
<path d="M117.398 85.9755C117.398 81.5572 120.98 77.9755 125.398 77.9755H272.023V119.149H117.398V85.9755Z" fill="#DCEAFC" stroke="#5392F9" stroke-width="4"/>
<rect x="117.398" y="119.149" width="154.625" height="41.1737" fill="#DCEAFC" stroke="#5392F9" stroke-width="4"/>
<path d="M68.4086 127.149C68.4086 122.731 71.9903 119.149 76.4086 119.149H117.215V160.323H68.4086V127.149Z" fill="#DCEAFC" stroke="#5392F9" stroke-width="4"/>
<rect x="117.398" y="160.461" width="154.625" height="41.1737" fill="#DCEAFC" stroke="#5392F9" stroke-width="4"/>
<rect x="68.4086" y="160.461" width="48.8066" height="41.1737" fill="#DCEAFC" stroke="#5392F9" stroke-width="4"/>
<rect x="117.398" y="201.773" width="154.625" height="41.1737" fill="#DCEAFC" stroke="#5392F9" stroke-width="4"/>
<rect x="68.4086" y="201.773" width="48.8066" height="41.1737" fill="#DCEAFC" stroke="#5392F9" stroke-width="4"/>
<path d="M117.398 243.085H272.023V284.259H117.398V243.085Z" fill="#DCEAFC" stroke="#5392F9" stroke-width="4"/>
<path d="M68.4086 243.085H117.215V284.259H76.4086C71.9903 284.259 68.4086 280.677 68.4086 276.259V243.085Z" fill="#DCEAFC" stroke="#5392F9" stroke-width="4"/>
<path d="M272.023 77.9755H418.648C423.067 77.9755 426.648 81.5572 426.648 85.9755V119.149H272.023V77.9755Z" fill="#DCEAFC" stroke="#5392F9" stroke-width="4"/>
<rect x="272.023" y="119.149" width="154.625" height="41.1737" fill="#DCEAFC" stroke="#5392F9" stroke-width="4"/>
<rect x="272.023" y="160.461" width="154.625" height="41.1737" fill="#DCEAFC" stroke="#5392F9" stroke-width="4"/>
<rect x="272.023" y="201.773" width="154.625" height="41.1737" fill="#DCEAFC" stroke="#5392F9" stroke-width="4"/>
<path d="M272.023 243.085H426.648V276.259C426.648 280.677 423.067 284.259 418.648 284.259H272.023V243.085Z" fill="#DCEAFC" stroke="#5392F9" stroke-width="4"/>
<rect x="131.267" y="131.543" width="89.7063" height="16.3864" rx="4" fill="#5392F9"/>
<rect x="131.267" y="172.855" width="110.362" height="16.3864" rx="4" fill="#5392F9"/>
<rect x="131.267" y="214.167" width="51.345" height="16.3864" rx="4" fill="#5392F9"/>
<rect x="131.267" y="255.406" width="97.3785" height="16.3864" rx="4" fill="#5392F9"/>
<path d="M294.152 139.914V138.374H298.992V139.914H294.152ZM294.152 142.664V141.124H298.992V142.664H294.152ZM300.143 144.149L302.112 136.119H304.202L306.193 144.149H304.51L304.125 142.334H302.211L301.826 144.149H300.143ZM302.486 141.014H303.839L303.454 139.078C303.403 138.8 303.348 138.525 303.289 138.253C303.238 137.975 303.197 137.758 303.168 137.604C303.139 137.758 303.098 137.971 303.047 138.242C303.003 138.514 302.952 138.789 302.893 139.067L302.486 141.014ZM307.157 144.149V136.119H309.764C310.321 136.119 310.805 136.226 311.216 136.438C311.634 136.651 311.956 136.952 312.184 137.34C312.418 137.722 312.536 138.173 312.536 138.693V141.564C312.536 142.078 312.418 142.529 312.184 142.917C311.956 143.306 311.634 143.61 311.216 143.83C310.805 144.043 310.321 144.149 309.764 144.149H307.157ZM308.807 142.609H309.764C310.101 142.609 310.372 142.514 310.578 142.323C310.783 142.133 310.886 141.88 310.886 141.564V138.693C310.886 138.385 310.783 138.136 310.578 137.945C310.372 137.755 310.101 137.659 309.764 137.659H308.807V142.609ZM313.774 144.149V136.119H316.359C316.931 136.119 317.426 136.218 317.844 136.416C318.262 136.614 318.585 136.897 318.812 137.263C319.047 137.63 319.164 138.063 319.164 138.561C319.164 139.082 319.036 139.548 318.779 139.958C318.53 140.369 318.189 140.666 317.756 140.849L319.274 144.149H317.481L316.183 141.113H315.413V144.149H313.774ZM315.413 139.683H316.359C316.726 139.683 317.008 139.592 317.206 139.408C317.412 139.225 317.514 138.968 317.514 138.638C317.514 138.294 317.412 138.026 317.206 137.835C317.008 137.645 316.726 137.549 316.359 137.549H315.413V139.683ZM320.315 145.964V144.424H325.595V145.964H320.315ZM329.551 144.259C328.737 144.259 328.091 144.039 327.615 143.599C327.145 143.159 326.911 142.558 326.911 141.795V136.119H328.561V141.784C328.561 142.122 328.645 142.382 328.814 142.565C328.99 142.741 329.235 142.829 329.551 142.829C329.859 142.829 330.101 142.741 330.277 142.565C330.453 142.382 330.541 142.122 330.541 141.784V136.119H332.191V141.795C332.191 142.551 331.952 143.152 331.476 143.599C331.006 144.039 330.365 144.259 329.551 144.259ZM336.146 144.259C335.582 144.259 335.09 144.164 334.672 143.973C334.254 143.783 333.932 143.515 333.704 143.17C333.477 142.826 333.363 142.419 333.363 141.949H335.013C335.013 142.221 335.116 142.437 335.321 142.598C335.534 142.752 335.82 142.829 336.179 142.829C336.524 142.829 336.792 142.752 336.982 142.598C337.18 142.444 337.279 142.232 337.279 141.96C337.279 141.726 337.206 141.524 337.059 141.355C336.913 141.187 336.707 141.073 336.443 141.014L335.629 140.827C334.947 140.666 334.416 140.369 334.034 139.936C333.66 139.496 333.473 138.961 333.473 138.33C333.473 137.861 333.58 137.454 333.792 137.109C334.012 136.757 334.32 136.486 334.716 136.295C335.112 136.105 335.582 136.009 336.124 136.009C336.946 136.009 337.595 136.215 338.071 136.625C338.555 137.029 338.797 137.575 338.797 138.264H337.147C337.147 138.008 337.056 137.806 336.872 137.659C336.696 137.513 336.44 137.439 336.102 137.439C335.787 137.439 335.545 137.513 335.376 137.659C335.208 137.799 335.123 138 335.123 138.264C335.123 138.499 335.189 138.701 335.321 138.869C335.461 139.031 335.655 139.141 335.904 139.199L336.762 139.397C337.474 139.559 338.013 139.852 338.379 140.277C338.746 140.695 338.929 141.231 338.929 141.883C338.929 142.353 338.812 142.767 338.577 143.126C338.35 143.486 338.027 143.764 337.609 143.962C337.199 144.16 336.711 144.259 336.146 144.259ZM340.102 145.964V144.424H345.382V145.964H340.102ZM348.513 144.149V137.659H346.478V136.119H352.198V137.659H350.163V144.149H348.513ZM355.934 144.259C355.398 144.259 354.933 144.16 354.537 143.962C354.141 143.757 353.833 143.475 353.613 143.115C353.4 142.749 353.294 142.323 353.294 141.839V138.429C353.294 137.945 353.4 137.524 353.613 137.164C353.833 136.798 354.141 136.515 354.537 136.317C354.933 136.112 355.398 136.009 355.934 136.009C356.476 136.009 356.942 136.112 357.331 136.317C357.727 136.515 358.031 136.798 358.244 137.164C358.464 137.524 358.574 137.945 358.574 138.429V141.839C358.574 142.323 358.464 142.749 358.244 143.115C358.031 143.475 357.727 143.757 357.331 143.962C356.942 144.16 356.476 144.259 355.934 144.259ZM355.934 142.829C356.264 142.829 356.509 142.745 356.671 142.576C356.839 142.4 356.924 142.155 356.924 141.839V138.429C356.924 138.107 356.843 137.861 356.682 137.692C356.52 137.524 356.271 137.439 355.934 137.439C355.596 137.439 355.347 137.524 355.186 137.692C355.024 137.861 354.944 138.107 354.944 138.429V141.839C354.944 142.155 355.024 142.4 355.186 142.576C355.354 142.745 355.604 142.829 355.934 142.829ZM359.889 145.964V144.424H365.169V145.964H359.889ZM369.125 144.259C368.311 144.259 367.666 144.039 367.189 143.599C366.72 143.159 366.485 142.558 366.485 141.795V136.119H368.135V141.784C368.135 142.122 368.219 142.382 368.388 142.565C368.564 142.741 368.81 142.829 369.125 142.829C369.433 142.829 369.675 142.741 369.851 142.565C370.027 142.382 370.115 142.122 370.115 141.784V136.119H371.765V141.795C371.765 142.551 371.527 143.152 371.05 143.599C370.581 144.039 369.939 144.259 369.125 144.259ZM373.136 144.149V136.119H374.786V139.232H375.567L376.887 136.119H378.68L377.03 139.958L378.746 144.149H376.931L375.567 140.75H374.786V144.149H373.136ZM384.351 145.469C383.185 145.154 382.287 144.63 381.656 143.896C381.033 143.156 380.721 142.254 380.721 141.19V139.199C380.721 138.503 380.864 137.868 381.15 137.296C381.444 136.724 381.862 136.237 382.404 135.833C382.947 135.423 383.596 135.115 384.351 134.909V136.559C383.941 136.662 383.585 136.834 383.284 137.076C382.991 137.318 382.764 137.619 382.602 137.978C382.448 138.338 382.371 138.745 382.371 139.199V141.19C382.371 141.63 382.448 142.03 382.602 142.389C382.764 142.741 382.991 143.038 383.284 143.28C383.585 143.522 383.941 143.695 384.351 143.797V145.469ZM385.887 144.149L387.856 136.119H389.946L391.937 144.149H390.254L389.869 142.334H387.955L387.57 144.149H385.887ZM388.23 141.014H389.583L389.198 139.078C389.147 138.8 389.092 138.525 389.033 138.253C388.982 137.975 388.941 137.758 388.912 137.604C388.883 137.758 388.842 137.971 388.791 138.242C388.747 138.514 388.696 138.789 388.637 139.067L388.23 141.014ZM393.088 144.149V142.719H395.112V137.626L393.066 139.144V137.439L394.947 136.119H396.762V142.719H398.368V144.149H393.088ZM400.069 145.469V143.797C400.479 143.695 400.831 143.522 401.125 143.28C401.425 143.038 401.653 142.741 401.807 142.389C401.968 142.03 402.049 141.63 402.049 141.19V139.199C402.049 138.745 401.968 138.338 401.807 137.978C401.653 137.619 401.429 137.318 401.136 137.076C400.842 136.834 400.487 136.662 400.069 136.559V134.909C400.831 135.115 401.48 135.423 402.016 135.833C402.558 136.237 402.973 136.724 403.259 137.296C403.552 137.868 403.699 138.503 403.699 139.199V141.19C403.699 142.254 403.383 143.156 402.753 143.896C402.129 144.63 401.235 145.154 400.069 145.469Z" fill="#5392F9"/>
<path d="M294.152 181.226V179.686H298.992V181.226H294.152ZM294.152 183.976V182.436H298.992V183.976H294.152ZM300.143 185.461L302.112 177.431H304.202L306.193 185.461H304.51L304.125 183.646H302.211L301.826 185.461H300.143ZM302.486 182.326H303.839L303.454 180.39C303.403 180.112 303.348 179.837 303.289 179.565C303.238 179.287 303.197 179.07 303.168 178.916C303.139 179.07 303.098 179.283 303.047 179.554C303.003 179.826 302.952 180.101 302.893 180.379L302.486 182.326ZM307.157 185.461V177.431H309.764C310.321 177.431 310.805 177.538 311.216 177.75C311.634 177.963 311.956 178.264 312.184 178.652C312.418 179.034 312.536 179.485 312.536 180.005V182.876C312.536 183.39 312.418 183.841 312.184 184.229C311.956 184.618 311.634 184.922 311.216 185.142C310.805 185.355 310.321 185.461 309.764 185.461H307.157ZM308.807 183.921H309.764C310.101 183.921 310.372 183.826 310.578 183.635C310.783 183.445 310.886 183.192 310.886 182.876V180.005C310.886 179.697 310.783 179.448 310.578 179.257C310.372 179.067 310.101 178.971 309.764 178.971H308.807V183.921ZM313.774 185.461V177.431H316.359C316.931 177.431 317.426 177.53 317.844 177.728C318.262 177.926 318.585 178.209 318.812 178.575C319.047 178.942 319.164 179.375 319.164 179.873C319.164 180.394 319.036 180.86 318.779 181.27C318.53 181.681 318.189 181.978 317.756 182.161L319.274 185.461H317.481L316.183 182.425H315.413V185.461H313.774ZM315.413 180.995H316.359C316.726 180.995 317.008 180.904 317.206 180.72C317.412 180.537 317.514 180.28 317.514 179.95C317.514 179.606 317.412 179.338 317.206 179.147C317.008 178.957 316.726 178.861 316.359 178.861H315.413V180.995ZM320.315 187.276V185.736H325.595V187.276H320.315ZM329.551 185.571C328.737 185.571 328.091 185.351 327.615 184.911C327.145 184.471 326.911 183.87 326.911 183.107V177.431H328.561V183.096C328.561 183.434 328.645 183.694 328.814 183.877C328.99 184.053 329.235 184.141 329.551 184.141C329.859 184.141 330.101 184.053 330.277 183.877C330.453 183.694 330.541 183.434 330.541 183.096V177.431H332.191V183.107C332.191 183.863 331.952 184.464 331.476 184.911C331.006 185.351 330.365 185.571 329.551 185.571ZM333.561 185.461V177.431H335.211V180.544H335.992L337.312 177.431H339.105L337.455 181.27L339.171 185.461H337.356L335.992 182.062H335.211V185.461H333.561ZM340.102 187.276V185.736H345.382V187.276H340.102ZM348.513 185.461V178.971H346.478V177.431H352.198V178.971H350.163V185.461H348.513ZM355.933 185.571C355.398 185.571 354.932 185.472 354.536 185.274C354.14 185.069 353.832 184.787 353.612 184.427C353.4 184.061 353.293 183.635 353.293 183.151V179.741C353.293 179.257 353.4 178.836 353.612 178.476C353.832 178.11 354.14 177.827 354.536 177.629C354.932 177.424 355.398 177.321 355.933 177.321C356.476 177.321 356.942 177.424 357.33 177.629C357.726 177.827 358.031 178.11 358.243 178.476C358.463 178.836 358.573 179.257 358.573 179.741V183.151C358.573 183.635 358.463 184.061 358.243 184.427C358.031 184.787 357.726 185.069 357.33 185.274C356.942 185.472 356.476 185.571 355.933 185.571ZM355.933 184.141C356.263 184.141 356.509 184.057 356.67 183.888C356.839 183.712 356.923 183.467 356.923 183.151V179.741C356.923 179.419 356.843 179.173 356.681 179.004C356.52 178.836 356.271 178.751 355.933 178.751C355.596 178.751 355.347 178.836 355.185 179.004C355.024 179.173 354.943 179.419 354.943 179.741V183.151C354.943 183.467 355.024 183.712 355.185 183.888C355.354 184.057 355.603 184.141 355.933 184.141ZM359.889 187.276V185.736H365.169V187.276H359.889ZM369.125 185.571C368.311 185.571 367.666 185.351 367.189 184.911C366.72 184.471 366.485 183.87 366.485 183.107V177.431H368.135V183.096C368.135 183.434 368.219 183.694 368.388 183.877C368.564 184.053 368.81 184.141 369.125 184.141C369.433 184.141 369.675 184.053 369.851 183.877C370.027 183.694 370.115 183.434 370.115 183.096V177.431H371.765V183.107C371.765 183.863 371.527 184.464 371.05 184.911C370.581 185.351 369.939 185.571 369.125 185.571ZM375.721 185.571C375.156 185.571 374.665 185.476 374.247 185.285C373.829 185.095 373.506 184.827 373.279 184.482C373.051 184.138 372.938 183.731 372.938 183.261H374.588C374.588 183.533 374.69 183.749 374.896 183.91C375.108 184.064 375.394 184.141 375.754 184.141C376.098 184.141 376.366 184.064 376.557 183.91C376.755 183.756 376.854 183.544 376.854 183.272C376.854 183.038 376.78 182.836 376.634 182.667C376.487 182.499 376.282 182.385 376.018 182.326L375.204 182.139C374.522 181.978 373.99 181.681 373.609 181.248C373.235 180.808 373.048 180.273 373.048 179.642C373.048 179.173 373.154 178.766 373.367 178.421C373.587 178.069 373.895 177.798 374.291 177.607C374.687 177.417 375.156 177.321 375.699 177.321C376.52 177.321 377.169 177.527 377.646 177.937C378.13 178.341 378.372 178.887 378.372 179.576H376.722C376.722 179.32 376.63 179.118 376.447 178.971C376.271 178.825 376.014 178.751 375.677 178.751C375.361 178.751 375.119 178.825 374.951 178.971C374.782 179.111 374.698 179.312 374.698 179.576C374.698 179.811 374.764 180.013 374.896 180.181C375.035 180.343 375.229 180.453 375.479 180.511L376.337 180.709C377.048 180.871 377.587 181.164 377.954 181.589C378.32 182.007 378.504 182.543 378.504 183.195C378.504 183.665 378.386 184.079 378.152 184.438C377.924 184.798 377.602 185.076 377.184 185.274C376.773 185.472 376.285 185.571 375.721 185.571ZM384.351 186.781C383.185 186.466 382.287 185.942 381.656 185.208C381.033 184.468 380.721 183.566 380.721 182.502V180.511C380.721 179.815 380.864 179.18 381.15 178.608C381.444 178.036 381.862 177.549 382.404 177.145C382.947 176.735 383.596 176.427 384.351 176.221V177.871C383.941 177.974 383.585 178.146 383.284 178.388C382.991 178.63 382.764 178.931 382.602 179.29C382.448 179.65 382.371 180.057 382.371 180.511V182.502C382.371 182.942 382.448 183.342 382.602 183.701C382.764 184.053 382.991 184.35 383.284 184.592C383.585 184.834 383.941 185.007 384.351 185.109V186.781ZM385.887 185.461L387.856 177.431H389.946L391.937 185.461H390.254L389.869 183.646H387.955L387.57 185.461H385.887ZM388.23 182.326H389.583L389.198 180.39C389.147 180.112 389.092 179.837 389.033 179.565C388.982 179.287 388.941 179.07 388.912 178.916C388.883 179.07 388.842 179.283 388.791 179.554C388.747 179.826 388.696 180.101 388.637 180.379L388.23 182.326ZM392.978 185.461V183.91L395.53 181.446C395.83 181.153 396.054 180.882 396.201 180.632C396.355 180.383 396.432 180.112 396.432 179.818C396.432 179.496 396.344 179.246 396.168 179.07C395.999 178.894 395.764 178.806 395.464 178.806C395.134 178.806 394.873 178.905 394.683 179.103C394.499 179.294 394.408 179.562 394.408 179.906H392.758C392.758 179.378 392.868 178.924 393.088 178.542C393.315 178.154 393.634 177.853 394.045 177.64C394.455 177.428 394.939 177.321 395.497 177.321C396.017 177.321 396.468 177.42 396.85 177.618C397.238 177.809 397.539 178.077 397.752 178.421C397.972 178.766 398.082 179.173 398.082 179.642C398.082 180.163 397.953 180.662 397.697 181.138C397.44 181.615 397.029 182.114 396.465 182.634L395.013 183.976H398.17V185.461H392.978ZM400.068 186.781V185.109C400.479 185.007 400.831 184.834 401.124 184.592C401.425 184.35 401.652 184.053 401.806 183.701C401.968 183.342 402.048 182.942 402.048 182.502V180.511C402.048 180.057 401.968 179.65 401.806 179.29C401.652 178.931 401.429 178.63 401.135 178.388C400.842 178.146 400.486 177.974 400.068 177.871V176.221C400.831 176.427 401.48 176.735 402.015 177.145C402.558 177.549 402.972 178.036 403.258 178.608C403.552 179.18 403.698 179.815 403.698 180.511V182.502C403.698 183.566 403.383 184.468 402.752 185.208C402.129 185.942 401.234 186.466 400.068 186.781Z" fill="#5392F9"/>
<path d="M287.557 222.538V220.998H292.397V222.538H287.557ZM287.557 225.288V223.748H292.397V225.288H287.557ZM293.547 226.773L295.516 218.743H297.606L299.597 226.773H297.914L297.529 224.958H295.615L295.23 226.773H293.547ZM295.89 223.638H297.243L296.858 221.702C296.807 221.424 296.752 221.149 296.693 220.877C296.642 220.599 296.602 220.382 296.572 220.228C296.543 220.382 296.503 220.595 296.451 220.866C296.407 221.138 296.356 221.413 296.297 221.691L295.89 223.638ZM300.561 226.773V218.743H303.168C303.725 218.743 304.209 218.85 304.62 219.062C305.038 219.275 305.361 219.576 305.588 219.964C305.823 220.346 305.94 220.797 305.94 221.317V224.188C305.94 224.702 305.823 225.153 305.588 225.541C305.361 225.93 305.038 226.234 304.62 226.454C304.209 226.667 303.725 226.773 303.168 226.773H300.561ZM302.211 225.233H303.168C303.505 225.233 303.777 225.138 303.982 224.947C304.187 224.757 304.29 224.504 304.29 224.188V221.317C304.29 221.009 304.187 220.76 303.982 220.569C303.777 220.379 303.505 220.283 303.168 220.283H302.211V225.233ZM307.179 226.773V218.743H309.764C310.336 218.743 310.831 218.842 311.249 219.04C311.667 219.238 311.989 219.521 312.217 219.887C312.451 220.254 312.569 220.687 312.569 221.185C312.569 221.706 312.44 222.172 312.184 222.582C311.934 222.993 311.593 223.29 311.161 223.473L312.679 226.773H310.886L309.588 223.737H308.818V226.773H307.179ZM308.818 222.307H309.764C310.13 222.307 310.413 222.216 310.611 222.032C310.816 221.849 310.919 221.592 310.919 221.262C310.919 220.918 310.816 220.65 310.611 220.459C310.413 220.269 310.13 220.173 309.764 220.173H308.818V222.307ZM313.719 228.588V227.048H318.999V228.588H313.719ZM320.535 226.773V218.743H325.485V220.151H322.152V221.955H325.1V223.363H322.152V225.365H325.485V226.773H320.535ZM326.471 226.773L328.627 222.626L326.614 218.743H328.429L329.265 220.503C329.345 220.665 329.411 220.811 329.463 220.943C329.521 221.075 329.558 221.171 329.573 221.229C329.587 221.171 329.62 221.075 329.672 220.943C329.723 220.811 329.785 220.665 329.859 220.503L330.717 218.743H332.488L330.475 222.626L332.631 226.773H330.816L329.848 224.793C329.774 224.632 329.708 224.482 329.65 224.342C329.591 224.203 329.547 224.097 329.518 224.023C329.496 224.097 329.459 224.203 329.408 224.342C329.356 224.482 329.29 224.632 329.21 224.793L328.242 226.773H326.471ZM335.321 226.773V220.283H333.286V218.743H339.006V220.283H336.971V226.773H335.321ZM340.157 226.773V218.743H342.742C343.314 218.743 343.809 218.842 344.227 219.04C344.645 219.238 344.968 219.521 345.195 219.887C345.43 220.254 345.547 220.687 345.547 221.185C345.547 221.706 345.419 222.172 345.162 222.582C344.913 222.993 344.572 223.29 344.139 223.473L345.657 226.773H343.864L342.566 223.737H341.796V226.773H340.157ZM341.796 222.307H342.742C343.109 222.307 343.391 222.216 343.589 222.032C343.795 221.849 343.897 221.592 343.897 221.262C343.897 220.918 343.795 220.65 343.589 220.459C343.391 220.269 343.109 220.173 342.742 220.173H341.796V222.307ZM346.313 226.773L348.282 218.743H350.372L352.363 226.773H350.68L350.295 224.958H348.381L347.996 226.773H346.313ZM348.656 223.638H350.009L349.624 221.702C349.573 221.424 349.518 221.149 349.459 220.877C349.408 220.599 349.367 220.382 349.338 220.228C349.309 220.382 349.268 220.595 349.217 220.866C349.173 221.138 349.122 221.413 349.063 221.691L348.656 223.638ZM355.978 226.883C355.442 226.883 354.973 226.784 354.57 226.586C354.166 226.381 353.851 226.099 353.624 225.739C353.404 225.373 353.294 224.947 353.294 224.463V221.053C353.294 220.562 353.404 220.137 353.624 219.777C353.851 219.418 354.166 219.139 354.57 218.941C354.973 218.736 355.442 218.633 355.978 218.633C356.52 218.633 356.99 218.736 357.386 218.941C357.789 219.139 358.101 219.418 358.321 219.777C358.548 220.137 358.662 220.562 358.662 221.053H357.012C357.012 220.731 356.92 220.485 356.737 220.316C356.561 220.148 356.308 220.063 355.978 220.063C355.648 220.063 355.391 220.148 355.208 220.316C355.032 220.485 354.944 220.731 354.944 221.053V224.463C354.944 224.779 355.032 225.024 355.208 225.2C355.391 225.369 355.648 225.453 355.978 225.453C356.308 225.453 356.561 225.369 356.737 225.2C356.92 225.024 357.012 224.779 357.012 224.463H358.662C358.662 224.947 358.548 225.373 358.321 225.739C358.101 226.099 357.789 226.381 357.386 226.586C356.99 226.784 356.52 226.883 355.978 226.883ZM361.704 226.773V220.283H359.669V218.743H365.389V220.283H363.354V226.773H361.704ZM366.485 228.588V227.048H371.765V228.588H366.485ZM375.721 226.883C374.907 226.883 374.261 226.663 373.785 226.223C373.315 225.783 373.081 225.182 373.081 224.419V218.743H374.731V224.408C374.731 224.746 374.815 225.006 374.984 225.189C375.16 225.365 375.405 225.453 375.721 225.453C376.029 225.453 376.271 225.365 376.447 225.189C376.623 225.006 376.711 224.746 376.711 224.408V218.743H378.361V224.419C378.361 225.175 378.122 225.776 377.646 226.223C377.176 226.663 376.535 226.883 375.721 226.883ZM382.316 226.883C381.752 226.883 381.26 226.788 380.842 226.597C380.424 226.407 380.102 226.139 379.874 225.794C379.647 225.45 379.533 225.043 379.533 224.573H381.183C381.183 224.845 381.286 225.061 381.491 225.222C381.704 225.376 381.99 225.453 382.349 225.453C382.694 225.453 382.962 225.376 383.152 225.222C383.35 225.068 383.449 224.856 383.449 224.584C383.449 224.35 383.376 224.148 383.229 223.979C383.083 223.811 382.877 223.697 382.613 223.638L381.799 223.451C381.117 223.29 380.586 222.993 380.204 222.56C379.83 222.12 379.643 221.585 379.643 220.954C379.643 220.485 379.75 220.078 379.962 219.733C380.182 219.381 380.49 219.11 380.886 218.919C381.282 218.729 381.752 218.633 382.294 218.633C383.116 218.633 383.765 218.839 384.241 219.249C384.725 219.653 384.967 220.199 384.967 220.888H383.317C383.317 220.632 383.226 220.43 383.042 220.283C382.866 220.137 382.61 220.063 382.272 220.063C381.957 220.063 381.715 220.137 381.546 220.283C381.378 220.423 381.293 220.624 381.293 220.888C381.293 221.123 381.359 221.325 381.491 221.493C381.631 221.655 381.825 221.765 382.074 221.823L382.932 222.021C383.644 222.183 384.183 222.476 384.549 222.901C384.916 223.319 385.099 223.855 385.099 224.507C385.099 224.977 384.982 225.391 384.747 225.75C384.52 226.11 384.197 226.388 383.779 226.586C383.369 226.784 382.881 226.883 382.316 226.883ZM390.947 228.093C389.781 227.778 388.883 227.254 388.252 226.52C387.629 225.78 387.317 224.878 387.317 223.814V221.823C387.317 221.127 387.46 220.492 387.746 219.92C388.039 219.348 388.457 218.861 389 218.457C389.543 218.047 390.192 217.739 390.947 217.533V219.183C390.536 219.286 390.181 219.458 389.88 219.7C389.587 219.942 389.359 220.243 389.198 220.602C389.044 220.962 388.967 221.369 388.967 221.823V223.814C388.967 224.254 389.044 224.654 389.198 225.013C389.359 225.365 389.587 225.662 389.88 225.904C390.181 226.146 390.536 226.319 390.947 226.421V228.093ZM392.483 226.773L394.452 218.743H396.542L398.533 226.773H396.85L396.465 224.958H394.551L394.166 226.773H392.483ZM394.826 223.638H396.179L395.794 221.702C395.742 221.424 395.687 221.149 395.629 220.877C395.577 220.599 395.537 220.382 395.508 220.228C395.478 220.382 395.438 220.595 395.387 220.866C395.343 221.138 395.291 221.413 395.233 221.691L394.826 223.638ZM402.06 226.883C401.51 226.883 401.033 226.792 400.63 226.608C400.234 226.418 399.926 226.15 399.706 225.805C399.486 225.453 399.376 225.043 399.376 224.573H401.026C401.026 224.867 401.114 225.098 401.29 225.266C401.473 225.428 401.73 225.508 402.06 225.508C402.397 225.508 402.654 225.428 402.83 225.266C403.006 225.105 403.094 224.874 403.094 224.573V223.913C403.094 223.613 403.002 223.382 402.819 223.22C402.643 223.052 402.39 222.967 402.06 222.967H401.114V221.548L402.731 220.118H399.761V218.743H404.414V220.162L402.06 222.241V221.57C402.888 221.57 403.541 221.779 404.018 222.197C404.502 222.615 404.744 223.184 404.744 223.902V224.573C404.744 225.043 404.634 225.453 404.414 225.805C404.201 226.15 403.893 226.418 403.49 226.608C403.086 226.792 402.61 226.883 402.06 226.883ZM406.664 228.093V226.421C407.075 226.319 407.427 226.146 407.72 225.904C408.021 225.662 408.248 225.365 408.402 225.013C408.564 224.654 408.644 224.254 408.644 223.814V221.823C408.644 221.369 408.564 220.962 408.402 220.602C408.248 220.243 408.025 219.942 407.731 219.7C407.438 219.458 407.082 219.286 406.664 219.183V217.533C407.427 217.739 408.076 218.047 408.611 218.457C409.154 218.861 409.568 219.348 409.854 219.92C410.148 220.492 410.294 221.127 410.294 221.823V223.814C410.294 224.878 409.979 225.78 409.348 226.52C408.725 227.254 407.83 227.778 406.664 228.093Z" fill="#5392F9"/>
<path d="M287.557 263.85V262.31H292.397V263.85H287.557ZM287.557 266.6V265.06H292.397V266.6H287.557ZM293.547 268.085L295.516 260.055H297.606L299.597 268.085H297.914L297.529 266.27H295.615L295.23 268.085H293.547ZM295.89 264.95H297.243L296.858 263.014C296.807 262.736 296.752 262.461 296.693 262.189C296.642 261.911 296.602 261.694 296.572 261.54C296.543 261.694 296.503 261.907 296.451 262.178C296.407 262.45 296.356 262.725 296.297 263.003L295.89 264.95ZM300.561 268.085V260.055H303.168C303.725 260.055 304.209 260.162 304.62 260.374C305.038 260.587 305.361 260.888 305.588 261.276C305.823 261.658 305.94 262.109 305.94 262.629V265.5C305.94 266.014 305.823 266.465 305.588 266.853C305.361 267.242 305.038 267.546 304.62 267.766C304.209 267.979 303.725 268.085 303.168 268.085H300.561ZM302.211 266.545H303.168C303.505 266.545 303.777 266.45 303.982 266.259C304.187 266.069 304.29 265.816 304.29 265.5V262.629C304.29 262.321 304.187 262.072 303.982 261.881C303.777 261.691 303.505 261.595 303.168 261.595H302.211V266.545ZM307.179 268.085V260.055H309.764C310.336 260.055 310.831 260.154 311.249 260.352C311.667 260.55 311.989 260.833 312.217 261.199C312.451 261.566 312.569 261.999 312.569 262.497C312.569 263.018 312.44 263.484 312.184 263.894C311.934 264.305 311.593 264.602 311.161 264.785L312.679 268.085H310.886L309.588 265.049H308.818V268.085H307.179ZM308.818 263.619H309.764C310.13 263.619 310.413 263.528 310.611 263.344C310.816 263.161 310.919 262.904 310.919 262.574C310.919 262.23 310.816 261.962 310.611 261.771C310.413 261.581 310.13 261.485 309.764 261.485H308.818V263.619ZM313.719 269.9V268.36H318.999V269.9H313.719ZM320.535 268.085V260.055H325.485V261.463H322.152V263.267H325.1V264.675H322.152V266.677H325.485V268.085H320.535ZM326.471 268.085L328.627 263.938L326.614 260.055H328.429L329.265 261.815C329.345 261.977 329.411 262.123 329.463 262.255C329.521 262.387 329.558 262.483 329.573 262.541C329.587 262.483 329.62 262.387 329.672 262.255C329.723 262.123 329.785 261.977 329.859 261.815L330.717 260.055H332.488L330.475 263.938L332.631 268.085H330.816L329.848 266.105C329.774 265.944 329.708 265.794 329.65 265.654C329.591 265.515 329.547 265.409 329.518 265.335C329.496 265.409 329.459 265.515 329.408 265.654C329.356 265.794 329.29 265.944 329.21 266.105L328.242 268.085H326.471ZM335.321 268.085V261.595H333.286V260.055H339.006V261.595H336.971V268.085H335.321ZM340.157 268.085V260.055H342.742C343.314 260.055 343.809 260.154 344.227 260.352C344.645 260.55 344.968 260.833 345.195 261.199C345.43 261.566 345.547 261.999 345.547 262.497C345.547 263.018 345.419 263.484 345.162 263.894C344.913 264.305 344.572 264.602 344.139 264.785L345.657 268.085H343.864L342.566 265.049H341.796V268.085H340.157ZM341.796 263.619H342.742C343.109 263.619 343.391 263.528 343.589 263.344C343.795 263.161 343.897 262.904 343.897 262.574C343.897 262.23 343.795 261.962 343.589 261.771C343.391 261.581 343.109 261.485 342.742 261.485H341.796V263.619ZM346.313 268.085L348.282 260.055H350.372L352.363 268.085H350.68L350.295 266.27H348.381L347.996 268.085H346.313ZM348.656 264.95H350.009L349.624 263.014C349.573 262.736 349.518 262.461 349.459 262.189C349.408 261.911 349.367 261.694 349.338 261.54C349.309 261.694 349.268 261.907 349.217 262.178C349.173 262.45 349.122 262.725 349.063 263.003L348.656 264.95ZM355.978 268.195C355.442 268.195 354.973 268.096 354.57 267.898C354.166 267.693 353.851 267.411 353.624 267.051C353.404 266.685 353.294 266.259 353.294 265.775V262.365C353.294 261.874 353.404 261.449 353.624 261.089C353.851 260.73 354.166 260.451 354.57 260.253C354.973 260.048 355.442 259.945 355.978 259.945C356.52 259.945 356.99 260.048 357.386 260.253C357.789 260.451 358.101 260.73 358.321 261.089C358.548 261.449 358.662 261.874 358.662 262.365H357.012C357.012 262.043 356.92 261.797 356.737 261.628C356.561 261.46 356.308 261.375 355.978 261.375C355.648 261.375 355.391 261.46 355.208 261.628C355.032 261.797 354.944 262.043 354.944 262.365V265.775C354.944 266.091 355.032 266.336 355.208 266.512C355.391 266.681 355.648 266.765 355.978 266.765C356.308 266.765 356.561 266.681 356.737 266.512C356.92 266.336 357.012 266.091 357.012 265.775H358.662C358.662 266.259 358.548 266.685 358.321 267.051C358.101 267.411 357.789 267.693 357.386 267.898C356.99 268.096 356.52 268.195 355.978 268.195ZM361.704 268.085V261.595H359.669V260.055H365.389V261.595H363.354V268.085H361.704ZM366.485 269.9V268.36H371.765V269.9H366.485ZM375.721 268.195C374.907 268.195 374.261 267.975 373.785 267.535C373.315 267.095 373.081 266.494 373.081 265.731V260.055H374.731V265.72C374.731 266.058 374.815 266.318 374.984 266.501C375.16 266.677 375.405 266.765 375.721 266.765C376.029 266.765 376.271 266.677 376.447 266.501C376.623 266.318 376.711 266.058 376.711 265.72V260.055H378.361V265.731C378.361 266.487 378.122 267.088 377.646 267.535C377.176 267.975 376.535 268.195 375.721 268.195ZM379.731 268.085V260.055H381.381V263.168H382.162L383.482 260.055H385.275L383.625 263.894L385.341 268.085H383.526L382.162 264.686H381.381V268.085H379.731ZM390.947 269.405C389.781 269.09 388.883 268.566 388.252 267.832C387.629 267.092 387.317 266.19 387.317 265.126V263.135C387.317 262.439 387.46 261.804 387.746 261.232C388.039 260.66 388.457 260.173 389 259.769C389.543 259.359 390.192 259.051 390.947 258.845V260.495C390.536 260.598 390.181 260.77 389.88 261.012C389.587 261.254 389.359 261.555 389.198 261.914C389.044 262.274 388.967 262.681 388.967 263.135V265.126C388.967 265.566 389.044 265.966 389.198 266.325C389.359 266.677 389.587 266.974 389.88 267.216C390.181 267.458 390.536 267.631 390.947 267.733V269.405ZM392.483 268.085L394.452 260.055H396.542L398.533 268.085H396.85L396.465 266.27H394.551L394.166 268.085H392.483ZM394.826 264.95H396.179L395.794 263.014C395.742 262.736 395.687 262.461 395.629 262.189C395.577 261.911 395.537 261.694 395.508 261.54C395.478 261.694 395.438 261.907 395.387 262.178C395.343 262.45 395.291 262.725 395.233 263.003L394.826 264.95ZM402.929 268.085V266.611H399.409V264.312L402.423 260.055H404.293L400.949 264.774V265.181H402.929V263.465H404.579V268.085H402.929ZM406.664 269.405V267.733C407.075 267.631 407.427 267.458 407.72 267.216C408.021 266.974 408.248 266.677 408.402 266.325C408.564 265.966 408.644 265.566 408.644 265.126V263.135C408.644 262.681 408.564 262.274 408.402 261.914C408.248 261.555 408.025 261.254 407.731 261.012C407.438 260.77 407.082 260.598 406.664 260.495V258.845C407.427 259.051 408.076 259.359 408.611 259.769C409.154 260.173 409.568 260.66 409.854 261.232C410.148 261.804 410.294 262.439 410.294 263.135V265.126C410.294 266.19 409.979 267.092 409.348 267.832C408.725 268.566 407.83 269.09 406.664 269.405Z" fill="#5392F9"/>
<path d="M188.115 106.976L192.411 89.4555H196.971L201.315 106.976H197.643L196.803 103.016H192.627L191.787 106.976H188.115ZM193.227 100.136H196.179L195.339 95.9115C195.227 95.3035 195.107 94.7035 194.979 94.1115C194.867 93.5035 194.779 93.0315 194.715 92.6955C194.651 93.0315 194.563 93.4955 194.451 94.0875C194.355 94.6795 194.243 95.2795 194.115 95.8875L193.227 100.136Z" fill="#5392F9"/>
<path d="M343.724 106.976V89.4555H349.364C351.14 89.4555 352.556 89.8635 353.612 90.6795C354.668 91.4795 355.196 92.5675 355.196 93.9435C355.196 94.7115 355.012 95.3835 354.644 95.9595C354.292 96.5355 353.812 96.9835 353.204 97.3035C352.612 97.6235 351.964 97.7835 351.26 97.7835V97.8555C352.044 97.8395 352.756 97.9835 353.396 98.2875C354.052 98.5915 354.58 99.0475 354.98 99.6555C355.38 100.264 355.58 101.016 355.58 101.912C355.58 102.936 355.332 103.832 354.836 104.6C354.356 105.352 353.668 105.936 352.772 106.352C351.876 106.768 350.812 106.976 349.58 106.976H343.724ZM347.204 104.072H349.436C350.22 104.072 350.836 103.864 351.284 103.448C351.732 103.032 351.956 102.456 351.956 101.72C351.956 100.984 351.732 100.408 351.284 99.9915C350.836 99.5595 350.22 99.3435 349.436 99.3435H347.204V104.072ZM347.204 96.5115H349.316C350.02 96.5115 350.572 96.3275 350.972 95.9595C351.372 95.5755 351.572 95.0635 351.572 94.4235C351.572 93.7675 351.372 93.2635 350.972 92.9115C350.572 92.5435 350.02 92.3595 349.316 92.3595H347.204V96.5115Z" fill="#5392F9"/>
<path d="M86.2531 148.149V145.029H90.6691V133.917L86.2051 137.229V133.509L90.3091 130.629H94.2691V145.029H97.7731V148.149H86.2531Z" fill="#5392F9"/>
<path d="M86.0131 189.6V186.216L91.5811 180.84C92.2371 180.2 92.7251 179.608 93.0451 179.064C93.3811 178.52 93.5491 177.928 93.5491 177.288C93.5491 176.584 93.3571 176.04 92.9731 175.656C92.6051 175.272 92.0931 175.08 91.4371 175.08C90.7171 175.08 90.1491 175.296 89.7331 175.728C89.3331 176.144 89.1331 176.728 89.1331 177.48H85.5331C85.5331 176.328 85.7731 175.336 86.2531 174.504C86.7491 173.656 87.4451 173 88.3411 172.536C89.2371 172.072 90.2931 171.84 91.5091 171.84C92.6451 171.84 93.6291 172.056 94.4611 172.488C95.3091 172.904 95.9651 173.488 96.4291 174.24C96.9091 174.992 97.1491 175.88 97.1491 176.904C97.1491 178.04 96.8691 179.128 96.3091 180.168C95.7491 181.208 94.8531 182.296 93.6211 183.432L90.4531 186.36H97.3411V189.6H86.0131Z" fill="#5392F9"/>
<path d="M91.4371 231.29C90.2371 231.29 89.1971 231.09 88.3171 230.69C87.4531 230.274 86.7811 229.69 86.3011 228.938C85.8211 228.17 85.5811 227.274 85.5811 226.25H89.1811C89.1811 226.89 89.3731 227.394 89.7571 227.762C90.1571 228.114 90.7171 228.29 91.4371 228.29C92.1731 228.29 92.7331 228.114 93.1171 227.762C93.5011 227.41 93.6931 226.906 93.6931 226.25V224.81C93.6931 224.154 93.4931 223.65 93.0931 223.298C92.7091 222.93 92.1571 222.746 91.4371 222.746H89.3731V219.65L92.9011 216.53H86.4211V213.53H96.5731V216.626L91.4371 221.162V219.698C93.2451 219.698 94.6691 220.154 95.7091 221.066C96.7651 221.978 97.2931 223.218 97.2931 224.786V226.25C97.2931 227.274 97.0531 228.17 96.5731 228.938C96.1091 229.69 95.4371 230.274 94.5571 230.69C93.6771 231.09 92.6371 231.29 91.4371 231.29Z" fill="#5392F9"/>
<path d="M93.3331 272.501V269.285H85.6531V264.269L92.2291 254.981H96.3091L89.0131 265.277V266.165H93.3331V262.421H96.9331V272.501H93.3331Z" fill="#5392F9"/>
<defs>
<radialGradient id="paint0_radial_226_235" cx="0" cy="0" r="1" gradientUnits="userSpaceOnUse" gradientTransform="translate(256 256) rotate(90) scale(256)">
<stop stop-color="#DCEAFC"/>
<stop offset="1" stop-color="white"/>
</radialGradient>
</defs>
</svg>
