<svg width="512" height="512" viewBox="0 0 512 512" fill="none" xmlns="http://www.w3.org/2000/svg">
<rect width="512" height="512" rx="32" fill="url(#paint0_radial_225_47)"/>
<path d="M148.022 201.079C156.706 206.799 166.606 210.749 177.025 211.778C177.344 211.812 177.667 211.846 178 211.876C195.354 213.493 212.438 209.058 226.528 198.712C229.743 196.546 233.82 196.757 237.501 197.404C238.246 197.556 238.986 197.713 239.726 197.874C240.123 197.962 240.525 198.046 240.936 198.139C247.513 199.624 253.845 201.834 259.848 204.917C260.147 205.074 260.446 205.225 260.755 205.382C270.199 210.288 279.207 217.095 285.823 225.5C286.033 225.765 286.244 226.029 286.46 226.304C290.189 231.013 293.355 235.851 296.114 241.183C296.354 241.633 296.59 242.079 296.84 242.535C298.04 244.956 298.241 246.304 297.585 249.024C296.82 250.587 295.904 252.018 294.948 253.469C294.688 253.876 294.424 254.282 294.154 254.704C290.523 260.242 286.386 265.236 281.902 270.097C281.177 270.916 280.451 271.734 279.726 272.548C258.408 296.209 227.734 310.495 196.138 313.224C194.516 313.298 192.899 313.317 191.277 313.327C190.826 313.332 190.375 313.332 189.904 313.337C188.449 313.347 186.993 313.347 185.538 313.347C185.043 313.352 184.548 313.352 184.033 313.352C176.858 313.342 169.87 313.161 162.813 311.754C162.357 311.671 161.896 311.583 161.426 311.494C140.279 307.432 119.264 298.742 103.023 284.31C102.602 283.942 102.185 283.57 101.749 283.182C100.916 282.437 100.083 281.683 99.2592 280.928C98.279 280.046 97.2891 279.188 96.2844 278.34C91.5601 274.209 87.1983 269.715 83.4198 264.706C83.0376 264.231 82.6602 263.756 82.2681 263.266C79.9354 260.345 77.8084 257.341 75.8236 254.17C75.5148 253.68 75.5148 253.68 75.1963 253.175C73.3389 250.161 72.2852 248.245 73.1282 244.613C73.6378 243.305 74.2504 242.065 74.9023 240.815C75.0787 240.472 75.2551 240.129 75.4413 239.776C82.1799 226.858 92.2707 216.189 104.493 208.347C104.777 208.166 105.062 207.985 105.356 207.793C117.314 200.232 135.27 192.655 148.022 201.079Z" fill="#62719B"/>
<path d="M202.999 64.2663C203.351 64.3643 203.699 64.4673 204.062 64.5702C214.599 67.6675 223.479 73.4406 231.423 80.929C231.747 81.2231 232.075 81.5171 232.408 81.821C240.186 89.1232 245.9 99.5913 248.576 109.844C248.669 110.177 248.762 110.51 248.86 110.858C251.83 121.66 251.713 134.382 248.576 145.129C248.478 145.482 248.375 145.83 248.272 146.193C245.783 154.661 241.553 162.434 235.834 169.143C235.471 169.575 235.109 170.006 234.736 170.447C225.645 180.895 214.27 187.516 201.038 191.197C200.7 191.29 200.357 191.388 200.009 191.486C190.693 193.922 179.416 193.701 170.163 191.197C169.502 191.035 168.835 190.873 168.174 190.707C157.161 187.869 148.188 182.023 139.778 174.534C139.421 174.221 139.063 173.902 138.695 173.579C130.781 166.144 125.365 155.598 122.258 145.345C122.16 145.027 122.062 144.708 121.964 144.385C120.376 138.871 119.994 133.323 120.023 127.609C120.023 127.286 120.023 126.967 120.028 126.634C120.058 121.532 120.278 116.729 121.645 111.804C121.753 111.412 121.861 111.02 121.974 110.613C125.208 99.258 130.717 89.9955 138.798 81.4191C139.092 81.0957 139.386 80.7673 139.69 80.4341C146.992 72.6565 157.46 66.9422 167.713 64.2663C168.046 64.1732 168.379 64.0801 168.727 63.9821C179.529 61.0122 192.251 61.1298 202.999 64.2663Z" fill="#62719B"/>
<path fill-rule="evenodd" clip-rule="evenodd" d="M425.811 390.868C421.408 396.35 418.773 403.314 418.773 410.893C418.773 422.004 424.435 431.792 433.031 437.529V442.508L253.352 441.256L252.677 390.868H425.811Z" fill="#62719B"/>
<path d="M265.749 221.256C252.127 221.256 241.085 232.299 241.085 245.92V425.503C241.085 439.125 252.127 450.167 265.749 450.167H419.127C427.209 450.167 437.12 450.36 437.072 445.061C436.735 441.93 434.377 441.322 433.028 440.599L275.19 440.148C264.229 440.148 255.344 430.491 255.344 419.53C255.344 408.569 264.229 398.142 275.19 398.142H420.861C434.927 398.142 439.166 393.518 439.166 380.03V245.92C439.166 232.299 428.124 221.256 414.502 221.256H265.749Z" fill="#5392F9"/>
<path d="M275.053 384.293C253.063 384.293 241.085 401.081 241.085 425.503C241.085 440.003 252.127 450.167 265.749 450.167H419.127C427.209 450.167 437.12 450.36 437.072 445.061C436.735 441.93 434.377 441.322 433.028 440.599L275.19 440.148C264.229 440.148 255.344 430.491 255.344 419.53C255.344 408.569 264.229 398.142 275.19 398.142H420.861C434.927 398.142 439.166 393.084 439.166 383.932L275.053 384.293Z" fill="#6C96CD"/>
<path d="M273.456 221.256C250.462 221.401 241.085 222.942 241.085 242.837V425.503C241.085 398.768 255.375 384.269 275.19 384.269L273.456 221.256Z" fill="#4071F7"/>
<path d="M347.83 367.774L360.31 339.774H366.71L379.23 367.774H372.43L362.19 343.054H364.75L354.47 367.774H347.83ZM354.07 361.774L355.79 356.854H370.19L371.95 361.774H354.07ZM379.957 359.014V354.014H391.277V359.014H379.957ZM394.827 367.774V363.574L412.147 342.694L412.947 345.054H395.147V339.774H418.707V343.974L401.427 364.854L400.627 362.494H419.307V367.774H394.827Z" fill="#DCEAFC"/>
<path d="M258 219L258 289" stroke="#5392F9" stroke-width="20" stroke-linecap="round"/>
<path d="M223 256.084H293" stroke="#5392F9" stroke-width="20" stroke-linecap="round"/>
<line x1="258" y1="219" x2="258" y2="289" stroke="#F0F6FE" stroke-width="16" stroke-linecap="round"/>
<line x1="223" y1="256.084" x2="293" y2="256.084" stroke="#F0F6FE" stroke-width="16" stroke-linecap="round"/>
<defs>
<radialGradient id="paint0_radial_225_47" cx="0" cy="0" r="1" gradientUnits="userSpaceOnUse" gradientTransform="translate(256 256) rotate(90) scale(256)">
<stop stop-color="#DCEAFC"/>
<stop offset="1" stop-color="white"/>
</radialGradient>
</defs>
</svg>
