<svg width="512" height="512" viewBox="0 0 512 512" fill="none" xmlns="http://www.w3.org/2000/svg">
<g clip-path="url(#clip0_235_2)">
<path d="M58.9909 104.853C60.4909 104.843 60.4909 104.843 62.0309 104.843C65.3909 104.833 68.7409 104.823 72.1009 104.823C74.5109 104.813 76.9209 104.813 79.3309 104.803C86.5509 104.783 93.7809 104.773 101.001 104.763C104.411 104.763 107.821 104.753 111.231 104.753C122.581 104.733 133.931 104.723 145.281 104.713C148.221 104.713 151.161 104.703 154.101 104.703C154.831 104.703 155.561 104.703 156.321 104.703C168.141 104.693 179.971 104.673 191.801 104.633C203.961 104.603 216.121 104.583 228.291 104.583C235.111 104.583 241.931 104.573 248.751 104.543C255.171 104.523 261.591 104.523 268.021 104.533C270.371 104.533 272.711 104.523 275.061 104.513C295.621 104.393 314.211 106.013 329.941 120.813C340.731 132.273 346.341 146.183 346.261 161.833C346.261 162.673 346.271 163.513 346.271 164.373C346.281 167.173 346.281 169.963 346.271 172.753C346.281 174.773 346.281 176.783 346.291 178.793C346.301 184.243 346.301 189.693 346.301 195.143C346.301 199.703 346.301 204.263 346.311 208.823C346.321 219.573 346.321 230.333 346.311 241.083C346.311 252.163 346.321 263.243 346.341 274.323C346.361 283.853 346.371 293.383 346.361 302.913C346.361 308.593 346.361 314.283 346.381 319.963C346.391 325.313 346.391 330.653 346.371 336.003C346.371 337.963 346.381 339.913 346.381 341.873C346.461 360.333 343.451 377.153 330.001 391.003C316.891 402.593 302.781 407.333 285.501 407.263C283.991 407.263 283.991 407.263 282.441 407.273C279.091 407.283 275.731 407.283 272.381 407.273C269.961 407.283 267.551 407.283 265.131 407.293C259.271 407.303 253.401 407.303 247.541 407.303C242.771 407.303 238.001 407.303 233.231 407.303C232.211 407.303 232.211 407.303 231.171 407.313C229.781 407.313 228.401 407.313 227.021 407.313C214.071 407.323 201.111 407.323 188.161 407.313C176.331 407.313 164.511 407.323 152.681 407.343C140.511 407.363 128.341 407.363 116.171 407.363C109.351 407.363 102.531 407.363 95.7109 407.383C89.2909 407.393 82.8709 407.393 76.4509 407.373C74.1109 407.373 71.7609 407.373 69.4109 407.383C46.5009 407.463 46.5009 407.463 37.0009 404.003C36.3309 403.753 35.6709 403.513 34.9809 403.263C21.2409 397.723 10.0009 387.683 4.00094 374.003C-0.609056 362.853 -0.569053 352.323 -0.519053 340.453C-0.519053 338.403 -0.529053 336.353 -0.539053 334.303C-0.559053 328.773 -0.549053 323.243 -0.539053 317.703C-0.529053 311.893 -0.539053 306.083 -0.539053 300.273C-0.549053 290.523 -0.539053 280.763 -0.519053 271.013C-0.499053 259.763 -0.509055 248.503 -0.529055 237.253C-0.549055 227.563 -0.549053 217.883 -0.539053 208.193C-0.529053 202.413 -0.529056 196.643 -0.549056 190.873C-0.559056 185.433 -0.549055 180.003 -0.529055 174.573C-0.519055 172.593 -0.519055 170.613 -0.529055 168.623C-0.609055 149.383 2.95095 134.773 16.5309 120.323C28.3809 109.203 43.1109 104.853 58.9909 104.853Z" fill="#DEDEDE"/>
<path d="M476.16 134.793C485.58 134.343 493.82 136.933 501 143.043C507.33 149.223 511.51 155.973 512.38 164.913C512.4 166.293 512.4 167.683 512.39 169.073C512.4 170.223 512.4 170.223 512.4 171.413C512.42 173.973 512.41 176.533 512.4 179.103C512.41 180.943 512.42 182.793 512.42 184.643C512.44 189.643 512.44 194.643 512.44 199.643C512.43 203.833 512.44 208.013 512.44 212.193C512.46 222.063 512.46 231.933 512.45 241.803C512.43 251.973 512.45 262.143 512.48 272.303C512.5 281.053 512.5 289.793 512.5 298.533C512.49 303.753 512.5 308.973 512.51 314.183C512.53 319.093 512.53 324.003 512.51 328.903C512.5 330.703 512.51 332.493 512.52 334.293C512.59 347.893 511.21 357.603 501.51 367.793C494.91 373.583 487.6 376.113 478.94 376.313C477.89 376.353 476.85 376.383 475.78 376.423C465.51 375.273 456.82 369.903 448.06 364.753C446.84 364.043 445.61 363.333 444.39 362.623C441.85 361.153 439.32 359.673 436.78 358.193C431.41 355.073 426.01 352.003 420.61 348.923C415.4 345.963 410.2 342.983 405 340.003C404.1 339.483 404.1 339.483 403.18 338.963C398.99 336.563 394.81 334.153 390.62 331.753C389 330.823 389 330.823 387.35 329.873C386.34 329.293 385.33 328.713 384.29 328.113C383.41 327.603 382.53 327.103 381.62 326.573C380.76 326.053 379.89 325.533 379 325.003C377.97 324.563 376.94 324.133 375.88 323.683C372.54 320.573 372.54 319.913 372.28 315.543C372.26 313.203 372.28 310.863 372.32 308.523C372.32 307.243 372.32 305.963 372.32 304.643C372.31 301.143 372.35 297.643 372.39 294.143C372.43 290.483 372.43 286.823 372.44 283.163C372.46 276.233 372.51 269.293 372.57 262.363C372.63 254.473 372.67 246.583 372.7 238.693C372.76 222.463 372.87 206.233 373 190.003C392.04 179.013 392.04 179.013 393.78 178.013C396.7 176.333 399.62 174.643 402.54 172.963C403.67 172.303 404.8 171.653 405.96 170.983C406.97 170.403 407.97 169.823 409.01 169.223C412.16 167.413 415.31 165.593 418.45 163.773C424.09 160.523 429.73 157.273 435.36 154.013C437.59 152.733 439.82 151.443 442.06 150.163C446.53 147.583 451 145.013 455.43 142.353C462.35 138.213 468.12 135.563 476.16 134.793Z" fill="#DEDEDE"/>
</g>
<defs>
<clipPath id="clip0_235_2">
<rect width="512" height="512" fill="white"/>
</clipPath>
</defs>
</svg>
