<svg width="512" height="512" viewBox="0 0 512 512" fill="none" xmlns="http://www.w3.org/2000/svg">
<circle cx="423.294" cy="422.675" r="73.8647" fill="white"/>
<circle cx="88.7061" cy="89.3248" r="55.3647" stroke="white" stroke-width="37"/>
<path fill-rule="evenodd" clip-rule="evenodd" d="M37.3903 474.906C66.2363 503.752 113.005 503.751 141.851 474.906L475.525 141.555C504.371 112.709 504.371 65.9404 475.525 37.0944C446.679 8.24847 399.91 8.24847 371.064 37.0944L37.3903 370.445C8.54438 399.291 8.54436 446.06 37.3903 474.906ZM453.053 119.084C436.618 135.519 409.971 135.519 393.535 119.084C377.1 102.648 377.1 76.0011 393.535 59.5656C409.971 43.1301 436.618 43.1301 453.053 59.5656C469.489 76.0011 469.489 102.648 453.053 119.084Z" fill="white"/>
</svg>
