<?xml version="1.0" encoding="UTF-8"?>
<!-- Generator: visioncortex VTracer 0.6.4 -->
<svg version="1.1" xmlns="http://www.w3.org/2000/svg" width="512" height="512">
<path d="M0 0 C1.42 -0 2.83 -0.01 4.25 -0.02 C8.12 -0.03 11.98 -0.03 15.85 -0.03 C20.03 -0.02 24.21 -0.04 28.39 -0.05 C36.57 -0.07 44.75 -0.08 52.93 -0.07 C59.59 -0.07 66.24 -0.08 72.9 -0.08 C74.82 -0.09 76.74 -0.09 78.66 -0.09 C79.61 -0.09 80.57 -0.09 81.55 -0.09 C99.61 -0.11 117.67 -0.11 135.73 -0.11 C152.23 -0.1 168.73 -0.12 185.23 -0.15 C202.19 -0.19 219.16 -0.2 236.12 -0.2 C245.63 -0.2 255.15 -0.2 264.66 -0.23 C272.76 -0.25 280.86 -0.25 288.97 -0.23 C293.09 -0.22 297.22 -0.22 301.35 -0.24 C326.24 -0.36 345.35 1.16 364.44 19.01 C377.81 32.96 382.19 49.05 382.12 67.88 C382.12 69.43 382.13 70.98 382.14 72.53 C382.15 76.76 382.15 80.99 382.15 85.22 C382.14 89.8 382.16 94.37 382.17 98.95 C382.19 107.9 382.2 116.85 382.19 125.8 C382.19 133.08 382.2 140.36 382.2 147.64 C382.21 149.74 382.21 151.84 382.21 153.94 C382.21 155.5 382.21 155.5 382.21 157.1 C382.23 176.86 382.23 196.61 382.23 216.37 C382.22 234.42 382.24 252.46 382.27 270.51 C382.31 289.07 382.32 307.62 382.32 326.18 C382.32 336.59 382.32 347 382.35 357.41 C382.37 366.27 382.37 375.13 382.35 383.99 C382.34 388.51 382.34 393.03 382.36 397.54 C382.38 401.69 382.38 405.83 382.35 409.98 C382.35 411.47 382.35 412.95 382.37 414.44 C382.53 433.71 376.31 448.99 363.11 463.11 C349.58 476.08 333.8 480.87 315.43 480.78 C314.01 480.79 312.59 480.79 311.17 480.8 C307.3 480.81 303.43 480.81 299.56 480.8 C295.37 480.8 291.18 480.81 287 480.82 C278.8 480.84 270.61 480.84 262.42 480.83 C255.76 480.83 249.1 480.83 242.44 480.83 C241.49 480.84 240.54 480.84 239.56 480.84 C237.63 480.84 235.7 480.84 233.77 480.84 C215.7 480.86 197.62 480.85 179.55 480.84 C163.03 480.83 146.51 480.84 129.99 480.87 C113.01 480.89 96.03 480.9 79.05 480.89 C69.52 480.89 60 480.89 50.47 480.91 C42.36 480.92 34.25 480.92 26.14 480.91 C22.01 480.9 17.88 480.9 13.74 480.91 C9.95 480.93 6.16 480.92 2.37 480.9 C0.37 480.9 -1.64 480.91 -3.64 480.92 C-21.59 480.78 -36.78 473.74 -49.47 461.23 C-62.54 447.16 -67.07 431.16 -66.91 412.3 C-66.92 410.75 -66.92 409.2 -66.93 407.64 C-66.95 403.42 -66.94 399.2 -66.93 394.98 C-66.92 390.41 -66.93 385.84 -66.95 381.27 C-66.97 372.34 -66.97 363.41 -66.95 354.47 C-66.94 347.21 -66.94 339.94 -66.94 332.68 C-66.94 331.64 -66.95 330.61 -66.95 329.54 C-66.95 327.43 -66.95 325.32 -66.95 323.22 C-66.97 303.5 -66.95 283.78 -66.92 264.05 C-66.9 247.16 -66.9 230.26 -66.93 213.37 C-66.95 193.71 -66.96 174.06 -66.95 154.41 C-66.95 152.31 -66.95 150.21 -66.94 148.11 C-66.94 147.08 -66.94 146.05 -66.94 144.98 C-66.94 137.73 -66.94 130.48 -66.96 123.23 C-66.97 114.39 -66.97 105.54 -66.94 96.7 C-66.93 92.19 -66.92 87.69 -66.94 83.18 C-66.95 79.04 -66.94 74.91 -66.92 70.77 C-66.91 69.29 -66.92 67.8 -66.93 66.32 C-67.07 47.07 -60.85 31.78 -47.66 17.68 C-34.14 4.71 -18.36 -0.08 0 0 Z " fill="#DCEAFC" transform="translate(98.27470397949219,15.6055908203125)"/>
<path d="M0 0 C5.68 2.7 9.68 6.31 14.06 10.77 C15.17 11.89 15.17 11.89 16.31 13.02 C18.74 15.46 21.16 17.91 23.58 20.36 C25.27 22.06 26.96 23.76 28.66 25.45 C33.1 29.91 37.53 34.38 41.95 38.85 C46.48 43.41 51.01 47.97 55.55 52.52 C64.43 61.45 73.31 70.39 82.17 79.34 C86.1 77.52 88.78 74.98 91.78 71.92 C92.33 71.36 92.88 70.81 93.44 70.24 C94.63 69.04 95.82 67.84 97 66.64 C98.87 64.73 100.75 62.83 102.64 60.94 C107.99 55.55 113.33 50.14 118.66 44.74 C121.93 41.43 125.2 38.13 128.48 34.83 C129.73 33.57 130.97 32.31 132.21 31.05 C133.95 29.28 135.69 27.53 137.44 25.77 C138.2 24.99 138.2 24.99 138.98 24.19 C143.71 19.46 147.36 18.16 154.01 17.98 C160.6 19.09 164.9 23.57 169.49 28.03 C170.91 29.39 172.33 30.75 173.76 32.11 C174.48 32.81 175.21 33.51 175.96 34.23 C179.51 37.62 183.09 40.98 186.67 44.34 C188.1 45.69 189.53 47.03 190.95 48.37 C195.02 52.2 199.1 56.02 203.17 59.84 C209.4 65.67 215.61 71.52 221.82 77.36 C226.6 81.86 231.38 86.36 236.17 90.84 C238.84 93.34 241.51 95.84 244.17 98.34 C244.92 99.04 245.66 99.74 246.43 100.46 C248.72 102.61 251.01 104.76 253.3 106.91 C254 107.56 254.7 108.22 255.42 108.89 C256.41 109.83 256.41 109.83 257.43 110.78 C258.01 111.33 258.59 111.87 259.19 112.43 C259.84 113.06 260.5 113.69 261.17 114.34 C262.19 115.15 263.2 115.95 264.25 116.78 C267.75 120.31 267.9 123.38 267.98 128.21 C267.96 129.24 267.95 130.27 267.93 131.33 C267.95 132.97 267.95 132.97 267.96 134.65 C267.98 138.28 267.96 141.9 267.93 145.52 C267.94 148.05 267.94 150.59 267.95 153.12 C267.95 158.43 267.93 163.74 267.9 169.05 C267.86 175.15 267.86 181.25 267.89 187.35 C267.91 193.25 267.9 199.15 267.88 205.06 C267.88 207.55 267.88 210.04 267.89 212.54 C267.94 235.54 264.8 252.68 248.56 270.06 C235.03 283.03 219.25 287.82 200.88 287.73 C199.46 287.74 198.04 287.74 196.62 287.75 C192.75 287.76 188.88 287.76 185 287.75 C180.82 287.75 176.63 287.76 172.44 287.77 C164.25 287.79 156.06 287.79 147.87 287.78 C141.21 287.78 134.55 287.78 127.89 287.78 C126.94 287.78 125.99 287.79 125.01 287.79 C123.08 287.79 121.15 287.79 119.22 287.79 C101.15 287.8 83.07 287.8 65 287.79 C48.48 287.78 31.96 287.79 15.44 287.81 C-1.54 287.84 -18.52 287.85 -35.5 287.84 C-45.03 287.84 -54.56 287.84 -64.08 287.86 C-72.19 287.87 -80.3 287.87 -88.41 287.86 C-92.54 287.85 -96.67 287.85 -100.81 287.86 C-104.6 287.87 -108.39 287.87 -112.18 287.85 C-114.19 287.84 -116.19 287.86 -118.2 287.87 C-136.14 287.73 -151.33 280.69 -164.02 268.18 C-173.1 258.41 -177.39 248.05 -180.83 235.34 C-181.11 234.36 -181.39 233.38 -181.68 232.37 C-187.46 211.39 -190.5 185.6 -179.39 165.78 C-161.25 137.15 -133.44 114.01 -108.73 91.14 C-101.14 84.12 -93.64 77.01 -86.2 69.81 C-85.71 69.34 -85.22 68.86 -84.71 68.37 C-82.73 66.45 -80.75 64.53 -78.77 62.62 C-63.69 47.99 -48.53 33.45 -33.17 19.12 C-31.57 17.63 -29.98 16.14 -28.39 14.64 C-26.21 12.61 -24.03 10.58 -21.85 8.56 C-21.22 7.96 -20.59 7.37 -19.95 6.76 C-14.21 1.48 -8.12 -2.92 0 0 Z " fill="#5392F9" transform="translate(212.8268051147461,208.65649032592773)"/>
<path d="M0 0 C4.05 2.4 7.15 5.32 10.52 8.59 C11.94 9.94 13.36 11.3 14.79 12.66 C15.51 13.36 16.24 14.06 16.99 14.78 C20.54 18.18 24.12 21.54 27.7 24.9 C29.13 26.24 30.56 27.59 31.98 28.93 C36.05 32.76 40.13 36.58 44.2 40.4 C50.43 46.23 56.64 52.07 62.85 57.92 C67.63 62.42 72.41 66.91 77.2 71.4 C79.87 73.9 82.54 76.4 85.2 78.9 C86.32 79.94 86.32 79.94 87.46 81.01 C89.75 83.16 92.04 85.31 94.33 87.46 C95.03 88.12 95.73 88.77 96.45 89.45 C97.44 90.38 97.44 90.38 98.46 91.34 C99.04 91.88 99.62 92.43 100.22 92.99 C100.87 93.62 101.53 94.25 102.2 94.9 C103.22 95.7 104.23 96.5 105.28 97.33 C108.78 100.86 108.93 103.93 109.01 108.77 C108.99 109.79 108.98 110.82 108.96 111.88 C108.98 113.53 108.98 113.53 108.99 115.21 C109.01 118.83 108.99 122.45 108.96 126.08 C108.97 128.61 108.97 131.14 108.98 133.67 C108.98 138.98 108.96 144.29 108.93 149.61 C108.89 155.71 108.89 161.8 108.92 167.9 C108.94 173.81 108.93 179.71 108.91 185.61 C108.91 188.11 108.91 190.6 108.92 193.09 C108.99 225.46 108.99 225.46 101.03 234.31 C100.43 234.83 99.83 235.36 99.2 235.9 C94.23 231.73 89.56 227.39 84.98 222.8 C84.29 222.11 83.6 221.42 82.89 220.7 C80.58 218.4 78.29 216.1 75.99 213.8 C74.33 212.14 72.67 210.48 71.02 208.83 C66.53 204.34 62.05 199.85 57.57 195.37 C53.36 191.15 49.14 186.93 44.93 182.72 C36.58 174.37 28.24 166.02 19.9 157.67 C11.8 149.56 3.7 141.45 -4.4 133.35 C-4.9 132.85 -5.4 132.35 -5.92 131.83 C-8.43 129.32 -10.94 126.81 -13.44 124.3 C-34.23 103.5 -55.02 82.7 -75.8 61.9 C-74.85 60.79 -73.91 59.68 -72.97 58.58 C-72.44 57.96 -71.92 57.35 -71.38 56.71 C-69.1 54.1 -66.68 51.63 -64.24 49.18 C-63.72 48.65 -63.2 48.13 -62.66 47.59 C-60.97 45.88 -59.27 44.18 -57.57 42.47 C-56.99 41.89 -56.41 41.3 -55.8 40.69 C-52.72 37.6 -49.64 34.5 -46.55 31.41 C-43.36 28.22 -40.19 25.02 -37.02 21.82 C-34.57 19.35 -32.11 16.89 -29.66 14.43 C-28.48 13.26 -27.31 12.08 -26.14 10.9 C-24.51 9.25 -22.87 7.61 -21.23 5.97 C-20.3 5.04 -19.37 4.1 -18.41 3.14 C-12.96 -1.54 -6.68 -2.63 0 0 Z " fill="#4071F7" transform="translate(371.796875,228.1015625)"/>
<path d="M0 0 C9.56 8.9 15.64 19.81 16.55 32.86 C17 47.55 12.85 60.21 2.84 71.09 C-7.83 81.2 -20.9 85.36 -35.39 85.09 C-49.02 84.05 -59.35 77.53 -68.66 67.84 C-77.77 56.89 -80.53 43.78 -79.66 29.84 C-77.6 16.81 -70.87 6.09 -60.66 -2.16 C-41.52 -14.7 -18.2 -14.73 0 0 Z " fill="#5392F9" transform="translate(335.6640625,139.15625)"/>
</svg>
