<svg width="512" height="513" viewBox="0 0 512 513" fill="none" xmlns="http://www.w3.org/2000/svg">
<rect y="0.5" width="512" height="512" rx="32" fill="#DCEAFC"/>
<path d="M389.463 161.051C389.463 161.051 334.915 161.049 278.024 161.049C221.133 161.049 261.775 281.375 205.361 281.375C148.947 281.375 134.109 281.377 134.109 281.377L134.11 324.744C134.11 324.744 179.277 324.742 235.691 324.742C292.105 324.742 251.463 204.416 308.354 204.416C365.245 204.416 389.463 204.418 389.463 204.418V242.003L448 184.636L389.463 123.467L389.463 161.051Z" fill="#3D85B9" stroke="#3D85B9" stroke-width="8" stroke-linejoin="round"/>
<path d="M389.463 355.44C389.463 355.44 334.915 355.442 278.024 355.442C221.133 355.442 261.775 235.116 205.361 235.116C148.947 235.116 134.109 235.114 134.109 235.114L134.11 191.747C134.11 191.747 179.277 191.749 235.691 191.749C292.105 191.749 251.463 312.075 308.354 312.075C365.245 312.075 389.463 312.073 389.463 312.073V274.488L448 331.855L389.463 393.024L389.463 355.44Z" fill="#3D85B9" stroke="#DCEAFC" stroke-width="20" stroke-linejoin="round"/>
<path d="M389.463 355.44C389.463 355.44 334.915 355.442 278.024 355.442C221.133 355.442 261.775 235.116 205.361 235.116C148.947 235.116 134.109 235.114 134.109 235.114L134.11 191.747C134.11 191.747 179.277 191.749 235.691 191.749C292.105 191.749 251.463 312.075 308.354 312.075C365.245 312.075 389.463 312.073 389.463 312.073V274.488L448 331.855L389.463 393.024L389.463 355.44Z" fill="#3D85B9" stroke="#3D85B9" stroke-width="8" stroke-linejoin="round"/>
<rect x="60" y="259.421" width="118.927" height="164.883" rx="12" fill="#DCEAFC" stroke="#DCEAFC" stroke-width="8"/>
<rect width="72.7961" height="24" transform="translate(83.0657 295.931)" fill="#DCEAFC"/>
<line x1="89.0657" y1="289.931" x2="149.862" y2="289.931" stroke="#DCEAFC" stroke-width="12" stroke-linecap="round"/>
<line x1="89.0657" y1="313.931" x2="149.862" y2="313.931" stroke="#DCEAFC" stroke-width="12" stroke-linecap="round"/>
<mask id="path-8-inside-1_222_4" fill="white">
<rect x="64" y="263.421" width="110.927" height="156.883" rx="8"/>
</mask>
<rect x="64" y="263.421" width="110.927" height="156.883" rx="8" fill="#3D85B9" stroke="#3D85B9" stroke-width="24" mask="url(#path-8-inside-1_222_4)"/>
<rect width="72.7961" height="24" transform="translate(83.0657 295.931)" fill="#3D85B9"/>
<line x1="89.0657" y1="289.931" x2="149.862" y2="289.931" stroke="#DCEAFC" stroke-width="12" stroke-linecap="round"/>
<line x1="89.0657" y1="313.931" x2="149.862" y2="313.931" stroke="#DCEAFC" stroke-width="12" stroke-linecap="round"/>
<path d="M104.657 374.247C100.684 374.247 97.5773 373.14 95.3373 370.927C93.0973 368.714 91.9773 365.554 91.9773 361.447V345.767H98.4573V361.207C98.4573 363.874 99.0039 365.794 100.097 366.967C101.191 368.14 102.724 368.727 104.697 368.727C106.671 368.727 108.204 368.14 109.297 366.967C110.391 365.794 110.937 363.874 110.937 361.207V345.767H117.337V361.447C117.337 365.554 116.217 368.714 113.977 370.927C111.737 373.14 108.631 374.247 104.657 374.247ZM129.541 367.367L129.181 359.887L142.581 345.767H149.781L137.701 358.767L134.101 362.607L129.541 367.367ZM123.741 373.767V345.767H130.181V373.767H123.741ZM142.901 373.767L132.941 361.567L137.181 356.967L150.461 373.767H142.901Z" fill="#DCEAFC"/>
<rect x="60" y="86.4206" width="118.927" height="164.883" rx="12" fill="#DCEAFC" stroke="#DCEAFC" stroke-width="8"/>
<rect width="72.7961" height="24" transform="translate(83.0657 122.931)" fill="#DCEAFC"/>
<line x1="89.0657" y1="116.931" x2="149.862" y2="116.931" stroke="#DCEAFC" stroke-width="12" stroke-linecap="round"/>
<line x1="89.0657" y1="140.931" x2="149.862" y2="140.931" stroke="#DCEAFC" stroke-width="12" stroke-linecap="round"/>
<mask id="path-15-inside-2_222_4" fill="white">
<rect x="64" y="90.4206" width="110.927" height="156.883" rx="8"/>
</mask>
<rect x="64" y="90.4206" width="110.927" height="156.883" rx="8" fill="#3D85B9" stroke="#3D85B9" stroke-width="24" mask="url(#path-15-inside-2_222_4)"/>
<rect width="72.7961" height="24" transform="translate(83.0657 122.931)" fill="#3D85B9"/>
<line x1="89.0657" y1="116.931" x2="149.862" y2="116.931" stroke="#DCEAFC" stroke-width="12" stroke-linecap="round"/>
<line x1="89.0657" y1="140.931" x2="149.862" y2="140.931" stroke="#DCEAFC" stroke-width="12" stroke-linecap="round"/>
<path d="M106.708 201.247C102.735 201.247 99.628 200.14 97.388 197.927C95.148 195.714 94.028 192.554 94.028 188.447V172.767H100.508V188.207C100.508 190.874 101.055 192.794 102.148 193.967C103.241 195.14 104.775 195.727 106.748 195.727C108.721 195.727 110.255 195.14 111.348 193.967C112.441 192.794 112.988 190.874 112.988 188.207V172.767H119.388V188.447C119.388 192.554 118.268 195.714 116.028 197.927C113.788 200.14 110.681 201.247 106.708 201.247ZM134.991 201.247C132.751 201.247 130.605 200.954 128.551 200.367C126.498 199.754 124.845 198.967 123.591 198.007L125.791 193.127C126.991 193.98 128.405 194.687 130.031 195.247C131.685 195.78 133.351 196.047 135.031 196.047C136.311 196.047 137.338 195.927 138.111 195.687C138.911 195.42 139.498 195.06 139.871 194.607C140.245 194.154 140.431 193.634 140.431 193.047C140.431 192.3 140.138 191.714 139.551 191.287C138.965 190.834 138.191 190.474 137.231 190.207C136.271 189.914 135.205 189.647 134.031 189.407C132.885 189.14 131.725 188.82 130.551 188.447C129.405 188.074 128.351 187.594 127.391 187.007C126.431 186.42 125.645 185.647 125.031 184.687C124.445 183.727 124.151 182.5 124.151 181.007C124.151 179.407 124.578 177.954 125.431 176.647C126.311 175.314 127.618 174.26 129.351 173.487C131.111 172.687 133.311 172.287 135.951 172.287C137.711 172.287 139.445 172.5 141.151 172.927C142.858 173.327 144.365 173.94 145.671 174.767L143.671 179.687C142.365 178.94 141.058 178.394 139.751 178.047C138.445 177.674 137.165 177.487 135.911 177.487C134.658 177.487 133.631 177.634 132.831 177.927C132.031 178.22 131.458 178.607 131.111 179.087C130.765 179.54 130.591 180.074 130.591 180.687C130.591 181.407 130.885 181.994 131.471 182.447C132.058 182.874 132.831 183.22 133.791 183.487C134.751 183.754 135.805 184.02 136.951 184.287C138.125 184.554 139.285 184.86 140.431 185.207C141.605 185.554 142.671 186.02 143.631 186.607C144.591 187.194 145.365 187.967 145.951 188.927C146.565 189.887 146.871 191.1 146.871 192.567C146.871 194.14 146.431 195.58 145.551 196.887C144.671 198.194 143.351 199.247 141.591 200.047C139.858 200.847 137.658 201.247 134.991 201.247Z" fill="#DCEAFC"/>
</svg>
